M48
METRIC,LZ,000.000
;FILE_FORMAT=3:3
;TYPE=PLATED
;Layer: PTH_Through_Via
;EasyEDA v6.5.22, 2022-11-14 19:57:00
;f0da57bd03cf490fa7de3f553d211417,61aeb1a5dc08497992730370c491a1bd,10
;Gerber Generator version 0.2
;Holesize 1 = 0.305 mm
T01C0.305
%
G05
G90
T01
X050673Y-002540
X051943Y-002540
X-033020Y002540
X-033020Y000000
X-033020Y007620
X-033020Y010160
X049403Y007620
X050673Y007620
X029972Y020320
X051943Y007620
X033782Y010160
X-073279Y006731
X013462Y026543
X010922Y026543
X016002Y026543
X-069850Y-007493
X-071120Y-015240
X-067183Y007620
X049403Y-002540
X005080Y-069723
X038100Y013716
X-055880Y-017780
X-055880Y-024003
X-072390Y017780
X-043561Y040767
X043053Y002540
X041783Y002540
X040513Y007620
X039243Y007620
X005080Y-073660
X039243Y-002540
X040513Y-002540
X041783Y-002540
X043053Y-002540
M30
