M48
METRIC,LZ,000.000
;FILE_FORMAT=3:3
;TYPE=PLATED
;Layer: PTH_Through
;EasyEDA v6.5.22, 2022-11-14 19:57:00
;f0da57bd03cf490fa7de3f553d211417,61aeb1a5dc08497992730370c491a1bd,10
;Gerber Generator version 0.2
;Holesize 1 = 0.813 mm
T01C0.813
;Holesize 2 = 0.901 mm
T02C0.901
;Holesize 3 = 1.000 mm
T03C1.000
;Holesize 4 = 1.050 mm
T04C1.050
;Holesize 5 = 1.200 mm
T05C1.200
%
G05
G90
T01
X040132Y025527
X040132Y022987
T02
X037592Y022987
X037592Y025527
X037592Y028067
X037592Y030607
X029972Y022987
X029972Y025527
X029972Y028067
X029972Y030607
T03
X011430Y-002190
X-011430Y-002190
X013970Y-012360
X013970Y000360
X011430Y-009810
X-013970Y-012360
X-013970Y000360
X-011430Y-009810
X-063540Y017870G85X-063540Y017870
X-063540Y015330G85X-063540Y015330
X-063540Y012790G85X-063540Y012790
X-063540Y010250G85X-063540Y010250
X-063540Y007710G85X-063540Y007710
X-063540Y005170G85X-063540Y005170
X-063540Y002630G85X-063540Y002630
X-063540Y000090G85X-063540Y000090
X-063540Y-002450G85X-063540Y-002450
X-063540Y-004990G85X-063540Y-004990
X-063540Y-007530G85X-063540Y-007530
X-063540Y-010070G85X-063540Y-010070
X-063540Y-012610G85X-063540Y-012610
X-063540Y-015150G85X-063540Y-015150
X-063540Y-017690G85X-063540Y-017690
X-038770Y017870G85X-038770Y017870
X-038770Y015330G85X-038770Y015330
X-038770Y012790G85X-038770Y012790
X-038770Y010250G85X-038770Y010250
X-038770Y007710G85X-038770Y007710
X-038770Y005170G85X-038770Y005170
X-038770Y002630G85X-038770Y002630
X-038770Y000090G85X-038770Y000090
X-038770Y-002450G85X-038770Y-002450
X-038770Y-004990G85X-038770Y-004990
X-038770Y-007530G85X-038770Y-007530
X-038770Y-010070G85X-038770Y-010070
X-038770Y-012610G85X-038770Y-012610
X-038770Y-015150G85X-038770Y-015150
X-038770Y-017690G85X-038770Y-017690
T04
X072000Y015750
X072000Y013250
X072000Y010750
X072000Y008250
X072000Y-008250
X072000Y-010750
X072000Y-013250
X072000Y-015750
T05
X-048514Y037338
X-046014Y037338
X-043514Y037338
X-051014Y037338
X-053514Y037338
M30
