G04 Layer: TopSilkscreenLayer*
G04 EasyEDA v6.5.22, 2022-11-14 19:57:00*
G04 f0da57bd03cf490fa7de3f553d211417,61aeb1a5dc08497992730370c491a1bd,10*
G04 Gerber Generator version 0.2*
G04 Scale: 100 percent, Rotated: No, Reflected: No *
G04 Dimensions in millimeters *
G04 leading zeros omitted , absolute positions ,4 integer and 5 decimal *
%FSLAX45Y45*%
%MOMM*%

%ADD10C,0.2032*%
%ADD11C,0.1524*%
%ADD12C,0.0813*%
%ADD13C,0.1544*%
%ADD14C,0.2540*%
%ADD15C,0.1520*%
%ADD16C,0.0800*%
%ADD17C,0.1199*%
%ADD18C,0.2000*%
%ADD19C,0.4064*%
%ADD20C,0.2500*%
%ADD21C,0.6000*%
%ADD22C,0.1520*%
%ADD23C,0.0139*%

%LPD*%
D10*
X-599998Y-494972D02*
G01*
X-470712Y-689028D01*
X-470712Y-494972D02*
G01*
X-599998Y-689028D01*
X-317296Y-494972D02*
G01*
X-409752Y-624258D01*
X-271068Y-624258D01*
X-317296Y-494972D02*
G01*
X-317296Y-689028D01*
X-154736Y-494972D02*
G01*
X-182422Y-504116D01*
X-200964Y-531802D01*
X-210108Y-578030D01*
X-210108Y-605716D01*
X-200964Y-651944D01*
X-182422Y-679630D01*
X-154736Y-689028D01*
X-136448Y-689028D01*
X-108508Y-679630D01*
X-90220Y-651944D01*
X-80822Y-605716D01*
X-80822Y-578030D01*
X-90220Y-531802D01*
X-108508Y-504116D01*
X-136448Y-494972D01*
X-154736Y-494972D01*
X168351Y-494972D02*
G01*
X140665Y-504116D01*
X131521Y-522658D01*
X131521Y-541200D01*
X140665Y-559488D01*
X159207Y-568886D01*
X196291Y-578030D01*
X223977Y-587428D01*
X242265Y-605716D01*
X251663Y-624258D01*
X251663Y-651944D01*
X242265Y-670486D01*
X233121Y-679630D01*
X205435Y-689028D01*
X168351Y-689028D01*
X140665Y-679630D01*
X131521Y-670486D01*
X122377Y-651944D01*
X122377Y-624258D01*
X131521Y-605716D01*
X150063Y-587428D01*
X177749Y-578030D01*
X214579Y-568886D01*
X233121Y-559488D01*
X242265Y-541200D01*
X242265Y-522658D01*
X233121Y-504116D01*
X205435Y-494972D01*
X168351Y-494972D01*
X441909Y-494972D02*
G01*
X349453Y-689028D01*
X312623Y-494972D02*
G01*
X441909Y-494972D01*
X623011Y-559488D02*
G01*
X613613Y-587428D01*
X595071Y-605716D01*
X567385Y-615114D01*
X558241Y-615114D01*
X530555Y-605716D01*
X512013Y-587428D01*
X502869Y-559488D01*
X502869Y-550344D01*
X512013Y-522658D01*
X530555Y-504116D01*
X558241Y-494972D01*
X567385Y-494972D01*
X595071Y-504116D01*
X613613Y-522658D01*
X623011Y-559488D01*
X623011Y-605716D01*
X613613Y-651944D01*
X595071Y-679630D01*
X567385Y-689028D01*
X549097Y-689028D01*
X521411Y-679630D01*
X512013Y-661088D01*
D11*
X-3610102Y160401D02*
G01*
X-3604768Y149987D01*
X-3589273Y134493D01*
X-3698239Y134493D01*
D12*
X-6110808Y1874265D02*
G01*
X-6060008Y1874265D01*
X-6087694Y1837436D01*
X-6073724Y1837436D01*
X-6064580Y1832863D01*
X-6060008Y1828037D01*
X-6055436Y1814321D01*
X-6055436Y1805178D01*
X-6060008Y1791207D01*
X-6069152Y1782063D01*
X-6083122Y1777237D01*
X-6096838Y1777237D01*
X-6110808Y1782063D01*
X-6115380Y1786636D01*
X-6119952Y1795779D01*
X-6024956Y1874265D02*
G01*
X-5987872Y1777237D01*
X-5951042Y1874265D02*
G01*
X-5987872Y1777237D01*
X-5911164Y1874265D02*
G01*
X-5860364Y1874265D01*
X-5888050Y1837436D01*
X-5874334Y1837436D01*
X-5864936Y1832863D01*
X-5860364Y1828037D01*
X-5855792Y1814321D01*
X-5855792Y1805178D01*
X-5860364Y1791207D01*
X-5869762Y1782063D01*
X-5883478Y1777237D01*
X-5897448Y1777237D01*
X-5911164Y1782063D01*
X-5915736Y1786636D01*
X-5920562Y1795779D01*
X-6050610Y1597152D02*
G01*
X-6055436Y1606550D01*
X-6064580Y1615694D01*
X-6073724Y1620265D01*
X-6092266Y1620265D01*
X-6101410Y1615694D01*
X-6110808Y1606550D01*
X-6115380Y1597152D01*
X-6119952Y1583436D01*
X-6119952Y1560321D01*
X-6115380Y1546352D01*
X-6110808Y1537207D01*
X-6101410Y1528063D01*
X-6092266Y1523237D01*
X-6073724Y1523237D01*
X-6064580Y1528063D01*
X-6055436Y1537207D01*
X-6050610Y1546352D01*
X-6050610Y1560321D01*
X-6073724Y1560321D02*
G01*
X-6050610Y1560321D01*
X-6020130Y1620265D02*
G01*
X-6020130Y1523237D01*
X-6020130Y1620265D02*
G01*
X-5955614Y1523237D01*
X-5955614Y1620265D02*
G01*
X-5955614Y1523237D01*
X-5925134Y1620265D02*
G01*
X-5925134Y1523237D01*
X-5925134Y1620265D02*
G01*
X-5892876Y1620265D01*
X-5878906Y1615694D01*
X-5869762Y1606550D01*
X-5864936Y1597152D01*
X-5860364Y1583436D01*
X-5860364Y1560321D01*
X-5864936Y1546352D01*
X-5869762Y1537207D01*
X-5878906Y1528063D01*
X-5892876Y1523237D01*
X-5925134Y1523237D01*
X-6119952Y1366265D02*
G01*
X-6119952Y1269237D01*
X-6061786Y1366265D02*
G01*
X-6070930Y1361694D01*
X-6080328Y1352550D01*
X-6084900Y1343152D01*
X-6089472Y1329436D01*
X-6089472Y1306321D01*
X-6084900Y1292352D01*
X-6080328Y1283207D01*
X-6070930Y1274063D01*
X-6061786Y1269237D01*
X-6043244Y1269237D01*
X-6034100Y1274063D01*
X-6024956Y1283207D01*
X-6020130Y1292352D01*
X-6015558Y1306321D01*
X-6015558Y1329436D01*
X-6020130Y1343152D01*
X-6024956Y1352550D01*
X-6034100Y1361694D01*
X-6043244Y1366265D01*
X-6061786Y1366265D01*
X-5985078Y1347978D02*
G01*
X-5975934Y1352550D01*
X-5961964Y1366265D01*
X-5961964Y1269237D01*
X-5876112Y1366265D02*
G01*
X-5922340Y1366265D01*
X-5926912Y1324863D01*
X-5922340Y1329436D01*
X-5908370Y1334007D01*
X-5894654Y1334007D01*
X-5880684Y1329436D01*
X-5871540Y1320037D01*
X-5866968Y1306321D01*
X-5866968Y1297178D01*
X-5871540Y1283207D01*
X-5880684Y1274063D01*
X-5894654Y1269237D01*
X-5908370Y1269237D01*
X-5922340Y1274063D01*
X-5926912Y1278636D01*
X-5931484Y1287779D01*
X-6119952Y1112265D02*
G01*
X-6119952Y1015237D01*
X-6061786Y1112265D02*
G01*
X-6070930Y1107694D01*
X-6080328Y1098550D01*
X-6084900Y1089152D01*
X-6089472Y1075436D01*
X-6089472Y1052321D01*
X-6084900Y1038352D01*
X-6080328Y1029207D01*
X-6070930Y1020063D01*
X-6061786Y1015237D01*
X-6043244Y1015237D01*
X-6034100Y1020063D01*
X-6024956Y1029207D01*
X-6020130Y1038352D01*
X-6015558Y1052321D01*
X-6015558Y1075436D01*
X-6020130Y1089152D01*
X-6024956Y1098550D01*
X-6034100Y1107694D01*
X-6043244Y1112265D01*
X-6061786Y1112265D01*
X-5980506Y1089152D02*
G01*
X-5980506Y1093978D01*
X-5975934Y1103121D01*
X-5971362Y1107694D01*
X-5961964Y1112265D01*
X-5943676Y1112265D01*
X-5934278Y1107694D01*
X-5929706Y1103121D01*
X-5925134Y1093978D01*
X-5925134Y1084579D01*
X-5929706Y1075436D01*
X-5938850Y1061465D01*
X-5985078Y1015237D01*
X-5920562Y1015237D01*
X-6119952Y858265D02*
G01*
X-6119952Y761237D01*
X-6061786Y858265D02*
G01*
X-6070930Y853694D01*
X-6080328Y844550D01*
X-6084900Y835152D01*
X-6089472Y821436D01*
X-6089472Y798321D01*
X-6084900Y784352D01*
X-6080328Y775207D01*
X-6070930Y766063D01*
X-6061786Y761237D01*
X-6043244Y761237D01*
X-6034100Y766063D01*
X-6024956Y775207D01*
X-6020130Y784352D01*
X-6015558Y798321D01*
X-6015558Y821436D01*
X-6020130Y835152D01*
X-6024956Y844550D01*
X-6034100Y853694D01*
X-6043244Y858265D01*
X-6061786Y858265D01*
X-5938850Y858265D02*
G01*
X-5985078Y793750D01*
X-5915736Y793750D01*
X-5938850Y858265D02*
G01*
X-5938850Y761237D01*
X-6119952Y604265D02*
G01*
X-6119952Y507237D01*
X-6061786Y604265D02*
G01*
X-6070930Y599694D01*
X-6080328Y590550D01*
X-6084900Y581152D01*
X-6089472Y567436D01*
X-6089472Y544321D01*
X-6084900Y530352D01*
X-6080328Y521207D01*
X-6070930Y512063D01*
X-6061786Y507237D01*
X-6043244Y507237D01*
X-6034100Y512063D01*
X-6024956Y521207D01*
X-6020130Y530352D01*
X-6015558Y544321D01*
X-6015558Y567436D01*
X-6020130Y581152D01*
X-6024956Y590550D01*
X-6034100Y599694D01*
X-6043244Y604265D01*
X-6061786Y604265D01*
X-5985078Y585978D02*
G01*
X-5975934Y590550D01*
X-5961964Y604265D01*
X-5961964Y507237D01*
X-5876112Y590550D02*
G01*
X-5880684Y599694D01*
X-5894654Y604265D01*
X-5903798Y604265D01*
X-5917768Y599694D01*
X-5926912Y585978D01*
X-5931484Y562863D01*
X-5931484Y539750D01*
X-5926912Y521207D01*
X-5917768Y512063D01*
X-5903798Y507237D01*
X-5899226Y507237D01*
X-5885256Y512063D01*
X-5876112Y521207D01*
X-5871540Y535178D01*
X-5871540Y539750D01*
X-5876112Y553465D01*
X-5885256Y562863D01*
X-5899226Y567436D01*
X-5903798Y567436D01*
X-5917768Y562863D01*
X-5926912Y553465D01*
X-5931484Y539750D01*
X-6119952Y350265D02*
G01*
X-6119952Y253237D01*
X-6061786Y350265D02*
G01*
X-6070930Y345694D01*
X-6080328Y336550D01*
X-6084900Y327152D01*
X-6089472Y313436D01*
X-6089472Y290321D01*
X-6084900Y276352D01*
X-6080328Y267207D01*
X-6070930Y258063D01*
X-6061786Y253237D01*
X-6043244Y253237D01*
X-6034100Y258063D01*
X-6024956Y267207D01*
X-6020130Y276352D01*
X-6015558Y290321D01*
X-6015558Y313436D01*
X-6020130Y327152D01*
X-6024956Y336550D01*
X-6034100Y345694D01*
X-6043244Y350265D01*
X-6061786Y350265D01*
X-5985078Y331978D02*
G01*
X-5975934Y336550D01*
X-5961964Y350265D01*
X-5961964Y253237D01*
X-5866968Y350265D02*
G01*
X-5913196Y253237D01*
X-5931484Y350265D02*
G01*
X-5866968Y350265D01*
X-6119952Y96265D02*
G01*
X-6119952Y-762D01*
X-6061786Y96265D02*
G01*
X-6070930Y91694D01*
X-6080328Y82550D01*
X-6084900Y73152D01*
X-6089472Y59436D01*
X-6089472Y36321D01*
X-6084900Y22352D01*
X-6080328Y13207D01*
X-6070930Y4063D01*
X-6061786Y-762D01*
X-6043244Y-762D01*
X-6034100Y4063D01*
X-6024956Y13207D01*
X-6020130Y22352D01*
X-6015558Y36321D01*
X-6015558Y59436D01*
X-6020130Y73152D01*
X-6024956Y82550D01*
X-6034100Y91694D01*
X-6043244Y96265D01*
X-6061786Y96265D01*
X-5929706Y96265D02*
G01*
X-5975934Y96265D01*
X-5980506Y54863D01*
X-5975934Y59436D01*
X-5961964Y64007D01*
X-5948248Y64007D01*
X-5934278Y59436D01*
X-5925134Y50037D01*
X-5920562Y36321D01*
X-5920562Y27178D01*
X-5925134Y13207D01*
X-5934278Y4063D01*
X-5948248Y-762D01*
X-5961964Y-762D01*
X-5975934Y4063D01*
X-5980506Y8636D01*
X-5985078Y17779D01*
X-6119952Y-157734D02*
G01*
X-6119952Y-254762D01*
X-6061786Y-157734D02*
G01*
X-6070930Y-162305D01*
X-6080328Y-171450D01*
X-6084900Y-180847D01*
X-6089472Y-194563D01*
X-6089472Y-217678D01*
X-6084900Y-231647D01*
X-6080328Y-240792D01*
X-6070930Y-249936D01*
X-6061786Y-254762D01*
X-6043244Y-254762D01*
X-6034100Y-249936D01*
X-6024956Y-240792D01*
X-6020130Y-231647D01*
X-6015558Y-217678D01*
X-6015558Y-194563D01*
X-6020130Y-180847D01*
X-6024956Y-171450D01*
X-6034100Y-162305D01*
X-6043244Y-157734D01*
X-6061786Y-157734D01*
X-5985078Y-176021D02*
G01*
X-5975934Y-171450D01*
X-5961964Y-157734D01*
X-5961964Y-254762D01*
X-5908370Y-157734D02*
G01*
X-5922340Y-162305D01*
X-5926912Y-171450D01*
X-5926912Y-180847D01*
X-5922340Y-189992D01*
X-5913196Y-194563D01*
X-5894654Y-199136D01*
X-5880684Y-203962D01*
X-5871540Y-213105D01*
X-5866968Y-222250D01*
X-5866968Y-236220D01*
X-5871540Y-245363D01*
X-5876112Y-249936D01*
X-5890082Y-254762D01*
X-5908370Y-254762D01*
X-5922340Y-249936D01*
X-5926912Y-245363D01*
X-5931484Y-236220D01*
X-5931484Y-222250D01*
X-5926912Y-213105D01*
X-5917768Y-203962D01*
X-5903798Y-199136D01*
X-5885256Y-194563D01*
X-5876112Y-189992D01*
X-5871540Y-180847D01*
X-5871540Y-171450D01*
X-5876112Y-162305D01*
X-5890082Y-157734D01*
X-5908370Y-157734D01*
X-6119952Y-411734D02*
G01*
X-6119952Y-508762D01*
X-6061786Y-411734D02*
G01*
X-6070930Y-416305D01*
X-6080328Y-425450D01*
X-6084900Y-434847D01*
X-6089472Y-448563D01*
X-6089472Y-471678D01*
X-6084900Y-485647D01*
X-6080328Y-494792D01*
X-6070930Y-503936D01*
X-6061786Y-508762D01*
X-6043244Y-508762D01*
X-6034100Y-503936D01*
X-6024956Y-494792D01*
X-6020130Y-485647D01*
X-6015558Y-471678D01*
X-6015558Y-448563D01*
X-6020130Y-434847D01*
X-6024956Y-425450D01*
X-6034100Y-416305D01*
X-6043244Y-411734D01*
X-6061786Y-411734D01*
X-5985078Y-430021D02*
G01*
X-5975934Y-425450D01*
X-5961964Y-411734D01*
X-5961964Y-508762D01*
X-5871540Y-443992D02*
G01*
X-5876112Y-457962D01*
X-5885256Y-467105D01*
X-5899226Y-471678D01*
X-5903798Y-471678D01*
X-5917768Y-467105D01*
X-5926912Y-457962D01*
X-5931484Y-443992D01*
X-5931484Y-439420D01*
X-5926912Y-425450D01*
X-5917768Y-416305D01*
X-5903798Y-411734D01*
X-5899226Y-411734D01*
X-5885256Y-416305D01*
X-5876112Y-425450D01*
X-5871540Y-443992D01*
X-5871540Y-467105D01*
X-5876112Y-490220D01*
X-5885256Y-503936D01*
X-5899226Y-508762D01*
X-5908370Y-508762D01*
X-5922340Y-503936D01*
X-5926912Y-494792D01*
X-6119952Y-665734D02*
G01*
X-6119952Y-762762D01*
X-6061786Y-665734D02*
G01*
X-6070930Y-670305D01*
X-6080328Y-679450D01*
X-6084900Y-688847D01*
X-6089472Y-702563D01*
X-6089472Y-725678D01*
X-6084900Y-739647D01*
X-6080328Y-748792D01*
X-6070930Y-757936D01*
X-6061786Y-762762D01*
X-6043244Y-762762D01*
X-6034100Y-757936D01*
X-6024956Y-748792D01*
X-6020130Y-739647D01*
X-6015558Y-725678D01*
X-6015558Y-702563D01*
X-6020130Y-688847D01*
X-6024956Y-679450D01*
X-6034100Y-670305D01*
X-6043244Y-665734D01*
X-6061786Y-665734D01*
X-5980506Y-688847D02*
G01*
X-5980506Y-684021D01*
X-5975934Y-674878D01*
X-5971362Y-670305D01*
X-5961964Y-665734D01*
X-5943676Y-665734D01*
X-5934278Y-670305D01*
X-5929706Y-674878D01*
X-5925134Y-684021D01*
X-5925134Y-693420D01*
X-5929706Y-702563D01*
X-5938850Y-716534D01*
X-5985078Y-762762D01*
X-5920562Y-762762D01*
X-5890082Y-684021D02*
G01*
X-5880684Y-679450D01*
X-5866968Y-665734D01*
X-5866968Y-762762D01*
X-6119952Y-919734D02*
G01*
X-6119952Y-1016762D01*
X-6061786Y-919734D02*
G01*
X-6070930Y-924305D01*
X-6080328Y-933450D01*
X-6084900Y-942847D01*
X-6089472Y-956563D01*
X-6089472Y-979678D01*
X-6084900Y-993647D01*
X-6080328Y-1002792D01*
X-6070930Y-1011936D01*
X-6061786Y-1016762D01*
X-6043244Y-1016762D01*
X-6034100Y-1011936D01*
X-6024956Y-1002792D01*
X-6020130Y-993647D01*
X-6015558Y-979678D01*
X-6015558Y-956563D01*
X-6020130Y-942847D01*
X-6024956Y-933450D01*
X-6034100Y-924305D01*
X-6043244Y-919734D01*
X-6061786Y-919734D01*
X-5975934Y-919734D02*
G01*
X-5925134Y-919734D01*
X-5952820Y-956563D01*
X-5938850Y-956563D01*
X-5929706Y-961136D01*
X-5925134Y-965962D01*
X-5920562Y-979678D01*
X-5920562Y-988821D01*
X-5925134Y-1002792D01*
X-5934278Y-1011936D01*
X-5948248Y-1016762D01*
X-5961964Y-1016762D01*
X-5975934Y-1011936D01*
X-5980506Y-1007363D01*
X-5985078Y-998220D01*
X-6119952Y-1173734D02*
G01*
X-6119952Y-1270762D01*
X-6061786Y-1173734D02*
G01*
X-6070930Y-1178305D01*
X-6080328Y-1187450D01*
X-6084900Y-1196847D01*
X-6089472Y-1210563D01*
X-6089472Y-1233678D01*
X-6084900Y-1247647D01*
X-6080328Y-1256792D01*
X-6070930Y-1265936D01*
X-6061786Y-1270762D01*
X-6043244Y-1270762D01*
X-6034100Y-1265936D01*
X-6024956Y-1256792D01*
X-6020130Y-1247647D01*
X-6015558Y-1233678D01*
X-6015558Y-1210563D01*
X-6020130Y-1196847D01*
X-6024956Y-1187450D01*
X-6034100Y-1178305D01*
X-6043244Y-1173734D01*
X-6061786Y-1173734D01*
X-5985078Y-1192021D02*
G01*
X-5975934Y-1187450D01*
X-5961964Y-1173734D01*
X-5961964Y-1270762D01*
X-6119952Y-1427734D02*
G01*
X-6119952Y-1524762D01*
X-6061786Y-1427734D02*
G01*
X-6070930Y-1432305D01*
X-6080328Y-1441450D01*
X-6084900Y-1450847D01*
X-6089472Y-1464563D01*
X-6089472Y-1487678D01*
X-6084900Y-1501647D01*
X-6080328Y-1510792D01*
X-6070930Y-1519936D01*
X-6061786Y-1524762D01*
X-6043244Y-1524762D01*
X-6034100Y-1519936D01*
X-6024956Y-1510792D01*
X-6020130Y-1501647D01*
X-6015558Y-1487678D01*
X-6015558Y-1464563D01*
X-6020130Y-1450847D01*
X-6024956Y-1441450D01*
X-6034100Y-1432305D01*
X-6043244Y-1427734D01*
X-6061786Y-1427734D01*
X-5980506Y-1450847D02*
G01*
X-5980506Y-1446021D01*
X-5975934Y-1436878D01*
X-5971362Y-1432305D01*
X-5961964Y-1427734D01*
X-5943676Y-1427734D01*
X-5934278Y-1432305D01*
X-5929706Y-1436878D01*
X-5925134Y-1446021D01*
X-5925134Y-1455420D01*
X-5929706Y-1464563D01*
X-5938850Y-1478534D01*
X-5985078Y-1524762D01*
X-5920562Y-1524762D01*
X-5885256Y-1450847D02*
G01*
X-5885256Y-1446021D01*
X-5880684Y-1436878D01*
X-5876112Y-1432305D01*
X-5866968Y-1427734D01*
X-5848426Y-1427734D01*
X-5839282Y-1432305D01*
X-5834456Y-1436878D01*
X-5829884Y-1446021D01*
X-5829884Y-1455420D01*
X-5834456Y-1464563D01*
X-5843854Y-1478534D01*
X-5890082Y-1524762D01*
X-5825312Y-1524762D01*
X-6119952Y-1681734D02*
G01*
X-6119952Y-1778762D01*
X-6061786Y-1681734D02*
G01*
X-6070930Y-1686305D01*
X-6080328Y-1695450D01*
X-6084900Y-1704847D01*
X-6089472Y-1718563D01*
X-6089472Y-1741678D01*
X-6084900Y-1755647D01*
X-6080328Y-1764792D01*
X-6070930Y-1773936D01*
X-6061786Y-1778762D01*
X-6043244Y-1778762D01*
X-6034100Y-1773936D01*
X-6024956Y-1764792D01*
X-6020130Y-1755647D01*
X-6015558Y-1741678D01*
X-6015558Y-1718563D01*
X-6020130Y-1704847D01*
X-6024956Y-1695450D01*
X-6034100Y-1686305D01*
X-6043244Y-1681734D01*
X-6061786Y-1681734D01*
X-5980506Y-1704847D02*
G01*
X-5980506Y-1700021D01*
X-5975934Y-1690878D01*
X-5971362Y-1686305D01*
X-5961964Y-1681734D01*
X-5943676Y-1681734D01*
X-5934278Y-1686305D01*
X-5929706Y-1690878D01*
X-5925134Y-1700021D01*
X-5925134Y-1709420D01*
X-5929706Y-1718563D01*
X-5938850Y-1732534D01*
X-5985078Y-1778762D01*
X-5920562Y-1778762D01*
X-5880684Y-1681734D02*
G01*
X-5829884Y-1681734D01*
X-5857570Y-1718563D01*
X-5843854Y-1718563D01*
X-5834456Y-1723136D01*
X-5829884Y-1727962D01*
X-5825312Y-1741678D01*
X-5825312Y-1750821D01*
X-5829884Y-1764792D01*
X-5839282Y-1773936D01*
X-5852998Y-1778762D01*
X-5866968Y-1778762D01*
X-5880684Y-1773936D01*
X-5885256Y-1769363D01*
X-5890082Y-1760220D01*
X-4347946Y1872437D02*
G01*
X-4311116Y1775409D01*
X-4274032Y1872437D02*
G01*
X-4311116Y1775409D01*
X-4243552Y1872437D02*
G01*
X-4243552Y1775409D01*
X-4213072Y1872437D02*
G01*
X-4213072Y1775409D01*
X-4213072Y1872437D02*
G01*
X-4148556Y1775409D01*
X-4148556Y1872437D02*
G01*
X-4148556Y1775409D01*
X-4278604Y1595323D02*
G01*
X-4283430Y1604467D01*
X-4292574Y1613611D01*
X-4301718Y1618437D01*
X-4320260Y1618437D01*
X-4329404Y1613611D01*
X-4338802Y1604467D01*
X-4343374Y1595323D01*
X-4347946Y1581353D01*
X-4347946Y1558239D01*
X-4343374Y1544523D01*
X-4338802Y1535125D01*
X-4329404Y1525981D01*
X-4320260Y1521409D01*
X-4301718Y1521409D01*
X-4292574Y1525981D01*
X-4283430Y1535125D01*
X-4278604Y1544523D01*
X-4278604Y1558239D01*
X-4301718Y1558239D02*
G01*
X-4278604Y1558239D01*
X-4248124Y1618437D02*
G01*
X-4248124Y1521409D01*
X-4248124Y1618437D02*
G01*
X-4183608Y1521409D01*
X-4183608Y1618437D02*
G01*
X-4183608Y1521409D01*
X-4153128Y1618437D02*
G01*
X-4153128Y1521409D01*
X-4153128Y1618437D02*
G01*
X-4120870Y1618437D01*
X-4106900Y1613611D01*
X-4097756Y1604467D01*
X-4093184Y1595323D01*
X-4088358Y1581353D01*
X-4088358Y1558239D01*
X-4093184Y1544523D01*
X-4097756Y1535125D01*
X-4106900Y1525981D01*
X-4120870Y1521409D01*
X-4153128Y1521409D01*
X-4347946Y1364437D02*
G01*
X-4347946Y1267409D01*
X-4289780Y1364437D02*
G01*
X-4298924Y1359611D01*
X-4308322Y1350467D01*
X-4312894Y1341323D01*
X-4317466Y1327353D01*
X-4317466Y1304239D01*
X-4312894Y1290523D01*
X-4308322Y1281125D01*
X-4298924Y1271981D01*
X-4289780Y1267409D01*
X-4271238Y1267409D01*
X-4262094Y1271981D01*
X-4252950Y1281125D01*
X-4248124Y1290523D01*
X-4243552Y1304239D01*
X-4243552Y1327353D01*
X-4248124Y1341323D01*
X-4252950Y1350467D01*
X-4262094Y1359611D01*
X-4271238Y1364437D01*
X-4289780Y1364437D01*
X-4213072Y1345895D02*
G01*
X-4203928Y1350467D01*
X-4189958Y1364437D01*
X-4189958Y1267409D01*
X-4150334Y1364437D02*
G01*
X-4099534Y1364437D01*
X-4127220Y1327353D01*
X-4113504Y1327353D01*
X-4104106Y1322781D01*
X-4099534Y1318209D01*
X-4094962Y1304239D01*
X-4094962Y1295095D01*
X-4099534Y1281125D01*
X-4108678Y1271981D01*
X-4122648Y1267409D01*
X-4136364Y1267409D01*
X-4150334Y1271981D01*
X-4154906Y1276553D01*
X-4159478Y1285697D01*
X-4347946Y1110437D02*
G01*
X-4347946Y1013409D01*
X-4289780Y1110437D02*
G01*
X-4298924Y1105611D01*
X-4308322Y1096467D01*
X-4312894Y1087323D01*
X-4317466Y1073353D01*
X-4317466Y1050239D01*
X-4312894Y1036523D01*
X-4308322Y1027125D01*
X-4298924Y1017981D01*
X-4289780Y1013409D01*
X-4271238Y1013409D01*
X-4262094Y1017981D01*
X-4252950Y1027125D01*
X-4248124Y1036523D01*
X-4243552Y1050239D01*
X-4243552Y1073353D01*
X-4248124Y1087323D01*
X-4252950Y1096467D01*
X-4262094Y1105611D01*
X-4271238Y1110437D01*
X-4289780Y1110437D01*
X-4213072Y1091895D02*
G01*
X-4203928Y1096467D01*
X-4189958Y1110437D01*
X-4189958Y1013409D01*
X-4154906Y1087323D02*
G01*
X-4154906Y1091895D01*
X-4150334Y1101039D01*
X-4145762Y1105611D01*
X-4136364Y1110437D01*
X-4118076Y1110437D01*
X-4108678Y1105611D01*
X-4104106Y1101039D01*
X-4099534Y1091895D01*
X-4099534Y1082497D01*
X-4104106Y1073353D01*
X-4113504Y1059637D01*
X-4159478Y1013409D01*
X-4094962Y1013409D01*
X-4347946Y856437D02*
G01*
X-4347946Y759409D01*
X-4289780Y856437D02*
G01*
X-4298924Y851611D01*
X-4308322Y842467D01*
X-4312894Y833323D01*
X-4317466Y819353D01*
X-4317466Y796239D01*
X-4312894Y782523D01*
X-4308322Y773125D01*
X-4298924Y763981D01*
X-4289780Y759409D01*
X-4271238Y759409D01*
X-4262094Y763981D01*
X-4252950Y773125D01*
X-4248124Y782523D01*
X-4243552Y796239D01*
X-4243552Y819353D01*
X-4248124Y833323D01*
X-4252950Y842467D01*
X-4262094Y851611D01*
X-4271238Y856437D01*
X-4289780Y856437D01*
X-4213072Y837895D02*
G01*
X-4203928Y842467D01*
X-4189958Y856437D01*
X-4189958Y759409D01*
X-4113504Y856437D02*
G01*
X-4159478Y791667D01*
X-4090390Y791667D01*
X-4113504Y856437D02*
G01*
X-4113504Y759409D01*
X-4347946Y602437D02*
G01*
X-4347946Y505409D01*
X-4289780Y602437D02*
G01*
X-4298924Y597611D01*
X-4308322Y588467D01*
X-4312894Y579323D01*
X-4317466Y565353D01*
X-4317466Y542239D01*
X-4312894Y528523D01*
X-4308322Y519125D01*
X-4298924Y509981D01*
X-4289780Y505409D01*
X-4271238Y505409D01*
X-4262094Y509981D01*
X-4252950Y519125D01*
X-4248124Y528523D01*
X-4243552Y542239D01*
X-4243552Y565353D01*
X-4248124Y579323D01*
X-4252950Y588467D01*
X-4262094Y597611D01*
X-4271238Y602437D01*
X-4289780Y602437D01*
X-4208500Y579323D02*
G01*
X-4208500Y583895D01*
X-4203928Y593039D01*
X-4199356Y597611D01*
X-4189958Y602437D01*
X-4171670Y602437D01*
X-4162272Y597611D01*
X-4157700Y593039D01*
X-4153128Y583895D01*
X-4153128Y574497D01*
X-4157700Y565353D01*
X-4166844Y551637D01*
X-4213072Y505409D01*
X-4148556Y505409D01*
X-4053306Y602437D02*
G01*
X-4099534Y505409D01*
X-4118076Y602437D02*
G01*
X-4053306Y602437D01*
X-4347946Y348437D02*
G01*
X-4347946Y251409D01*
X-4289780Y348437D02*
G01*
X-4298924Y343611D01*
X-4308322Y334467D01*
X-4312894Y325323D01*
X-4317466Y311353D01*
X-4317466Y288239D01*
X-4312894Y274523D01*
X-4308322Y265125D01*
X-4298924Y255981D01*
X-4289780Y251409D01*
X-4271238Y251409D01*
X-4262094Y255981D01*
X-4252950Y265125D01*
X-4248124Y274523D01*
X-4243552Y288239D01*
X-4243552Y311353D01*
X-4248124Y325323D01*
X-4252950Y334467D01*
X-4262094Y343611D01*
X-4271238Y348437D01*
X-4289780Y348437D01*
X-4208500Y325323D02*
G01*
X-4208500Y329895D01*
X-4203928Y339039D01*
X-4199356Y343611D01*
X-4189958Y348437D01*
X-4171670Y348437D01*
X-4162272Y343611D01*
X-4157700Y339039D01*
X-4153128Y329895D01*
X-4153128Y320497D01*
X-4157700Y311353D01*
X-4166844Y297637D01*
X-4213072Y251409D01*
X-4148556Y251409D01*
X-4062704Y334467D02*
G01*
X-4067276Y343611D01*
X-4080992Y348437D01*
X-4090390Y348437D01*
X-4104106Y343611D01*
X-4113504Y329895D01*
X-4118076Y306781D01*
X-4118076Y283667D01*
X-4113504Y265125D01*
X-4104106Y255981D01*
X-4090390Y251409D01*
X-4085564Y251409D01*
X-4071848Y255981D01*
X-4062704Y265125D01*
X-4057878Y279095D01*
X-4057878Y283667D01*
X-4062704Y297637D01*
X-4071848Y306781D01*
X-4085564Y311353D01*
X-4090390Y311353D01*
X-4104106Y306781D01*
X-4113504Y297637D01*
X-4118076Y283667D01*
X-4347946Y94437D02*
G01*
X-4347946Y-2590D01*
X-4289780Y94437D02*
G01*
X-4298924Y89611D01*
X-4308322Y80467D01*
X-4312894Y71323D01*
X-4317466Y57353D01*
X-4317466Y34239D01*
X-4312894Y20523D01*
X-4308322Y11125D01*
X-4298924Y1981D01*
X-4289780Y-2590D01*
X-4271238Y-2590D01*
X-4262094Y1981D01*
X-4252950Y11125D01*
X-4248124Y20523D01*
X-4243552Y34239D01*
X-4243552Y57353D01*
X-4248124Y71323D01*
X-4252950Y80467D01*
X-4262094Y89611D01*
X-4271238Y94437D01*
X-4289780Y94437D01*
X-4208500Y71323D02*
G01*
X-4208500Y75895D01*
X-4203928Y85039D01*
X-4199356Y89611D01*
X-4189958Y94437D01*
X-4171670Y94437D01*
X-4162272Y89611D01*
X-4157700Y85039D01*
X-4153128Y75895D01*
X-4153128Y66497D01*
X-4157700Y57353D01*
X-4166844Y43637D01*
X-4213072Y-2590D01*
X-4148556Y-2590D01*
X-4062704Y94437D02*
G01*
X-4108678Y94437D01*
X-4113504Y52781D01*
X-4108678Y57353D01*
X-4094962Y61925D01*
X-4080992Y61925D01*
X-4067276Y57353D01*
X-4057878Y48209D01*
X-4053306Y34239D01*
X-4053306Y25095D01*
X-4057878Y11125D01*
X-4067276Y1981D01*
X-4080992Y-2590D01*
X-4094962Y-2590D01*
X-4108678Y1981D01*
X-4113504Y6553D01*
X-4118076Y15697D01*
X-4347946Y-159562D02*
G01*
X-4347946Y-256590D01*
X-4289780Y-159562D02*
G01*
X-4298924Y-164388D01*
X-4308322Y-173532D01*
X-4312894Y-182676D01*
X-4317466Y-196646D01*
X-4317466Y-219760D01*
X-4312894Y-233476D01*
X-4308322Y-242874D01*
X-4298924Y-252018D01*
X-4289780Y-256590D01*
X-4271238Y-256590D01*
X-4262094Y-252018D01*
X-4252950Y-242874D01*
X-4248124Y-233476D01*
X-4243552Y-219760D01*
X-4243552Y-196646D01*
X-4248124Y-182676D01*
X-4252950Y-173532D01*
X-4262094Y-164388D01*
X-4271238Y-159562D01*
X-4289780Y-159562D01*
X-4203928Y-159562D02*
G01*
X-4153128Y-159562D01*
X-4180814Y-196646D01*
X-4166844Y-196646D01*
X-4157700Y-201218D01*
X-4153128Y-205790D01*
X-4148556Y-219760D01*
X-4148556Y-228904D01*
X-4153128Y-242874D01*
X-4162272Y-252018D01*
X-4176242Y-256590D01*
X-4189958Y-256590D01*
X-4203928Y-252018D01*
X-4208500Y-247446D01*
X-4213072Y-238302D01*
X-4108678Y-159562D02*
G01*
X-4057878Y-159562D01*
X-4085564Y-196646D01*
X-4071848Y-196646D01*
X-4062704Y-201218D01*
X-4057878Y-205790D01*
X-4053306Y-219760D01*
X-4053306Y-228904D01*
X-4057878Y-242874D01*
X-4067276Y-252018D01*
X-4080992Y-256590D01*
X-4094962Y-256590D01*
X-4108678Y-252018D01*
X-4113504Y-247446D01*
X-4118076Y-238302D01*
X-4347946Y-413562D02*
G01*
X-4347946Y-510590D01*
X-4289780Y-413562D02*
G01*
X-4298924Y-418388D01*
X-4308322Y-427532D01*
X-4312894Y-436676D01*
X-4317466Y-450646D01*
X-4317466Y-473760D01*
X-4312894Y-487476D01*
X-4308322Y-496874D01*
X-4298924Y-506018D01*
X-4289780Y-510590D01*
X-4271238Y-510590D01*
X-4262094Y-506018D01*
X-4252950Y-496874D01*
X-4248124Y-487476D01*
X-4243552Y-473760D01*
X-4243552Y-450646D01*
X-4248124Y-436676D01*
X-4252950Y-427532D01*
X-4262094Y-418388D01*
X-4271238Y-413562D01*
X-4289780Y-413562D01*
X-4203928Y-413562D02*
G01*
X-4153128Y-413562D01*
X-4180814Y-450646D01*
X-4166844Y-450646D01*
X-4157700Y-455218D01*
X-4153128Y-459790D01*
X-4148556Y-473760D01*
X-4148556Y-482904D01*
X-4153128Y-496874D01*
X-4162272Y-506018D01*
X-4176242Y-510590D01*
X-4189958Y-510590D01*
X-4203928Y-506018D01*
X-4208500Y-501446D01*
X-4213072Y-492302D01*
X-4113504Y-436676D02*
G01*
X-4113504Y-432104D01*
X-4108678Y-422960D01*
X-4104106Y-418388D01*
X-4094962Y-413562D01*
X-4076420Y-413562D01*
X-4067276Y-418388D01*
X-4062704Y-422960D01*
X-4057878Y-432104D01*
X-4057878Y-441502D01*
X-4062704Y-450646D01*
X-4071848Y-464362D01*
X-4118076Y-510590D01*
X-4053306Y-510590D01*
X-4347946Y-667562D02*
G01*
X-4347946Y-764590D01*
X-4289780Y-667562D02*
G01*
X-4298924Y-672388D01*
X-4308322Y-681532D01*
X-4312894Y-690676D01*
X-4317466Y-704646D01*
X-4317466Y-727760D01*
X-4312894Y-741476D01*
X-4308322Y-750874D01*
X-4298924Y-760018D01*
X-4289780Y-764590D01*
X-4271238Y-764590D01*
X-4262094Y-760018D01*
X-4252950Y-750874D01*
X-4248124Y-741476D01*
X-4243552Y-727760D01*
X-4243552Y-704646D01*
X-4248124Y-690676D01*
X-4252950Y-681532D01*
X-4262094Y-672388D01*
X-4271238Y-667562D01*
X-4289780Y-667562D01*
X-4203928Y-667562D02*
G01*
X-4153128Y-667562D01*
X-4180814Y-704646D01*
X-4166844Y-704646D01*
X-4157700Y-709218D01*
X-4153128Y-713790D01*
X-4148556Y-727760D01*
X-4148556Y-736904D01*
X-4153128Y-750874D01*
X-4162272Y-760018D01*
X-4176242Y-764590D01*
X-4189958Y-764590D01*
X-4203928Y-760018D01*
X-4208500Y-755446D01*
X-4213072Y-746302D01*
X-4062704Y-667562D02*
G01*
X-4108678Y-667562D01*
X-4113504Y-709218D01*
X-4108678Y-704646D01*
X-4094962Y-700074D01*
X-4080992Y-700074D01*
X-4067276Y-704646D01*
X-4057878Y-713790D01*
X-4053306Y-727760D01*
X-4053306Y-736904D01*
X-4057878Y-750874D01*
X-4067276Y-760018D01*
X-4080992Y-764590D01*
X-4094962Y-764590D01*
X-4108678Y-760018D01*
X-4113504Y-755446D01*
X-4118076Y-746302D01*
X-4347946Y-921562D02*
G01*
X-4347946Y-1018590D01*
X-4289780Y-921562D02*
G01*
X-4298924Y-926388D01*
X-4308322Y-935532D01*
X-4312894Y-944676D01*
X-4317466Y-958646D01*
X-4317466Y-981760D01*
X-4312894Y-995476D01*
X-4308322Y-1004874D01*
X-4298924Y-1014018D01*
X-4289780Y-1018590D01*
X-4271238Y-1018590D01*
X-4262094Y-1014018D01*
X-4252950Y-1004874D01*
X-4248124Y-995476D01*
X-4243552Y-981760D01*
X-4243552Y-958646D01*
X-4248124Y-944676D01*
X-4252950Y-935532D01*
X-4262094Y-926388D01*
X-4271238Y-921562D01*
X-4289780Y-921562D01*
X-4203928Y-921562D02*
G01*
X-4153128Y-921562D01*
X-4180814Y-958646D01*
X-4166844Y-958646D01*
X-4157700Y-963218D01*
X-4153128Y-967790D01*
X-4148556Y-981760D01*
X-4148556Y-990904D01*
X-4153128Y-1004874D01*
X-4162272Y-1014018D01*
X-4176242Y-1018590D01*
X-4189958Y-1018590D01*
X-4203928Y-1014018D01*
X-4208500Y-1009446D01*
X-4213072Y-1000302D01*
X-4071848Y-921562D02*
G01*
X-4118076Y-986332D01*
X-4048734Y-986332D01*
X-4071848Y-921562D02*
G01*
X-4071848Y-1018590D01*
X-4347946Y-1175562D02*
G01*
X-4311116Y-1272590D01*
X-4274032Y-1175562D02*
G01*
X-4311116Y-1272590D01*
X-4243552Y-1175562D02*
G01*
X-4243552Y-1272590D01*
X-4243552Y-1175562D02*
G01*
X-4179036Y-1272590D01*
X-4179036Y-1175562D02*
G01*
X-4179036Y-1272590D01*
X-4347946Y-1429562D02*
G01*
X-4311116Y-1526590D01*
X-4274032Y-1429562D02*
G01*
X-4311116Y-1526590D01*
X-4243552Y-1429562D02*
G01*
X-4243552Y-1526590D01*
X-4243552Y-1429562D02*
G01*
X-4202150Y-1429562D01*
X-4188180Y-1434388D01*
X-4183608Y-1438960D01*
X-4179036Y-1448104D01*
X-4179036Y-1462074D01*
X-4183608Y-1471218D01*
X-4188180Y-1475790D01*
X-4202150Y-1480362D01*
X-4243552Y-1480362D01*
X-4347946Y-1683562D02*
G01*
X-4347946Y-1780590D01*
X-4347946Y-1683562D02*
G01*
X-4288002Y-1683562D01*
X-4347946Y-1729790D02*
G01*
X-4311116Y-1729790D01*
X-4347946Y-1780590D02*
G01*
X-4288002Y-1780590D01*
X-4257522Y-1683562D02*
G01*
X-4257522Y-1780590D01*
X-4257522Y-1683562D02*
G01*
X-4192752Y-1780590D01*
X-4192752Y-1683562D02*
G01*
X-4192752Y-1780590D01*
D13*
X-5026660Y-6985D02*
G01*
X-5211063Y-6985D01*
X-5026660Y-6985D02*
G01*
X-5026660Y-121030D01*
X-5114544Y-6985D02*
G01*
X-5114544Y-77088D01*
X-5211063Y-6985D02*
G01*
X-5211063Y-121030D01*
X-5053076Y-301879D02*
G01*
X-5035550Y-284353D01*
X-5026660Y-257937D01*
X-5026660Y-222885D01*
X-5035550Y-196469D01*
X-5053076Y-178943D01*
X-5070602Y-178943D01*
X-5088128Y-187832D01*
X-5096763Y-196469D01*
X-5105654Y-213995D01*
X-5123179Y-266827D01*
X-5132070Y-284353D01*
X-5140705Y-292988D01*
X-5158231Y-301879D01*
X-5184647Y-301879D01*
X-5202173Y-284353D01*
X-5211063Y-257937D01*
X-5211063Y-222885D01*
X-5202173Y-196469D01*
X-5184647Y-178943D01*
X-5026660Y-359790D02*
G01*
X-5211063Y-359790D01*
X-5026660Y-359790D02*
G01*
X-5026660Y-438785D01*
X-5035550Y-464946D01*
X-5044186Y-473837D01*
X-5061712Y-482472D01*
X-5088128Y-482472D01*
X-5105654Y-473837D01*
X-5114544Y-464946D01*
X-5123179Y-438785D01*
X-5123179Y-359790D01*
X-5026660Y-558164D02*
G01*
X-5026660Y-654685D01*
X-5096763Y-601853D01*
X-5096763Y-628269D01*
X-5105654Y-645795D01*
X-5114544Y-654685D01*
X-5140705Y-663320D01*
X-5158231Y-663320D01*
X-5184647Y-654685D01*
X-5202173Y-636904D01*
X-5211063Y-610743D01*
X-5211063Y-584327D01*
X-5202173Y-558164D01*
X-5193284Y-549275D01*
X-5175757Y-540385D01*
X-5070602Y-730122D02*
G01*
X-5061712Y-730122D01*
X-5044186Y-738759D01*
X-5035550Y-747648D01*
X-5026660Y-765175D01*
X-5026660Y-800227D01*
X-5035550Y-817753D01*
X-5044186Y-826643D01*
X-5061712Y-835279D01*
X-5079237Y-835279D01*
X-5096763Y-826643D01*
X-5123179Y-809117D01*
X-5211063Y-721232D01*
X-5211063Y-844169D01*
X-5132070Y-902080D02*
G01*
X-5132070Y-1060069D01*
X-5026660Y-1117980D02*
G01*
X-5211063Y-1117980D01*
X-5026660Y-1117980D02*
G01*
X-5026660Y-1179195D01*
X-5035550Y-1205611D01*
X-5053076Y-1223137D01*
X-5070602Y-1232027D01*
X-5096763Y-1240662D01*
X-5140705Y-1240662D01*
X-5167121Y-1232027D01*
X-5184647Y-1223137D01*
X-5202173Y-1205611D01*
X-5211063Y-1179195D01*
X-5211063Y-1117980D01*
X-5140705Y-1298575D02*
G01*
X-5140705Y-1403985D01*
X-5123179Y-1403985D01*
X-5105654Y-1395095D01*
X-5096763Y-1386459D01*
X-5088128Y-1368932D01*
X-5088128Y-1342517D01*
X-5096763Y-1324990D01*
X-5114544Y-1307464D01*
X-5140705Y-1298575D01*
X-5158231Y-1298575D01*
X-5184647Y-1307464D01*
X-5202173Y-1324990D01*
X-5211063Y-1342517D01*
X-5211063Y-1368932D01*
X-5202173Y-1386459D01*
X-5184647Y-1403985D01*
X-5088128Y-1461896D02*
G01*
X-5211063Y-1514475D01*
X-5088128Y-1567053D02*
G01*
X-5211063Y-1514475D01*
X-5026660Y-1624964D02*
G01*
X-5211063Y-1624964D01*
X-5088128Y-1712848D02*
G01*
X-5175757Y-1624964D01*
X-5140705Y-1660017D02*
G01*
X-5211063Y-1721485D01*
X-5026660Y-1779396D02*
G01*
X-5035550Y-1788287D01*
X-5026660Y-1796922D01*
X-5018023Y-1788287D01*
X-5026660Y-1779396D01*
X-5088128Y-1788287D02*
G01*
X-5211063Y-1788287D01*
X-5026660Y-1881251D02*
G01*
X-5175757Y-1881251D01*
X-5202173Y-1890140D01*
X-5211063Y-1907667D01*
X-5211063Y-1925193D01*
X-5088128Y-1854835D02*
G01*
X-5088128Y-1916303D01*
X-5026660Y-2118232D02*
G01*
X-5211063Y-2188337D01*
X-5026660Y-2258440D02*
G01*
X-5211063Y-2188337D01*
X-5061712Y-2316353D02*
G01*
X-5053076Y-2334132D01*
X-5026660Y-2360295D01*
X-5211063Y-2360295D01*
D11*
X3399993Y5478906D02*
G01*
X3399993Y5369940D01*
X3399993Y5478906D02*
G01*
X3446729Y5478906D01*
X3462223Y5473827D01*
X3467557Y5468493D01*
X3472637Y5458079D01*
X3472637Y5447664D01*
X3467557Y5437251D01*
X3462223Y5432170D01*
X3446729Y5427090D01*
X3399993Y5427090D02*
G01*
X3446729Y5427090D01*
X3462223Y5421756D01*
X3467557Y5416677D01*
X3472637Y5406262D01*
X3472637Y5390514D01*
X3467557Y5380101D01*
X3462223Y5375020D01*
X3446729Y5369940D01*
X3399993Y5369940D01*
X3506927Y5458079D02*
G01*
X3517341Y5463412D01*
X3533089Y5478906D01*
X3533089Y5369940D01*
X5750940Y714247D02*
G01*
X5745606Y724662D01*
X5735193Y735076D01*
X5725033Y740155D01*
X5704204Y740155D01*
X5693790Y735076D01*
X5683377Y724662D01*
X5678043Y714247D01*
X5672963Y698500D01*
X5672963Y672592D01*
X5678043Y657097D01*
X5683377Y646684D01*
X5693790Y636270D01*
X5704204Y631189D01*
X5725033Y631189D01*
X5735193Y636270D01*
X5745606Y646684D01*
X5750940Y657097D01*
X5785231Y719328D02*
G01*
X5795645Y724662D01*
X5811138Y740155D01*
X5811138Y631189D01*
X5675122Y-279907D02*
G01*
X5680456Y-290321D01*
X5690870Y-300736D01*
X5701029Y-305815D01*
X5721858Y-305815D01*
X5732272Y-300736D01*
X5742686Y-290321D01*
X5748020Y-279907D01*
X5753100Y-264160D01*
X5753100Y-238252D01*
X5748020Y-222757D01*
X5742686Y-212344D01*
X5732272Y-201929D01*
X5721858Y-196850D01*
X5701029Y-196850D01*
X5690870Y-201929D01*
X5680456Y-212344D01*
X5675122Y-222757D01*
X5635752Y-279907D02*
G01*
X5635752Y-284987D01*
X5630418Y-295402D01*
X5625338Y-300736D01*
X5614924Y-305815D01*
X5594095Y-305815D01*
X5583681Y-300736D01*
X5578602Y-295402D01*
X5573268Y-284987D01*
X5573268Y-274573D01*
X5578602Y-264160D01*
X5589015Y-248665D01*
X5640831Y-196850D01*
X5568188Y-196850D01*
X5675122Y-507D02*
G01*
X5680456Y-10921D01*
X5690870Y-21336D01*
X5701029Y-26415D01*
X5721858Y-26415D01*
X5732272Y-21336D01*
X5742686Y-10921D01*
X5748020Y-507D01*
X5753100Y15239D01*
X5753100Y41147D01*
X5748020Y56642D01*
X5742686Y67055D01*
X5732272Y77470D01*
X5721858Y82550D01*
X5701029Y82550D01*
X5690870Y77470D01*
X5680456Y67055D01*
X5675122Y56642D01*
X5630418Y-26415D02*
G01*
X5573268Y-26415D01*
X5604509Y15239D01*
X5589015Y15239D01*
X5578602Y20320D01*
X5573268Y25400D01*
X5568188Y41147D01*
X5568188Y51562D01*
X5573268Y67055D01*
X5583681Y77470D01*
X5599429Y82550D01*
X5614924Y82550D01*
X5630418Y77470D01*
X5635752Y72389D01*
X5640831Y61976D01*
X6834571Y1271986D02*
G01*
X6824157Y1266652D01*
X6813743Y1256238D01*
X6808663Y1246078D01*
X6808663Y1225250D01*
X6813743Y1214836D01*
X6824157Y1204422D01*
X6834571Y1199088D01*
X6850319Y1194008D01*
X6876227Y1194008D01*
X6891721Y1199088D01*
X6902135Y1204422D01*
X6912549Y1214836D01*
X6917629Y1225250D01*
X6917629Y1246078D01*
X6912549Y1256238D01*
X6902135Y1266652D01*
X6891721Y1271986D01*
X6808663Y1306276D02*
G01*
X6917629Y1306276D01*
X6808663Y1306276D02*
G01*
X6917629Y1378920D01*
X6808663Y1378920D02*
G01*
X6917629Y1378920D01*
X6829491Y1413210D02*
G01*
X6824157Y1423624D01*
X6808663Y1439118D01*
X6917629Y1439118D01*
X6834571Y-1128008D02*
G01*
X6824157Y-1133342D01*
X6813743Y-1143756D01*
X6808663Y-1153916D01*
X6808663Y-1174744D01*
X6813743Y-1185158D01*
X6824157Y-1195572D01*
X6834571Y-1200906D01*
X6850319Y-1205986D01*
X6876227Y-1205986D01*
X6891721Y-1200906D01*
X6902135Y-1195572D01*
X6912549Y-1185158D01*
X6917629Y-1174744D01*
X6917629Y-1153916D01*
X6912549Y-1143756D01*
X6902135Y-1133342D01*
X6891721Y-1128008D01*
X6808663Y-1093718D02*
G01*
X6917629Y-1093718D01*
X6808663Y-1093718D02*
G01*
X6917629Y-1021074D01*
X6808663Y-1021074D02*
G01*
X6917629Y-1021074D01*
X6834571Y-981450D02*
G01*
X6829491Y-981450D01*
X6819077Y-976370D01*
X6813743Y-971036D01*
X6808663Y-960876D01*
X6808663Y-940048D01*
X6813743Y-929634D01*
X6819077Y-924300D01*
X6829491Y-919220D01*
X6839905Y-919220D01*
X6850319Y-924300D01*
X6865813Y-934714D01*
X6917629Y-986784D01*
X6917629Y-913886D01*
X1421384Y2019300D02*
G01*
X1530350Y2019300D01*
X1421384Y2019300D02*
G01*
X1421384Y2066036D01*
X1426463Y2081529D01*
X1431797Y2086863D01*
X1442212Y2091944D01*
X1452626Y2091944D01*
X1463039Y2086863D01*
X1468120Y2081529D01*
X1473200Y2066036D01*
X1473200Y2019300D01*
X1473200Y2055621D02*
G01*
X1530350Y2091944D01*
X1442212Y2126234D02*
G01*
X1436878Y2136647D01*
X1421384Y2152395D01*
X1530350Y2152395D01*
X1180084Y2019300D02*
G01*
X1289050Y2019300D01*
X1180084Y2019300D02*
G01*
X1180084Y2066036D01*
X1185163Y2081529D01*
X1190497Y2086863D01*
X1200912Y2091944D01*
X1211326Y2091944D01*
X1221739Y2086863D01*
X1226820Y2081529D01*
X1231900Y2066036D01*
X1231900Y2019300D01*
X1231900Y2055621D02*
G01*
X1289050Y2091944D01*
X1205992Y2131568D02*
G01*
X1200912Y2131568D01*
X1190497Y2136647D01*
X1185163Y2141981D01*
X1180084Y2152395D01*
X1180084Y2172970D01*
X1185163Y2183384D01*
X1190497Y2188718D01*
X1200912Y2193797D01*
X1211326Y2193797D01*
X1221739Y2188718D01*
X1237234Y2178304D01*
X1289050Y2126234D01*
X1289050Y2199131D01*
X887984Y2019300D02*
G01*
X996950Y2019300D01*
X887984Y2019300D02*
G01*
X887984Y2066036D01*
X893063Y2081529D01*
X898397Y2086863D01*
X908812Y2091944D01*
X919226Y2091944D01*
X929639Y2086863D01*
X934720Y2081529D01*
X939800Y2066036D01*
X939800Y2019300D01*
X939800Y2055621D02*
G01*
X996950Y2091944D01*
X887984Y2136647D02*
G01*
X887984Y2193797D01*
X929639Y2162810D01*
X929639Y2178304D01*
X934720Y2188718D01*
X939800Y2193797D01*
X955547Y2199131D01*
X965962Y2199131D01*
X981455Y2193797D01*
X991870Y2183384D01*
X996950Y2167889D01*
X996950Y2152395D01*
X991870Y2136647D01*
X986789Y2131568D01*
X976376Y2126234D01*
X3161284Y1295400D02*
G01*
X3270250Y1295400D01*
X3161284Y1295400D02*
G01*
X3161284Y1342136D01*
X3166363Y1357629D01*
X3171697Y1362963D01*
X3182111Y1368044D01*
X3192525Y1368044D01*
X3202940Y1362963D01*
X3208020Y1357629D01*
X3213100Y1342136D01*
X3213100Y1295400D01*
X3213100Y1331721D02*
G01*
X3270250Y1368044D01*
X3161284Y1454404D02*
G01*
X3233927Y1402334D01*
X3233927Y1480312D01*
X3161284Y1454404D02*
G01*
X3270250Y1454404D01*
X-3124200Y-712215D02*
G01*
X-3124200Y-603250D01*
X-3124200Y-712215D02*
G01*
X-3170936Y-712215D01*
X-3186429Y-707136D01*
X-3191763Y-701802D01*
X-3196844Y-691387D01*
X-3196844Y-680973D01*
X-3191763Y-670560D01*
X-3186429Y-665479D01*
X-3170936Y-660400D01*
X-3124200Y-660400D01*
X-3160521Y-660400D02*
G01*
X-3196844Y-603250D01*
X-3293618Y-712215D02*
G01*
X-3241547Y-712215D01*
X-3236468Y-665479D01*
X-3241547Y-670560D01*
X-3257295Y-675894D01*
X-3272789Y-675894D01*
X-3288284Y-670560D01*
X-3298697Y-660400D01*
X-3304031Y-644652D01*
X-3304031Y-634237D01*
X-3298697Y-618744D01*
X-3288284Y-608329D01*
X-3272789Y-603250D01*
X-3257295Y-603250D01*
X-3241547Y-608329D01*
X-3236468Y-613410D01*
X-3231134Y-623823D01*
X-3124200Y-966215D02*
G01*
X-3124200Y-857250D01*
X-3124200Y-966215D02*
G01*
X-3170936Y-966215D01*
X-3186429Y-961136D01*
X-3191763Y-955802D01*
X-3196844Y-945387D01*
X-3196844Y-934973D01*
X-3191763Y-924560D01*
X-3186429Y-919479D01*
X-3170936Y-914400D01*
X-3124200Y-914400D01*
X-3160521Y-914400D02*
G01*
X-3196844Y-857250D01*
X-3293618Y-950721D02*
G01*
X-3288284Y-961136D01*
X-3272789Y-966215D01*
X-3262376Y-966215D01*
X-3246881Y-961136D01*
X-3236468Y-945387D01*
X-3231134Y-919479D01*
X-3231134Y-893571D01*
X-3236468Y-872744D01*
X-3246881Y-862329D01*
X-3262376Y-857250D01*
X-3267710Y-857250D01*
X-3283204Y-862329D01*
X-3293618Y-872744D01*
X-3298697Y-888237D01*
X-3298697Y-893571D01*
X-3293618Y-909065D01*
X-3283204Y-919479D01*
X-3267710Y-924560D01*
X-3262376Y-924560D01*
X-3246881Y-919479D01*
X-3236468Y-909065D01*
X-3231134Y-893571D01*
X-3124200Y-1220215D02*
G01*
X-3124200Y-1111250D01*
X-3124200Y-1220215D02*
G01*
X-3170936Y-1220215D01*
X-3186429Y-1215136D01*
X-3191763Y-1209802D01*
X-3196844Y-1199387D01*
X-3196844Y-1188973D01*
X-3191763Y-1178560D01*
X-3186429Y-1173479D01*
X-3170936Y-1168400D01*
X-3124200Y-1168400D01*
X-3160521Y-1168400D02*
G01*
X-3196844Y-1111250D01*
X-3257295Y-1220215D02*
G01*
X-3241547Y-1215136D01*
X-3236468Y-1204721D01*
X-3236468Y-1194307D01*
X-3241547Y-1183894D01*
X-3251962Y-1178560D01*
X-3272789Y-1173479D01*
X-3288284Y-1168400D01*
X-3298697Y-1157986D01*
X-3304031Y-1147571D01*
X-3304031Y-1131823D01*
X-3298697Y-1121410D01*
X-3293618Y-1116329D01*
X-3277870Y-1111250D01*
X-3257295Y-1111250D01*
X-3241547Y-1116329D01*
X-3236468Y-1121410D01*
X-3231134Y-1131823D01*
X-3231134Y-1147571D01*
X-3236468Y-1157986D01*
X-3246881Y-1168400D01*
X-3262376Y-1173479D01*
X-3283204Y-1178560D01*
X-3293618Y-1183894D01*
X-3298697Y-1194307D01*
X-3298697Y-1204721D01*
X-3293618Y-1215136D01*
X-3277870Y-1220215D01*
X-3257295Y-1220215D01*
X4369991Y801115D02*
G01*
X4369991Y723137D01*
X4375073Y707644D01*
X4385487Y697229D01*
X4401233Y692150D01*
X4411649Y692150D01*
X4427141Y697229D01*
X4437557Y707644D01*
X4442637Y723137D01*
X4442637Y801115D01*
X4476925Y780287D02*
G01*
X4487339Y785621D01*
X4503089Y801115D01*
X4503089Y692150D01*
X2754884Y2641600D02*
G01*
X2832861Y2641600D01*
X2848356Y2646679D01*
X2858770Y2657094D01*
X2863850Y2672842D01*
X2863850Y2683255D01*
X2858770Y2698750D01*
X2848356Y2709163D01*
X2832861Y2714244D01*
X2754884Y2714244D01*
X2780791Y2753868D02*
G01*
X2775711Y2753868D01*
X2765297Y2758947D01*
X2759963Y2764281D01*
X2754884Y2774695D01*
X2754884Y2795270D01*
X2759963Y2805684D01*
X2765297Y2811018D01*
X2775711Y2816097D01*
X2786125Y2816097D01*
X2796540Y2811018D01*
X2812034Y2800604D01*
X2863850Y2748534D01*
X2863850Y2821431D01*
X5144515Y2425700D02*
G01*
X5092700Y2384044D01*
X5035550Y2384044D01*
X5144515Y2342642D02*
G01*
X5092700Y2384044D01*
X5123688Y2308352D02*
G01*
X5129022Y2297937D01*
X5144515Y2282189D01*
X5035550Y2282189D01*
X-4911979Y3250692D02*
G01*
X-4906645Y3240278D01*
X-4896230Y3229863D01*
X-4886070Y3224784D01*
X-4865243Y3224784D01*
X-4854829Y3229863D01*
X-4844414Y3240278D01*
X-4839080Y3250692D01*
X-4834001Y3266439D01*
X-4834001Y3292347D01*
X-4839080Y3307842D01*
X-4844414Y3318255D01*
X-4854829Y3328670D01*
X-4865243Y3333750D01*
X-4886070Y3333750D01*
X-4896230Y3328670D01*
X-4906645Y3318255D01*
X-4911979Y3307842D01*
X-4946269Y3224784D02*
G01*
X-4946269Y3333750D01*
X-4946269Y3224784D02*
G01*
X-5018912Y3333750D01*
X-5018912Y3224784D02*
G01*
X-5018912Y3333750D01*
X-5105272Y3224784D02*
G01*
X-5053203Y3297428D01*
X-5131180Y3297428D01*
X-5105272Y3224784D02*
G01*
X-5105272Y3333750D01*
X318515Y-7124700D02*
G01*
X240537Y-7124700D01*
X225044Y-7129779D01*
X214629Y-7140194D01*
X209550Y-7155942D01*
X209550Y-7166355D01*
X214629Y-7181850D01*
X225044Y-7192263D01*
X240537Y-7197344D01*
X318515Y-7197344D01*
X318515Y-7283704D02*
G01*
X245871Y-7231634D01*
X245871Y-7309612D01*
X318515Y-7283704D02*
G01*
X209550Y-7283704D01*
X-7524242Y722884D02*
G01*
X-7513828Y727963D01*
X-7503413Y738378D01*
X-7498079Y748792D01*
X-7493000Y764539D01*
X-7493000Y790447D01*
X-7498079Y805942D01*
X-7503413Y816355D01*
X-7513828Y826770D01*
X-7524242Y831850D01*
X-7545070Y831850D01*
X-7555229Y826770D01*
X-7565644Y816355D01*
X-7570978Y805942D01*
X-7576058Y790447D01*
X-7576058Y764539D01*
X-7570978Y748792D01*
X-7565644Y738378D01*
X-7555229Y727963D01*
X-7545070Y722884D01*
X-7524242Y722884D01*
X-7539736Y811276D02*
G01*
X-7570978Y842263D01*
X-7610347Y743712D02*
G01*
X-7620762Y738378D01*
X-7636510Y722884D01*
X-7636510Y831850D01*
X-7938515Y1498600D02*
G01*
X-7829550Y1498600D01*
X-7938515Y1498600D02*
G01*
X-7938515Y1545336D01*
X-7933436Y1560829D01*
X-7928102Y1566163D01*
X-7917687Y1571244D01*
X-7907273Y1571244D01*
X-7896860Y1566163D01*
X-7891779Y1560829D01*
X-7886700Y1545336D01*
X-7886700Y1498600D01*
X-7886700Y1534921D02*
G01*
X-7829550Y1571244D01*
X-7902194Y1673097D02*
G01*
X-7886700Y1668018D01*
X-7876286Y1657604D01*
X-7870952Y1642110D01*
X-7870952Y1636776D01*
X-7876286Y1621281D01*
X-7886700Y1610868D01*
X-7902194Y1605534D01*
X-7907273Y1605534D01*
X-7923021Y1610868D01*
X-7933436Y1621281D01*
X-7938515Y1636776D01*
X-7938515Y1642110D01*
X-7933436Y1657604D01*
X-7923021Y1668018D01*
X-7902194Y1673097D01*
X-7876286Y1673097D01*
X-7850123Y1668018D01*
X-7834629Y1657604D01*
X-7829550Y1642110D01*
X-7829550Y1631695D01*
X-7834629Y1615947D01*
X-7845044Y1610868D01*
X-7532115Y1498600D02*
G01*
X-7423150Y1498600D01*
X-7532115Y1498600D02*
G01*
X-7532115Y1545336D01*
X-7527036Y1560829D01*
X-7521702Y1566163D01*
X-7511287Y1571244D01*
X-7500873Y1571244D01*
X-7490460Y1566163D01*
X-7485379Y1560829D01*
X-7480300Y1545336D01*
X-7480300Y1498600D01*
X-7480300Y1534921D02*
G01*
X-7423150Y1571244D01*
X-7511287Y1605534D02*
G01*
X-7516621Y1615947D01*
X-7532115Y1631695D01*
X-7423150Y1631695D01*
X-7532115Y1696973D02*
G01*
X-7527036Y1681479D01*
X-7511287Y1671065D01*
X-7485379Y1665986D01*
X-7469886Y1665986D01*
X-7443723Y1671065D01*
X-7428229Y1681479D01*
X-7423150Y1696973D01*
X-7423150Y1707387D01*
X-7428229Y1723136D01*
X-7443723Y1733550D01*
X-7469886Y1738629D01*
X-7485379Y1738629D01*
X-7511287Y1733550D01*
X-7527036Y1723136D01*
X-7532115Y1707387D01*
X-7532115Y1696973D01*
G36*
X2264511Y5315254D02*
G01*
X2264511Y4693208D01*
X2265019Y4300016D01*
X2294991Y4304995D01*
X2294991Y5315254D01*
G37*
G36*
X2264511Y4306773D02*
G01*
X2264511Y3684727D01*
X2294991Y3684727D01*
X2294991Y4306773D01*
G37*
G36*
X4365193Y5307634D02*
G01*
X4512614Y5160365D01*
X4512614Y5307634D01*
G37*
D14*
X-3729989Y2799994D02*
G01*
X-3729989Y-2399995D01*
X-6519976Y-2399995D01*
X-6519976Y2799994D01*
X-3729989Y2799994D01*
D11*
X4512612Y3692370D02*
G01*
X4512612Y4301670D01*
D15*
X2479997Y5164988D02*
G01*
X2369992Y5164988D01*
X4319988Y3834993D02*
G01*
X4429988Y3834993D01*
X4374989Y3779992D02*
G01*
X4374989Y3889992D01*
X4512612Y4698311D02*
G01*
X4512612Y4294296D01*
D11*
X2219995Y5304988D02*
G01*
X2219995Y3694747D01*
D15*
X2219995Y5307365D02*
G01*
X2234996Y5307365D01*
X2234996Y3692367D01*
X2219995Y3692367D01*
X1974984Y4149991D02*
G01*
X2287366Y4149991D01*
X1974984Y4149991D02*
G01*
X1974982Y4291977D01*
X1974984Y4849990D02*
G01*
X1974982Y4708004D01*
X1974984Y4849990D02*
G01*
X2287366Y4849990D01*
X4824991Y4149991D02*
G01*
X4512612Y4149991D01*
X4824991Y4149991D02*
G01*
X4824991Y4291977D01*
X4824991Y4849990D02*
G01*
X4824991Y4708004D01*
X4824991Y4849990D02*
G01*
X4512612Y4849990D01*
X4364014Y5307611D02*
G01*
X4366440Y5307611D01*
X4512612Y5161440D01*
D11*
X2287374Y5307611D02*
G01*
X4512612Y5307611D01*
X4512612Y5307611D02*
G01*
X4512612Y4698311D01*
X2287374Y3692370D02*
G01*
X4512612Y3692370D01*
D16*
X5519420Y415289D02*
G01*
X5834379Y415289D01*
X5516879Y575310D02*
G01*
X5836920Y575310D01*
X5644550Y415289D02*
G01*
X5644923Y575310D01*
D14*
X5588698Y-128877D02*
G01*
X5588698Y-48874D01*
X5699673Y-159862D02*
G01*
X5619676Y-159862D01*
X5699673Y-17896D02*
G01*
X5619676Y-17896D01*
X5757263Y-160444D02*
G01*
X5837262Y-160444D01*
X5868245Y-129461D02*
G01*
X5868245Y-49463D01*
X5757263Y-18483D02*
G01*
X5837262Y-18483D01*
X5588698Y150522D02*
G01*
X5588698Y230525D01*
X5699673Y119537D02*
G01*
X5619676Y119537D01*
X5699673Y261503D02*
G01*
X5619676Y261503D01*
X5757263Y118955D02*
G01*
X5837262Y118955D01*
X5868245Y149938D02*
G01*
X5868245Y229936D01*
X5757263Y260916D02*
G01*
X5837262Y260916D01*
X6962487Y1391226D02*
G01*
X7039985Y1391226D01*
X7039985Y1557530D01*
X6967247Y1557530D01*
X6962487Y1552770D01*
X6962487Y842459D02*
G01*
X7039985Y842459D01*
X7039985Y1008763D01*
X6967247Y1008763D01*
X6962487Y1004003D01*
X7542481Y574997D02*
G01*
X6962487Y574997D01*
X6962487Y1824997D01*
X7542481Y1824997D01*
X7542481Y575995D01*
X7541483Y574997D01*
X6962487Y-1008768D02*
G01*
X7039985Y-1008768D01*
X7039985Y-842464D01*
X6967247Y-842464D01*
X6962487Y-847224D01*
X6962487Y-1557535D02*
G01*
X7039985Y-1557535D01*
X7039985Y-1391231D01*
X6967247Y-1391231D01*
X6962487Y-1395991D01*
X7542481Y-1824997D02*
G01*
X6962487Y-1824997D01*
X6962487Y-574997D01*
X7542481Y-574997D01*
X7542481Y-1823999D01*
X7541483Y-1824997D01*
D11*
X1534139Y2332278D02*
G01*
X1534139Y2236391D01*
X1666260Y2236391D01*
X1666260Y2332278D01*
X1534139Y2417521D02*
G01*
X1534139Y2513408D01*
X1666260Y2513408D01*
X1666260Y2417521D01*
X1280139Y2332278D02*
G01*
X1280139Y2236391D01*
X1412260Y2236391D01*
X1412260Y2332278D01*
X1280139Y2417521D02*
G01*
X1280139Y2513408D01*
X1412260Y2513408D01*
X1412260Y2417521D01*
X1026139Y2332278D02*
G01*
X1026139Y2236391D01*
X1158260Y2236391D01*
X1158260Y2332278D01*
X1026139Y2417521D02*
G01*
X1026139Y2513408D01*
X1158260Y2513408D01*
X1158260Y2417521D01*
X3444260Y1338021D02*
G01*
X3444260Y1433908D01*
X3312139Y1433908D01*
X3312139Y1338021D01*
X3444260Y1252778D02*
G01*
X3444260Y1156891D01*
X3312139Y1156891D01*
X3312139Y1252778D01*
X-3166821Y-429239D02*
G01*
X-3262708Y-429239D01*
X-3262708Y-561360D01*
X-3166821Y-561360D01*
X-3081578Y-429239D02*
G01*
X-2985691Y-429239D01*
X-2985691Y-561360D01*
X-3081578Y-561360D01*
X-3166821Y-683239D02*
G01*
X-3262708Y-683239D01*
X-3262708Y-815360D01*
X-3166821Y-815360D01*
X-3081578Y-683239D02*
G01*
X-2985691Y-683239D01*
X-2985691Y-815360D01*
X-3081578Y-815360D01*
X-3166821Y-937239D02*
G01*
X-3262708Y-937239D01*
X-3262708Y-1069360D01*
X-3166821Y-1069360D01*
X-3081578Y-937239D02*
G01*
X-2985691Y-937239D01*
X-2985691Y-1069360D01*
X-3081578Y-1069360D01*
D17*
X3469485Y-570001D02*
G01*
X3469485Y650011D01*
X5270500Y650011D01*
X5270500Y-650011D01*
X3549495Y-650011D01*
X3469485Y-570001D01*
D18*
X3314199Y2185700D02*
G01*
X3314700Y2185670D01*
X3113277Y2185670D01*
X3113277Y3175762D01*
X3643122Y3175762D01*
X3643122Y2185670D01*
X3441700Y2185670D01*
X3442200Y2185700D01*
D14*
X4178300Y2565400D02*
G01*
X4178300Y2286000D01*
X5003800Y2552700D02*
G01*
X5003800Y2298700D01*
X4178300Y2286000D02*
G01*
X4216400Y2286000D01*
X4216400Y2273300D02*
G01*
X4216400Y2286000D01*
X4216400Y2273300D02*
G01*
X4978400Y2273300D01*
X4178300Y2565400D02*
G01*
X4216400Y2565400D01*
X4216400Y2578100D02*
G01*
X4216400Y2565400D01*
X4216400Y2578100D02*
G01*
X4978400Y2578100D01*
X4216400Y2286000D02*
G01*
X4216400Y2565400D01*
D19*
X4084320Y2369820D02*
G01*
X4089400Y2374900D01*
X4089400Y2374900D02*
G01*
X4127500Y2374900D01*
X4089400Y2476500D02*
G01*
X4114800Y2476500D01*
X4084320Y2481579D02*
G01*
X4089400Y2476500D01*
D14*
X4572000Y2501900D02*
G01*
X4533900Y2501900D01*
X4533900Y2349500D02*
G01*
X4533900Y2501900D01*
X4533900Y2349500D02*
G01*
X4572000Y2349500D01*
X4572000Y2501900D02*
G01*
X4572000Y2349500D01*
X4610100Y2501900D02*
G01*
X4610100Y2425700D01*
X4495800Y2501900D02*
G01*
X4495800Y2425700D01*
X4495800Y2425700D02*
G01*
X4445000Y2425700D01*
X4495800Y2425700D02*
G01*
X4495800Y2349500D01*
X4610100Y2425700D02*
G01*
X4660900Y2425700D01*
X4610100Y2425700D02*
G01*
X4610100Y2349500D01*
X-4101401Y3383800D02*
G01*
X-5601403Y3383800D01*
X-5601403Y3383800D02*
G01*
X-5601403Y3963799D01*
X-4101401Y3963799D02*
G01*
X-5601403Y3963799D01*
X-4101401Y3383800D02*
G01*
X-4101401Y3963799D01*
X-5562600Y3797300D02*
G01*
X-5600700Y3797300D01*
X-5600700Y3911600D01*
X-5562600Y3911600D01*
X-5562600Y3797300D01*
X-4106113Y3797300D02*
G01*
X-4144213Y3797300D01*
X-4144213Y3911600D01*
X-4106113Y3911600D01*
X-4106113Y3797300D01*
X-5283200Y3911600D02*
G01*
X-5435600Y3911600D01*
X-5435600Y3962400D01*
X-5283200Y3962400D01*
X-5283200Y3911600D01*
X-4271213Y3911600D02*
G01*
X-4423613Y3911600D01*
X-4423613Y3962400D01*
X-4271213Y3962400D01*
X-4271213Y3911600D01*
X-4144213Y3429000D02*
G01*
X-5562600Y3429000D01*
X-5562600Y3911600D01*
X-4144213Y3911600D01*
X-4144213Y3429000D01*
D11*
X152620Y-7197321D02*
G01*
X152620Y-7052078D01*
X49458Y-7052078D01*
X-152620Y-7197321D02*
G01*
X-152620Y-7052078D01*
X-49458Y-7052078D01*
X45539Y-7197321D02*
G01*
X-45539Y-7197321D01*
X-7565621Y888779D02*
G01*
X-7420378Y888779D01*
X-7420378Y991941D01*
X-7565621Y1194020D02*
G01*
X-7420378Y1194020D01*
X-7420378Y1090858D01*
X-7565621Y995860D02*
G01*
X-7565621Y1086939D01*
X-7655539Y1541221D02*
G01*
X-7655539Y1637108D01*
X-7787660Y1637108D01*
X-7787660Y1541221D01*
X-7655539Y1455978D02*
G01*
X-7655539Y1360091D01*
X-7787660Y1360091D01*
X-7787660Y1455978D01*
X-7249139Y1541221D02*
G01*
X-7249139Y1637108D01*
X-7381260Y1637108D01*
X-7381260Y1541221D01*
X-7249139Y1455978D02*
G01*
X-7249139Y1360091D01*
X-7381260Y1360091D01*
X-7381260Y1455978D01*
D15*
G75*
G01*
X2810350Y5307653D02*
G03*
X2809484Y3692962I589642J-807662D01*
G75*
G01*
X3989631Y3692329D02*
G03*
X3990500Y5307020I-589641J807663D01*
D14*
G75*
G01*
X5868251Y-129461D02*
G02*
X5837268Y-160444I-30983J0D01*
G75*
G01*
X5837268Y-18478D02*
G02*
X5868251Y-49464I0J-30983D01*
G75*
G01*
X5619681Y-159863D02*
G02*
X5588699Y-128877I0J30983D01*
G75*
G01*
X5588699Y-48880D02*
G02*
X5619681Y-17897I30982J0D01*
G75*
G01*
X5868251Y149939D02*
G02*
X5837268Y118956I-30983J0D01*
G75*
G01*
X5837268Y260922D02*
G02*
X5868251Y229936I0J-30983D01*
G75*
G01*
X5619681Y119537D02*
G02*
X5588699Y150523I0J30983D01*
G75*
G01*
X5588699Y230520D02*
G02*
X5619681Y261503I30982J0D01*
D18*
G75*
G01*
X3442200Y2185700D02*
G03*
X3315200Y2185700I-63500J0D01*
D20*
G75*
G01*
X3759200Y2156206D02*
G03*
X3758946Y2156206I-127J12499D01*
D21*
G75*
G01*
X3543300Y2234692D02*
G03*
X3542792Y2234692I-254J29999D01*
D14*
G75*
G01*
X5003797Y2298700D02*
G02*
X4978397Y2273300I-25400J0D01*
G75*
G01*
X4978397Y2578100D02*
G02*
X5003797Y2552700I0J-25400D01*
G75*
G01
X1699997Y-599999D02*
G03X1699997Y-599999I-1699997J0D01*
D22*
G75*
G01
X4466793Y3834994D02*
G03X4466793Y3834994I-91796J0D01*
G75*
G01
X2516784Y5164988D02*
G03X2516784Y5164988I-91796J0D01*
M02*
