G04 Layer: TopPasteMaskLayer*
G04 EasyEDA v6.5.22, 2022-11-14 19:57:00*
G04 f0da57bd03cf490fa7de3f553d211417,61aeb1a5dc08497992730370c491a1bd,10*
G04 Gerber Generator version 0.2*
G04 Scale: 100 percent, Rotated: No, Reflected: No *
G04 Dimensions in millimeters *
G04 leading zeros omitted , absolute positions ,4 integer and 5 decimal *
%FSLAX45Y45*%
%MOMM*%

%AMMACRO1*4,1,4,-0.2499,1,0.2499,1,0.2499,-1,-0.2499,-1,-0.2499,1,0*%
%ADD10R,4.2000X3.8000*%
%ADD11R,1.5000X1.3589*%
%ADD12R,0.8000X0.9000*%
%ADD13MACRO1*%
%ADD14R,0.7000X1.2500*%
%ADD15R,1.2500X0.7000*%

%LPD*%
G36*
X1560220Y2340406D02*
G01*
X1555191Y2335377D01*
X1555191Y2255418D01*
X1560220Y2250389D01*
X1640179Y2250389D01*
X1645208Y2255418D01*
X1645208Y2335377D01*
X1640179Y2340406D01*
X1617421Y2340406D01*
X1617421Y2303373D01*
X1584401Y2303373D01*
X1584401Y2340406D01*
G37*
G36*
X1560220Y2499410D02*
G01*
X1555191Y2494381D01*
X1555191Y2415387D01*
X1560220Y2410409D01*
X1584401Y2410409D01*
X1584401Y2448407D01*
X1617421Y2448407D01*
X1617421Y2410409D01*
X1640179Y2410409D01*
X1645208Y2415387D01*
X1645208Y2494381D01*
X1640179Y2499410D01*
G37*
G36*
X1306220Y2340406D02*
G01*
X1301191Y2335377D01*
X1301191Y2255418D01*
X1306220Y2250389D01*
X1386179Y2250389D01*
X1391208Y2255418D01*
X1391208Y2335377D01*
X1386179Y2340406D01*
X1363421Y2340406D01*
X1363421Y2303373D01*
X1330401Y2303373D01*
X1330401Y2340406D01*
G37*
G36*
X1306220Y2499410D02*
G01*
X1301191Y2494381D01*
X1301191Y2415387D01*
X1306220Y2410409D01*
X1330401Y2410409D01*
X1330401Y2448407D01*
X1363421Y2448407D01*
X1363421Y2410409D01*
X1386179Y2410409D01*
X1391208Y2415387D01*
X1391208Y2494381D01*
X1386179Y2499410D01*
G37*
G36*
X1052220Y2340406D02*
G01*
X1047191Y2335377D01*
X1047191Y2255418D01*
X1052220Y2250389D01*
X1132179Y2250389D01*
X1137208Y2255418D01*
X1137208Y2335377D01*
X1132179Y2340406D01*
X1109421Y2340406D01*
X1109421Y2303373D01*
X1076401Y2303373D01*
X1076401Y2340406D01*
G37*
G36*
X1052220Y2499410D02*
G01*
X1047191Y2494381D01*
X1047191Y2415387D01*
X1052220Y2410409D01*
X1076401Y2410409D01*
X1076401Y2448407D01*
X1109421Y2448407D01*
X1109421Y2410409D01*
X1132179Y2410409D01*
X1137208Y2415387D01*
X1137208Y2494381D01*
X1132179Y2499410D01*
G37*
G36*
X3338220Y1419910D02*
G01*
X3333191Y1414881D01*
X3333191Y1334922D01*
X3338220Y1329893D01*
X3360978Y1329893D01*
X3360978Y1366926D01*
X3393998Y1366926D01*
X3393998Y1329893D01*
X3418179Y1329893D01*
X3423208Y1334922D01*
X3423208Y1414881D01*
X3418179Y1419910D01*
G37*
G36*
X3338220Y1259890D02*
G01*
X3333191Y1254912D01*
X3333191Y1175918D01*
X3338220Y1170889D01*
X3418179Y1170889D01*
X3423208Y1175918D01*
X3423208Y1254912D01*
X3418179Y1259890D01*
X3393998Y1259890D01*
X3393998Y1221892D01*
X3360978Y1221892D01*
X3360978Y1259890D01*
G37*
G36*
X-3243681Y-450291D02*
G01*
X-3248710Y-455320D01*
X-3248710Y-535279D01*
X-3243681Y-540308D01*
X-3163722Y-540308D01*
X-3158693Y-535279D01*
X-3158693Y-512521D01*
X-3195726Y-512521D01*
X-3195726Y-479501D01*
X-3158693Y-479501D01*
X-3158693Y-455320D01*
X-3163722Y-450291D01*
G37*
G36*
X-3083712Y-450291D02*
G01*
X-3088690Y-455320D01*
X-3088690Y-479501D01*
X-3050692Y-479501D01*
X-3050692Y-512521D01*
X-3088690Y-512521D01*
X-3088690Y-535279D01*
X-3083712Y-540308D01*
X-3004718Y-540308D01*
X-2999689Y-535279D01*
X-2999689Y-455320D01*
X-3004718Y-450291D01*
G37*
G36*
X-3243681Y-704291D02*
G01*
X-3248710Y-709320D01*
X-3248710Y-789279D01*
X-3243681Y-794308D01*
X-3163722Y-794308D01*
X-3158693Y-789279D01*
X-3158693Y-766521D01*
X-3195726Y-766521D01*
X-3195726Y-733501D01*
X-3158693Y-733501D01*
X-3158693Y-709320D01*
X-3163722Y-704291D01*
G37*
G36*
X-3083712Y-704291D02*
G01*
X-3088690Y-709320D01*
X-3088690Y-733501D01*
X-3050692Y-733501D01*
X-3050692Y-766521D01*
X-3088690Y-766521D01*
X-3088690Y-789279D01*
X-3083712Y-794308D01*
X-3004718Y-794308D01*
X-2999689Y-789279D01*
X-2999689Y-709320D01*
X-3004718Y-704291D01*
G37*
G36*
X-3243681Y-958291D02*
G01*
X-3248710Y-963320D01*
X-3248710Y-1043279D01*
X-3243681Y-1048308D01*
X-3163722Y-1048308D01*
X-3158693Y-1043279D01*
X-3158693Y-1020521D01*
X-3195726Y-1020521D01*
X-3195726Y-987501D01*
X-3158693Y-987501D01*
X-3158693Y-963320D01*
X-3163722Y-958291D01*
G37*
G36*
X-3083712Y-958291D02*
G01*
X-3088690Y-963320D01*
X-3088690Y-987501D01*
X-3050692Y-987501D01*
X-3050692Y-1020521D01*
X-3088690Y-1020521D01*
X-3088690Y-1043279D01*
X-3083712Y-1048308D01*
X-3004718Y-1048308D01*
X-2999689Y-1043279D01*
X-2999689Y-963320D01*
X-3004718Y-958291D01*
G37*
G36*
X-7761579Y1623110D02*
G01*
X-7766608Y1618081D01*
X-7766608Y1538122D01*
X-7761579Y1533093D01*
X-7738821Y1533093D01*
X-7738821Y1570126D01*
X-7705801Y1570126D01*
X-7705801Y1533093D01*
X-7681620Y1533093D01*
X-7676591Y1538122D01*
X-7676591Y1618081D01*
X-7681620Y1623110D01*
G37*
G36*
X-7761579Y1463090D02*
G01*
X-7766608Y1458112D01*
X-7766608Y1379118D01*
X-7761579Y1374089D01*
X-7681620Y1374089D01*
X-7676591Y1379118D01*
X-7676591Y1458112D01*
X-7681620Y1463090D01*
X-7705801Y1463090D01*
X-7705801Y1425092D01*
X-7738821Y1425092D01*
X-7738821Y1463090D01*
G37*
G36*
X-7355179Y1623110D02*
G01*
X-7360208Y1618081D01*
X-7360208Y1538122D01*
X-7355179Y1533093D01*
X-7332421Y1533093D01*
X-7332421Y1570126D01*
X-7299401Y1570126D01*
X-7299401Y1533093D01*
X-7275220Y1533093D01*
X-7270191Y1538122D01*
X-7270191Y1618081D01*
X-7275220Y1623110D01*
G37*
G36*
X-7355179Y1463090D02*
G01*
X-7360208Y1458112D01*
X-7360208Y1379118D01*
X-7355179Y1374089D01*
X-7275220Y1374089D01*
X-7270191Y1379118D01*
X-7270191Y1458112D01*
X-7275220Y1463090D01*
X-7299401Y1463090D01*
X-7299401Y1425092D01*
X-7332421Y1425092D01*
X-7332421Y1463090D01*
G37*
D10*
G01*
X4838496Y4499990D03*
G01*
X1961489Y4499990D03*
D11*
G01*
X5556910Y495300D03*
G01*
X5796889Y495300D03*
D12*
G01*
X5657697Y-88900D03*
G01*
X5797702Y-88900D03*
G01*
X5657697Y190500D03*
G01*
X5797702Y190500D03*
D13*
G01*
X3544493Y499999D03*
G01*
X3544493Y-499999D03*
G01*
X3671493Y499999D03*
G01*
X3671493Y-499999D03*
G01*
X3798493Y499999D03*
G01*
X3798493Y-499999D03*
G01*
X3925493Y499999D03*
G01*
X3925493Y-499999D03*
G01*
X4052493Y499999D03*
G01*
X4052493Y-499999D03*
G01*
X4179493Y499999D03*
G01*
X4179493Y-499999D03*
G01*
X4306493Y499999D03*
G01*
X4306493Y-499999D03*
G01*
X4433493Y499999D03*
G01*
X4433493Y-499999D03*
G01*
X4560493Y499999D03*
G01*
X4560493Y-499999D03*
G01*
X4687493Y499999D03*
G01*
X4687493Y-499999D03*
G01*
X4814493Y499999D03*
G01*
X4814493Y-499999D03*
G01*
X4941493Y499999D03*
G01*
X4941493Y-499999D03*
G01*
X5068493Y499999D03*
G01*
X5068493Y-499999D03*
G01*
X5195493Y499999D03*
G01*
X5195493Y-499999D03*
D14*
G01*
X-94995Y-7224699D03*
G01*
X94995Y-7224699D03*
G01*
X0Y-7024700D03*
D15*
G01*
X-7592999Y1136395D03*
G01*
X-7592999Y946404D03*
G01*
X-7393000Y1041400D03*
M02*
