G04 Layer: BottomSilkscreenLayer*
G04 EasyEDA v6.5.22, 2022-11-14 19:57:00*
G04 f0da57bd03cf490fa7de3f553d211417,61aeb1a5dc08497992730370c491a1bd,10*
G04 Gerber Generator version 0.2*
G04 Scale: 100 percent, Rotated: No, Reflected: No *
G04 Dimensions in millimeters *
G04 leading zeros omitted , absolute positions ,4 integer and 5 decimal *
%FSLAX45Y45*%
%MOMM*%

%ADD10C,0.1524*%
%ADD11C,0.2540*%

%LPD*%
G36*
X848156Y-117602D02*
G01*
X848156Y-134416D01*
X997000Y-134416D01*
X997000Y-117602D01*
G37*
G36*
X887272Y-174548D02*
G01*
X887272Y-187756D01*
X903274Y-189484D01*
X903274Y-190042D01*
X899464Y-194056D01*
X895959Y-198221D01*
X892759Y-202488D01*
X889965Y-206959D01*
X887679Y-211582D01*
X885952Y-216509D01*
X884834Y-221640D01*
X884478Y-227075D01*
X884783Y-232562D01*
X885698Y-237540D01*
X887221Y-241960D01*
X889355Y-245973D01*
X892048Y-249428D01*
X895350Y-252425D01*
X899261Y-254965D01*
X903732Y-256997D01*
X908812Y-258622D01*
X914450Y-259740D01*
X920648Y-260400D01*
X927404Y-260604D01*
X997000Y-260604D01*
X997000Y-243890D01*
X929436Y-243890D01*
X922019Y-243586D01*
X915669Y-242620D01*
X910437Y-241046D01*
X906221Y-238760D01*
X902969Y-235813D01*
X900734Y-232054D01*
X899414Y-227584D01*
X898956Y-222300D01*
X899261Y-218033D01*
X900074Y-214020D01*
X901496Y-210210D01*
X903478Y-206451D01*
X905967Y-202692D01*
X909015Y-198882D01*
X916736Y-190754D01*
X997000Y-190754D01*
X997000Y-174548D01*
G37*
G36*
X887272Y-297434D02*
G01*
X887272Y-310692D01*
X903274Y-312420D01*
X903274Y-312928D01*
X899464Y-316992D01*
X895959Y-321157D01*
X892759Y-325424D01*
X889965Y-329895D01*
X887679Y-334518D01*
X885952Y-339445D01*
X884834Y-344576D01*
X884478Y-350012D01*
X884783Y-355498D01*
X885698Y-360476D01*
X887221Y-364896D01*
X889355Y-368909D01*
X892048Y-372364D01*
X895350Y-375361D01*
X899261Y-377901D01*
X903732Y-379933D01*
X908812Y-381558D01*
X914450Y-382676D01*
X920648Y-383336D01*
X927404Y-383590D01*
X997000Y-383590D01*
X997000Y-366776D01*
X929436Y-366776D01*
X922019Y-366522D01*
X915669Y-365556D01*
X910437Y-363982D01*
X906221Y-361696D01*
X902969Y-358749D01*
X900734Y-354990D01*
X899414Y-350520D01*
X898956Y-345186D01*
X899261Y-340969D01*
X900074Y-336956D01*
X901496Y-333146D01*
X903478Y-329387D01*
X905967Y-325628D01*
X909015Y-321818D01*
X912621Y-317855D01*
X916736Y-313740D01*
X997000Y-313740D01*
X997000Y-297434D01*
G37*
G36*
X942136Y-411734D02*
G01*
X935634Y-412038D01*
X929436Y-412851D01*
X923594Y-414121D01*
X918108Y-415899D01*
X913028Y-418084D01*
X908253Y-420624D01*
X903935Y-423570D01*
X899972Y-426821D01*
X896467Y-430377D01*
X893368Y-434238D01*
X890676Y-438251D01*
X888492Y-442518D01*
X886764Y-446938D01*
X885494Y-451459D01*
X884732Y-456082D01*
X884491Y-461009D01*
X897940Y-461009D01*
X898550Y-455066D01*
X900379Y-449326D01*
X903274Y-444042D01*
X907338Y-439267D01*
X912418Y-435203D01*
X918514Y-431850D01*
X925576Y-429412D01*
X933500Y-428040D01*
X933500Y-489508D01*
X925271Y-489000D01*
X918108Y-487527D01*
X911961Y-485190D01*
X906932Y-481939D01*
X903020Y-477824D01*
X900226Y-472998D01*
X898499Y-467359D01*
X897940Y-461009D01*
X884491Y-461009D01*
X884885Y-467410D01*
X886053Y-473506D01*
X888034Y-479094D01*
X890727Y-484174D01*
X894130Y-488696D01*
X898245Y-492658D01*
X902969Y-496062D01*
X908354Y-498856D01*
X914400Y-501091D01*
X920953Y-502666D01*
X928116Y-503631D01*
X938580Y-503935D01*
X945692Y-503224D01*
X945692Y-428243D01*
X951636Y-428802D01*
X957173Y-429869D01*
X962304Y-431444D01*
X967079Y-433578D01*
X971346Y-436118D01*
X975156Y-439166D01*
X978458Y-442620D01*
X981202Y-446532D01*
X983386Y-450799D01*
X985012Y-455472D01*
X985977Y-460501D01*
X986332Y-465835D01*
X985723Y-473557D01*
X983996Y-480669D01*
X981202Y-487273D01*
X977442Y-493572D01*
X988364Y-499618D01*
X992682Y-492201D01*
X994562Y-488188D01*
X996238Y-483920D01*
X997610Y-479399D01*
X998677Y-474522D01*
X999286Y-469341D01*
X999540Y-463804D01*
X999286Y-458470D01*
X998575Y-453288D01*
X997356Y-448259D01*
X995629Y-443484D01*
X993495Y-438912D01*
X990904Y-434644D01*
X987856Y-430631D01*
X984351Y-426923D01*
X980440Y-423570D01*
X976172Y-420624D01*
X971448Y-417982D01*
X966317Y-415848D01*
X960831Y-414070D01*
X954938Y-412800D01*
X948740Y-412038D01*
G37*
G36*
X887272Y-531876D02*
G01*
X887272Y-545388D01*
X907338Y-546862D01*
X907338Y-547370D01*
X902411Y-550418D01*
X897991Y-553720D01*
X894080Y-557326D01*
X890778Y-561187D01*
X888085Y-565302D01*
X886104Y-569569D01*
X884885Y-574040D01*
X884478Y-578612D01*
X884580Y-581863D01*
X884936Y-584708D01*
X885647Y-587400D01*
X886764Y-590092D01*
X901242Y-586994D01*
X899871Y-582015D01*
X899464Y-576630D01*
X899820Y-572973D01*
X900836Y-569264D01*
X902614Y-565505D01*
X905256Y-561746D01*
X908812Y-558088D01*
X913282Y-554583D01*
X918768Y-551332D01*
X925372Y-548386D01*
X997000Y-548386D01*
X997000Y-531876D01*
G37*
G36*
X977442Y-644652D02*
G01*
X966012Y-654812D01*
X970076Y-659028D01*
X973785Y-663600D01*
X976985Y-668477D01*
X979678Y-673658D01*
X981862Y-679094D01*
X983487Y-684733D01*
X984453Y-690524D01*
X984808Y-696468D01*
X984351Y-703732D01*
X982929Y-710184D01*
X980694Y-715772D01*
X977696Y-720496D01*
X973988Y-724255D01*
X969568Y-726998D01*
X964641Y-728675D01*
X959154Y-729234D01*
X953617Y-728726D01*
X948994Y-727303D01*
X945134Y-724966D01*
X941832Y-721868D01*
X938987Y-718159D01*
X936447Y-713841D01*
X931722Y-703834D01*
X922324Y-682244D01*
X919835Y-676960D01*
X916889Y-671677D01*
X913384Y-666546D01*
X909218Y-661924D01*
X904341Y-657910D01*
X898652Y-654812D01*
X892048Y-652780D01*
X884478Y-652018D01*
X878941Y-652424D01*
X873760Y-653592D01*
X868883Y-655472D01*
X864362Y-658012D01*
X860247Y-661212D01*
X856589Y-664972D01*
X853389Y-669340D01*
X850646Y-674166D01*
X848512Y-679450D01*
X846937Y-685190D01*
X845972Y-691337D01*
X845616Y-697788D01*
X845972Y-704392D01*
X846988Y-710742D01*
X848614Y-716737D01*
X850747Y-722426D01*
X853440Y-727760D01*
X856538Y-732637D01*
X860044Y-737158D01*
X863904Y-741222D01*
X874572Y-732332D01*
X871474Y-728776D01*
X868730Y-725068D01*
X866292Y-721106D01*
X864209Y-716940D01*
X862584Y-712520D01*
X861364Y-707898D01*
X860602Y-702970D01*
X860348Y-697788D01*
X860755Y-691591D01*
X861974Y-686003D01*
X863904Y-681075D01*
X866546Y-676960D01*
X869848Y-673608D01*
X873760Y-671118D01*
X878230Y-669594D01*
X883208Y-669036D01*
X888492Y-669645D01*
X892962Y-671322D01*
X896772Y-673912D01*
X899972Y-677214D01*
X902716Y-680974D01*
X907186Y-689406D01*
X918260Y-715314D01*
X921156Y-721512D01*
X924458Y-727303D01*
X928217Y-732586D01*
X932535Y-737158D01*
X937564Y-740968D01*
X943406Y-743813D01*
X950163Y-745642D01*
X957884Y-746252D01*
X963625Y-745896D01*
X969060Y-744728D01*
X974242Y-742797D01*
X979068Y-740156D01*
X983487Y-736803D01*
X987450Y-732790D01*
X990955Y-728116D01*
X993952Y-722884D01*
X996340Y-717042D01*
X998067Y-710641D01*
X999185Y-703681D01*
X999540Y-696264D01*
X999134Y-688492D01*
X998016Y-681075D01*
X996187Y-674014D01*
X993648Y-667308D01*
X990447Y-661009D01*
X986688Y-655116D01*
X982319Y-649681D01*
G37*
G36*
X835202Y-774446D02*
G01*
X835202Y-791006D01*
X880160Y-791006D01*
X903020Y-790194D01*
X895858Y-798372D01*
X892708Y-802589D01*
X889914Y-807008D01*
X887679Y-811631D01*
X885952Y-816457D01*
X884834Y-821588D01*
X884478Y-827074D01*
X884783Y-832561D01*
X885698Y-837539D01*
X887221Y-842060D01*
X889355Y-846023D01*
X892048Y-849477D01*
X895350Y-852474D01*
X899261Y-854964D01*
X903732Y-857046D01*
X908812Y-858570D01*
X914450Y-859688D01*
X920648Y-860348D01*
X927404Y-860552D01*
X997000Y-860552D01*
X997000Y-844092D01*
X929436Y-844092D01*
X922019Y-843737D01*
X915669Y-842822D01*
X910437Y-841197D01*
X906221Y-838860D01*
X902969Y-835812D01*
X900734Y-832053D01*
X899414Y-827532D01*
X898956Y-822248D01*
X899261Y-817981D01*
X900074Y-814019D01*
X901496Y-810209D01*
X903478Y-806500D01*
X905967Y-802792D01*
X909015Y-799033D01*
X916736Y-791006D01*
X997000Y-791006D01*
X997000Y-774446D01*
G37*
G36*
X968806Y-889762D02*
G01*
X964437Y-890016D01*
X960323Y-890778D01*
X956513Y-891997D01*
X952957Y-893775D01*
X949655Y-896061D01*
X946607Y-898855D01*
X943762Y-902208D01*
X941171Y-906119D01*
X938834Y-910539D01*
X936650Y-915568D01*
X934719Y-921156D01*
X932942Y-927303D01*
X931367Y-934008D01*
X929944Y-941374D01*
X927658Y-957834D01*
X938834Y-957834D01*
X940053Y-948690D01*
X941527Y-940511D01*
X943203Y-933348D01*
X945032Y-927100D01*
X947115Y-921766D01*
X949401Y-917244D01*
X951890Y-913587D01*
X954633Y-910640D01*
X957580Y-908456D01*
X960780Y-906932D01*
X964184Y-906068D01*
X967790Y-905814D01*
X976274Y-907389D01*
X982014Y-911758D01*
X985316Y-918210D01*
X986332Y-926084D01*
X985367Y-934212D01*
X982421Y-941984D01*
X977646Y-949756D01*
X971092Y-957834D01*
X927658Y-957834D01*
X922172Y-957630D01*
X916838Y-956868D01*
X911860Y-955446D01*
X907389Y-953211D01*
X903630Y-950163D01*
X900734Y-946048D01*
X898855Y-940866D01*
X898194Y-934516D01*
X899261Y-924864D01*
X902106Y-915924D01*
X906018Y-907897D01*
X910386Y-900937D01*
X898956Y-894334D01*
X894029Y-902614D01*
X891590Y-907389D01*
X889355Y-912672D01*
X887374Y-918260D01*
X885850Y-924204D01*
X884834Y-930503D01*
X884478Y-937056D01*
X884834Y-943356D01*
X885952Y-949045D01*
X887730Y-954074D01*
X890117Y-958494D01*
X893165Y-962304D01*
X896823Y-965555D01*
X900988Y-968248D01*
X905662Y-970432D01*
X910844Y-972058D01*
X916482Y-973226D01*
X922528Y-973886D01*
X928928Y-974140D01*
X997000Y-974140D01*
X997000Y-960628D01*
X983538Y-959103D01*
X983538Y-958596D01*
X986790Y-954532D01*
X989787Y-950315D01*
X992530Y-945896D01*
X994867Y-941324D01*
X996797Y-936599D01*
X998270Y-931722D01*
X999236Y-926693D01*
X999540Y-921512D01*
X999032Y-915009D01*
X997508Y-908964D01*
X995019Y-903579D01*
X991616Y-898906D01*
X987247Y-895096D01*
X981964Y-892200D01*
X975817Y-890422D01*
G37*
G36*
X888288Y-997712D02*
G01*
X887272Y-1012748D01*
X868222Y-1012748D01*
X860348Y-1013206D01*
X853338Y-1014628D01*
X847242Y-1017066D01*
X842162Y-1020419D01*
X838098Y-1024839D01*
X835101Y-1030173D01*
X833272Y-1036574D01*
X832662Y-1043990D01*
X832916Y-1048664D01*
X833577Y-1053185D01*
X834694Y-1057503D01*
X836218Y-1061516D01*
X849172Y-1057910D01*
X847852Y-1054709D01*
X846886Y-1051509D01*
X846328Y-1048308D01*
X846124Y-1045210D01*
X847547Y-1038250D01*
X851763Y-1033373D01*
X858774Y-1030427D01*
X868476Y-1029462D01*
X887272Y-1029462D01*
X887272Y-1053084D01*
X900988Y-1053084D01*
X900988Y-1029462D01*
X997000Y-1029462D01*
X997000Y-1012748D01*
X900988Y-1012748D01*
X900988Y-997712D01*
G37*
G36*
X888288Y-1061212D02*
G01*
X887272Y-1078484D01*
X856284Y-1080566D01*
X856284Y-1094282D01*
X887272Y-1094282D01*
X887272Y-1124508D01*
X900988Y-1124508D01*
X900988Y-1094282D01*
X964488Y-1094282D01*
X973531Y-1095095D01*
X980338Y-1097940D01*
X984605Y-1103274D01*
X986078Y-1111504D01*
X985824Y-1114755D01*
X985113Y-1118108D01*
X983030Y-1124508D01*
X995476Y-1127556D01*
X998270Y-1117854D01*
X999185Y-1112977D01*
X999540Y-1108202D01*
X998880Y-1100277D01*
X997000Y-1093724D01*
X993902Y-1088440D01*
X989787Y-1084326D01*
X984605Y-1081278D01*
X978560Y-1079246D01*
X971651Y-1078128D01*
X963980Y-1077772D01*
X900988Y-1077772D01*
X900988Y-1061212D01*
G37*
G36*
X1518869Y-102311D02*
G01*
X1511909Y-102514D01*
X1505204Y-103124D01*
X1498803Y-104038D01*
X1492656Y-105359D01*
X1486865Y-106984D01*
X1481429Y-108966D01*
X1476248Y-111252D01*
X1471422Y-113893D01*
X1466951Y-116789D01*
X1462836Y-119989D01*
X1459077Y-123444D01*
X1455674Y-127203D01*
X1452626Y-131165D01*
X1449933Y-135382D01*
X1447698Y-139852D01*
X1445818Y-144526D01*
X1444345Y-149352D01*
X1443278Y-154432D01*
X1442618Y-159664D01*
X1442415Y-165049D01*
X1457147Y-165049D01*
X1457401Y-160020D01*
X1458214Y-155244D01*
X1459585Y-150672D01*
X1461414Y-146405D01*
X1463802Y-142392D01*
X1466646Y-138633D01*
X1469948Y-135178D01*
X1473708Y-132080D01*
X1477924Y-129235D01*
X1482598Y-126746D01*
X1487678Y-124612D01*
X1493164Y-122834D01*
X1499006Y-121462D01*
X1505305Y-120446D01*
X1511909Y-119837D01*
X1518869Y-119583D01*
X1525879Y-119837D01*
X1532483Y-120446D01*
X1538833Y-121462D01*
X1544726Y-122834D01*
X1550314Y-124612D01*
X1555445Y-126746D01*
X1560220Y-129235D01*
X1564538Y-132080D01*
X1568399Y-135178D01*
X1571802Y-138633D01*
X1574749Y-142392D01*
X1577187Y-146405D01*
X1579067Y-150672D01*
X1580489Y-155244D01*
X1581302Y-160020D01*
X1581607Y-165049D01*
X1581302Y-170129D01*
X1580489Y-175006D01*
X1579067Y-179578D01*
X1577187Y-183896D01*
X1574749Y-187960D01*
X1571802Y-191719D01*
X1568399Y-195173D01*
X1564538Y-198323D01*
X1560220Y-201117D01*
X1555445Y-203606D01*
X1550314Y-205790D01*
X1544726Y-207568D01*
X1538833Y-208940D01*
X1532483Y-209956D01*
X1525879Y-210566D01*
X1518869Y-210769D01*
X1511909Y-210566D01*
X1505305Y-209956D01*
X1499006Y-208940D01*
X1493164Y-207568D01*
X1487678Y-205790D01*
X1482598Y-203606D01*
X1477924Y-201117D01*
X1473708Y-198323D01*
X1469948Y-195173D01*
X1466646Y-191719D01*
X1463802Y-187960D01*
X1461414Y-183896D01*
X1459585Y-179578D01*
X1458214Y-175006D01*
X1457401Y-170129D01*
X1457147Y-165049D01*
X1442415Y-165049D01*
X1442618Y-170535D01*
X1443278Y-175869D01*
X1444345Y-180949D01*
X1445818Y-185877D01*
X1447698Y-190550D01*
X1449933Y-195021D01*
X1452626Y-199288D01*
X1455674Y-203250D01*
X1459077Y-207010D01*
X1462836Y-210464D01*
X1466951Y-213664D01*
X1471422Y-216560D01*
X1476248Y-219202D01*
X1481429Y-221488D01*
X1486865Y-223418D01*
X1492656Y-225094D01*
X1498803Y-226364D01*
X1505204Y-227279D01*
X1511909Y-227888D01*
X1518869Y-228041D01*
X1525879Y-227888D01*
X1532585Y-227279D01*
X1539036Y-226364D01*
X1545183Y-225094D01*
X1551025Y-223418D01*
X1556562Y-221488D01*
X1561795Y-219202D01*
X1566672Y-216560D01*
X1571193Y-213664D01*
X1575409Y-210464D01*
X1579270Y-207010D01*
X1582775Y-203250D01*
X1585874Y-199288D01*
X1588566Y-195021D01*
X1590903Y-190550D01*
X1592834Y-185877D01*
X1594358Y-180949D01*
X1595475Y-175869D01*
X1596136Y-170535D01*
X1596339Y-165049D01*
X1596136Y-159664D01*
X1595475Y-154432D01*
X1594358Y-149352D01*
X1592834Y-144526D01*
X1590903Y-139852D01*
X1588566Y-135382D01*
X1585874Y-131165D01*
X1582775Y-127203D01*
X1579270Y-123444D01*
X1575409Y-119989D01*
X1571193Y-116789D01*
X1566672Y-113893D01*
X1561795Y-111252D01*
X1556562Y-108966D01*
X1551025Y-106984D01*
X1545183Y-105359D01*
X1539036Y-104038D01*
X1532585Y-103124D01*
X1525879Y-102514D01*
G37*
G36*
X1484071Y-257759D02*
G01*
X1484071Y-274269D01*
X1551635Y-274269D01*
X1559001Y-274574D01*
X1565300Y-275539D01*
X1570532Y-277114D01*
X1574800Y-279400D01*
X1578051Y-282397D01*
X1580337Y-286207D01*
X1581658Y-290728D01*
X1582115Y-296164D01*
X1581810Y-300278D01*
X1580946Y-304241D01*
X1579473Y-308000D01*
X1577441Y-311708D01*
X1574749Y-315366D01*
X1571396Y-319074D01*
X1567434Y-322884D01*
X1562811Y-326898D01*
X1484071Y-326898D01*
X1484071Y-343357D01*
X1593799Y-343357D01*
X1593799Y-329641D01*
X1576273Y-328422D01*
X1576273Y-327609D01*
X1580540Y-323748D01*
X1584452Y-319786D01*
X1587855Y-315620D01*
X1590802Y-311251D01*
X1593138Y-306628D01*
X1594866Y-301752D01*
X1595983Y-296570D01*
X1596339Y-291033D01*
X1596034Y-285597D01*
X1595120Y-280670D01*
X1593646Y-276199D01*
X1591564Y-272288D01*
X1588871Y-268833D01*
X1585569Y-265836D01*
X1581708Y-263347D01*
X1577238Y-261315D01*
X1572209Y-259791D01*
X1566621Y-258673D01*
X1560423Y-258013D01*
X1553667Y-257759D01*
G37*
G36*
X1485087Y-368249D02*
G01*
X1484071Y-385572D01*
X1453083Y-387604D01*
X1453083Y-401269D01*
X1484071Y-401269D01*
X1484071Y-431546D01*
X1497787Y-431546D01*
X1497787Y-401269D01*
X1561287Y-401269D01*
X1570329Y-402132D01*
X1577136Y-404977D01*
X1581404Y-410311D01*
X1582877Y-418541D01*
X1582623Y-421741D01*
X1581912Y-425094D01*
X1580946Y-428345D01*
X1579829Y-431241D01*
X1592275Y-434543D01*
X1595069Y-424789D01*
X1595983Y-419760D01*
X1596339Y-414985D01*
X1595678Y-407162D01*
X1593799Y-400659D01*
X1590700Y-395376D01*
X1586585Y-391312D01*
X1581404Y-388315D01*
X1575358Y-386283D01*
X1568450Y-385165D01*
X1560779Y-384759D01*
X1497787Y-384759D01*
X1497787Y-368249D01*
G37*
G36*
X1538935Y-445211D02*
G01*
X1532432Y-445516D01*
X1526235Y-446278D01*
X1520393Y-447598D01*
X1514906Y-449326D01*
X1509826Y-451510D01*
X1505051Y-454050D01*
X1500733Y-456996D01*
X1496771Y-460197D01*
X1493266Y-463753D01*
X1490167Y-467563D01*
X1487474Y-471627D01*
X1485290Y-475894D01*
X1483563Y-480314D01*
X1482293Y-484835D01*
X1481531Y-489508D01*
X1481277Y-494233D01*
X1494739Y-494233D01*
X1495348Y-488289D01*
X1497177Y-482600D01*
X1500124Y-477367D01*
X1504137Y-472643D01*
X1509217Y-468579D01*
X1515313Y-465277D01*
X1522374Y-462889D01*
X1530299Y-461467D01*
X1530299Y-522732D01*
X1522069Y-522224D01*
X1514906Y-520801D01*
X1508760Y-518464D01*
X1503781Y-515264D01*
X1499819Y-511200D01*
X1497025Y-506323D01*
X1495298Y-500634D01*
X1494739Y-494233D01*
X1481277Y-494233D01*
X1481683Y-500888D01*
X1482852Y-506984D01*
X1484833Y-512572D01*
X1487525Y-517651D01*
X1490929Y-522173D01*
X1495044Y-526135D01*
X1499768Y-529539D01*
X1505153Y-532333D01*
X1511198Y-534568D01*
X1517751Y-536143D01*
X1524914Y-537108D01*
X1532585Y-537464D01*
X1538020Y-537260D01*
X1542491Y-536651D01*
X1542491Y-461772D01*
X1548434Y-462280D01*
X1553972Y-463346D01*
X1559153Y-464921D01*
X1563878Y-467055D01*
X1568145Y-469595D01*
X1571955Y-472643D01*
X1575257Y-476097D01*
X1578000Y-480009D01*
X1580235Y-484276D01*
X1581810Y-488950D01*
X1582775Y-493979D01*
X1583131Y-499364D01*
X1582521Y-507034D01*
X1580794Y-514146D01*
X1578000Y-520750D01*
X1574241Y-526999D01*
X1585163Y-533146D01*
X1589481Y-525678D01*
X1591360Y-521665D01*
X1593037Y-517398D01*
X1594408Y-512876D01*
X1595475Y-508000D01*
X1596136Y-502818D01*
X1596339Y-497332D01*
X1596085Y-491947D01*
X1595374Y-486765D01*
X1594154Y-481736D01*
X1592427Y-476961D01*
X1590294Y-472389D01*
X1587703Y-468122D01*
X1584655Y-464108D01*
X1581150Y-460400D01*
X1577289Y-457047D01*
X1572971Y-454101D01*
X1568246Y-451459D01*
X1563116Y-449275D01*
X1557629Y-447548D01*
X1551736Y-446278D01*
X1545539Y-445516D01*
G37*
G36*
X1484071Y-565404D02*
G01*
X1484071Y-578561D01*
X1504137Y-580390D01*
X1504137Y-580898D01*
X1499209Y-583895D01*
X1494790Y-587197D01*
X1490878Y-590804D01*
X1487576Y-594664D01*
X1484884Y-598779D01*
X1482902Y-603046D01*
X1481683Y-607517D01*
X1481277Y-612140D01*
X1481378Y-615340D01*
X1481734Y-618185D01*
X1482445Y-620877D01*
X1483563Y-623519D01*
X1498041Y-620217D01*
X1496669Y-615340D01*
X1496263Y-610057D01*
X1496618Y-606450D01*
X1497634Y-602742D01*
X1499463Y-598982D01*
X1502054Y-595172D01*
X1505610Y-591515D01*
X1510080Y-587959D01*
X1515567Y-584657D01*
X1522171Y-581609D01*
X1593799Y-581609D01*
X1593799Y-565404D01*
G37*
G36*
X1574241Y-678180D02*
G01*
X1562811Y-688340D01*
X1566926Y-692505D01*
X1570583Y-697077D01*
X1573784Y-701954D01*
X1576476Y-707136D01*
X1578660Y-712571D01*
X1580286Y-718210D01*
X1581251Y-724001D01*
X1581607Y-729996D01*
X1581150Y-737209D01*
X1579727Y-743610D01*
X1577492Y-749198D01*
X1574495Y-753872D01*
X1570786Y-757529D01*
X1566418Y-760272D01*
X1561439Y-761898D01*
X1555953Y-762457D01*
X1550466Y-761949D01*
X1545793Y-760526D01*
X1541932Y-758190D01*
X1538630Y-755142D01*
X1535785Y-751382D01*
X1533245Y-747064D01*
X1528521Y-737057D01*
X1516634Y-710438D01*
X1513687Y-705104D01*
X1510182Y-699973D01*
X1506016Y-695248D01*
X1501140Y-691235D01*
X1495450Y-688086D01*
X1488846Y-686003D01*
X1481277Y-685241D01*
X1475790Y-685647D01*
X1470558Y-686816D01*
X1465681Y-688746D01*
X1461160Y-691337D01*
X1457045Y-694537D01*
X1453388Y-698347D01*
X1450187Y-702716D01*
X1447444Y-707593D01*
X1445310Y-712927D01*
X1443736Y-718667D01*
X1442770Y-724763D01*
X1442415Y-731266D01*
X1442770Y-737870D01*
X1443786Y-744220D01*
X1445412Y-750214D01*
X1447546Y-755904D01*
X1450238Y-761238D01*
X1453337Y-766114D01*
X1456842Y-770636D01*
X1460703Y-774649D01*
X1471371Y-765556D01*
X1468272Y-762000D01*
X1465529Y-758291D01*
X1463090Y-754430D01*
X1461008Y-750316D01*
X1459382Y-745947D01*
X1458163Y-741324D01*
X1457401Y-736447D01*
X1457147Y-731266D01*
X1457553Y-725068D01*
X1458772Y-719480D01*
X1460703Y-714552D01*
X1463344Y-710438D01*
X1466646Y-707085D01*
X1470558Y-704596D01*
X1475028Y-703072D01*
X1480007Y-702564D01*
X1485290Y-703122D01*
X1489760Y-704799D01*
X1493570Y-707339D01*
X1496771Y-710590D01*
X1499514Y-714349D01*
X1503984Y-722833D01*
X1515059Y-748741D01*
X1517954Y-754989D01*
X1521256Y-760780D01*
X1525016Y-766064D01*
X1529334Y-770636D01*
X1534363Y-774446D01*
X1540205Y-777290D01*
X1546961Y-779119D01*
X1554683Y-779780D01*
X1560423Y-779373D01*
X1565910Y-778205D01*
X1571040Y-776274D01*
X1575866Y-773633D01*
X1580286Y-770280D01*
X1584299Y-766267D01*
X1587754Y-761593D01*
X1590751Y-756361D01*
X1593138Y-750519D01*
X1594866Y-744118D01*
X1595983Y-737158D01*
X1596339Y-729691D01*
X1595932Y-721969D01*
X1594815Y-714552D01*
X1592986Y-707491D01*
X1590446Y-700786D01*
X1587246Y-694486D01*
X1583486Y-688594D01*
X1579118Y-683158D01*
G37*
G36*
X1432001Y-807974D02*
G01*
X1432001Y-824433D01*
X1476959Y-824433D01*
X1499819Y-823721D01*
X1496110Y-827735D01*
X1492656Y-831850D01*
X1489506Y-836066D01*
X1486763Y-840486D01*
X1484477Y-845108D01*
X1482750Y-849934D01*
X1481683Y-855065D01*
X1481277Y-860501D01*
X1481582Y-865987D01*
X1482496Y-870966D01*
X1484020Y-875385D01*
X1486154Y-879398D01*
X1488846Y-882853D01*
X1492148Y-885850D01*
X1496060Y-888390D01*
X1500530Y-890422D01*
X1505610Y-892048D01*
X1511249Y-893165D01*
X1517446Y-893826D01*
X1524203Y-894080D01*
X1593799Y-894080D01*
X1593799Y-877316D01*
X1526235Y-877316D01*
X1518818Y-877011D01*
X1512468Y-876046D01*
X1507236Y-874471D01*
X1503019Y-872236D01*
X1499768Y-869238D01*
X1497533Y-865479D01*
X1496212Y-861009D01*
X1495755Y-855675D01*
X1496060Y-851458D01*
X1496872Y-847445D01*
X1498295Y-843635D01*
X1500276Y-839876D01*
X1502765Y-836168D01*
X1505813Y-832408D01*
X1513535Y-824433D01*
X1593799Y-824433D01*
X1593799Y-807974D01*
G37*
G36*
X1565605Y-922985D02*
G01*
X1561236Y-923239D01*
X1557121Y-924001D01*
X1553311Y-925271D01*
X1549755Y-927049D01*
X1546453Y-929335D01*
X1543405Y-932180D01*
X1540560Y-935532D01*
X1537970Y-939444D01*
X1535633Y-943864D01*
X1533448Y-948893D01*
X1531518Y-954481D01*
X1529740Y-960628D01*
X1528165Y-967333D01*
X1525524Y-982573D01*
X1524457Y-991057D01*
X1535633Y-991057D01*
X1536903Y-981964D01*
X1538325Y-973836D01*
X1540002Y-966724D01*
X1541830Y-960475D01*
X1543913Y-955192D01*
X1546199Y-950721D01*
X1548739Y-947013D01*
X1551432Y-944118D01*
X1554378Y-941933D01*
X1557578Y-940409D01*
X1560982Y-939546D01*
X1564589Y-939241D01*
X1573072Y-940866D01*
X1578813Y-945235D01*
X1582115Y-951687D01*
X1583131Y-959561D01*
X1582166Y-967638D01*
X1579219Y-975309D01*
X1574444Y-983030D01*
X1567891Y-991057D01*
X1518970Y-990955D01*
X1513636Y-990193D01*
X1508658Y-988821D01*
X1504188Y-986637D01*
X1500428Y-983538D01*
X1497533Y-979424D01*
X1495653Y-974191D01*
X1494993Y-967740D01*
X1496060Y-958138D01*
X1498904Y-949248D01*
X1502816Y-941324D01*
X1507185Y-934466D01*
X1495755Y-927811D01*
X1490827Y-935990D01*
X1488389Y-940765D01*
X1486154Y-946048D01*
X1484172Y-951687D01*
X1482648Y-957681D01*
X1481632Y-963980D01*
X1481277Y-970483D01*
X1481632Y-976833D01*
X1482750Y-982522D01*
X1484528Y-987552D01*
X1486916Y-991971D01*
X1489964Y-995781D01*
X1493621Y-999032D01*
X1497787Y-1001725D01*
X1502460Y-1003909D01*
X1507642Y-1005535D01*
X1513281Y-1006703D01*
X1519326Y-1007364D01*
X1525727Y-1007567D01*
X1593799Y-1007567D01*
X1593799Y-994156D01*
X1580337Y-992632D01*
X1580337Y-992124D01*
X1583588Y-988009D01*
X1586585Y-983742D01*
X1589328Y-979271D01*
X1591665Y-974699D01*
X1593646Y-969975D01*
X1595069Y-965098D01*
X1596034Y-960119D01*
X1596339Y-955040D01*
X1595831Y-948486D01*
X1594307Y-942390D01*
X1591818Y-936955D01*
X1588414Y-932230D01*
X1584045Y-928369D01*
X1578762Y-925474D01*
X1572615Y-923645D01*
G37*
G36*
X1485087Y-1031240D02*
G01*
X1484071Y-1046175D01*
X1465021Y-1046175D01*
X1457147Y-1046683D01*
X1450136Y-1048105D01*
X1444040Y-1050544D01*
X1438960Y-1053896D01*
X1434896Y-1058316D01*
X1431899Y-1063650D01*
X1430070Y-1070051D01*
X1429461Y-1077417D01*
X1429715Y-1082040D01*
X1430375Y-1086612D01*
X1431493Y-1090930D01*
X1433017Y-1094943D01*
X1445971Y-1091438D01*
X1444650Y-1088136D01*
X1443685Y-1084884D01*
X1443126Y-1081684D01*
X1442923Y-1078738D01*
X1444345Y-1071727D01*
X1448562Y-1066850D01*
X1455572Y-1063904D01*
X1465275Y-1062990D01*
X1484071Y-1062990D01*
X1484071Y-1086561D01*
X1497787Y-1086561D01*
X1497787Y-1062990D01*
X1593799Y-1062990D01*
X1593799Y-1046175D01*
X1497787Y-1046175D01*
X1497787Y-1031240D01*
G37*
G36*
X1485087Y-1094740D02*
G01*
X1484071Y-1111961D01*
X1453083Y-1113993D01*
X1453083Y-1127709D01*
X1484071Y-1127709D01*
X1484071Y-1157935D01*
X1497787Y-1157935D01*
X1497787Y-1127709D01*
X1561287Y-1127709D01*
X1570329Y-1128572D01*
X1577136Y-1131417D01*
X1581404Y-1136751D01*
X1582877Y-1145032D01*
X1582623Y-1148181D01*
X1581912Y-1151534D01*
X1579829Y-1157732D01*
X1592275Y-1160983D01*
X1595069Y-1151229D01*
X1595983Y-1146200D01*
X1596339Y-1141425D01*
X1595678Y-1133602D01*
X1593799Y-1127099D01*
X1590700Y-1121816D01*
X1586585Y-1117752D01*
X1581404Y-1114755D01*
X1575358Y-1112723D01*
X1568450Y-1111605D01*
X1560779Y-1111199D01*
X1497787Y-1111199D01*
X1497787Y-1094740D01*
G37*
G36*
X-1592275Y-38963D02*
G01*
X-1595069Y-48768D01*
X-1595983Y-53797D01*
X-1596339Y-58521D01*
X-1595678Y-66395D01*
X-1593799Y-72898D01*
X-1590700Y-78181D01*
X-1586585Y-82245D01*
X-1581404Y-85242D01*
X-1575358Y-87274D01*
X-1568450Y-88392D01*
X-1560779Y-88747D01*
X-1497787Y-88747D01*
X-1497787Y-105257D01*
X-1485087Y-105257D01*
X-1484071Y-88036D01*
X-1453083Y-86004D01*
X-1453083Y-72237D01*
X-1484071Y-72237D01*
X-1484071Y-42062D01*
X-1497787Y-42062D01*
X-1497787Y-72237D01*
X-1561287Y-72237D01*
X-1570329Y-71424D01*
X-1577136Y-68580D01*
X-1581404Y-63246D01*
X-1582877Y-54965D01*
X-1582623Y-51816D01*
X-1581912Y-48463D01*
X-1579829Y-42265D01*
G37*
G36*
X-1433017Y-105054D02*
G01*
X-1445971Y-108610D01*
X-1444650Y-111861D01*
X-1443685Y-115112D01*
X-1443126Y-118313D01*
X-1442923Y-121310D01*
X-1444345Y-128270D01*
X-1448562Y-133146D01*
X-1455572Y-136093D01*
X-1465275Y-137007D01*
X-1484071Y-137007D01*
X-1484071Y-113436D01*
X-1497787Y-113436D01*
X-1497787Y-137007D01*
X-1593799Y-137007D01*
X-1593799Y-153771D01*
X-1497787Y-153771D01*
X-1497787Y-168757D01*
X-1485087Y-168757D01*
X-1484071Y-153771D01*
X-1465021Y-153771D01*
X-1457147Y-153314D01*
X-1450136Y-151892D01*
X-1444040Y-149453D01*
X-1438960Y-146100D01*
X-1434896Y-141681D01*
X-1431899Y-136347D01*
X-1430070Y-129946D01*
X-1429461Y-122529D01*
X-1429715Y-117957D01*
X-1430375Y-113436D01*
X-1431493Y-109067D01*
G37*
G36*
X-1593799Y-192379D02*
G01*
X-1593799Y-205892D01*
X-1580337Y-207365D01*
X-1580337Y-207873D01*
X-1583588Y-211988D01*
X-1586585Y-216255D01*
X-1589328Y-220725D01*
X-1591665Y-225298D01*
X-1593646Y-230022D01*
X-1595069Y-234899D01*
X-1596067Y-240436D01*
X-1583131Y-240436D01*
X-1582166Y-232359D01*
X-1579219Y-224637D01*
X-1574444Y-216966D01*
X-1567891Y-208889D01*
X-1535633Y-208889D01*
X-1536903Y-218033D01*
X-1538325Y-226161D01*
X-1540002Y-233273D01*
X-1541830Y-239521D01*
X-1543913Y-244805D01*
X-1546199Y-249275D01*
X-1548739Y-252984D01*
X-1551432Y-255879D01*
X-1554378Y-258064D01*
X-1557578Y-259588D01*
X-1560982Y-260451D01*
X-1564589Y-260705D01*
X-1573072Y-259130D01*
X-1578813Y-254762D01*
X-1582115Y-248310D01*
X-1583131Y-240436D01*
X-1596067Y-240436D01*
X-1596339Y-244957D01*
X-1595831Y-251510D01*
X-1594307Y-257606D01*
X-1591818Y-263042D01*
X-1588414Y-267766D01*
X-1584045Y-271627D01*
X-1578762Y-274523D01*
X-1572615Y-276352D01*
X-1565605Y-277012D01*
X-1561236Y-276758D01*
X-1557121Y-275996D01*
X-1553311Y-274726D01*
X-1549755Y-272948D01*
X-1546453Y-270662D01*
X-1543405Y-267817D01*
X-1540560Y-264464D01*
X-1537970Y-260553D01*
X-1535633Y-256133D01*
X-1533448Y-251104D01*
X-1531518Y-245516D01*
X-1529740Y-239369D01*
X-1528165Y-232664D01*
X-1525524Y-217424D01*
X-1524457Y-208889D01*
X-1518970Y-209042D01*
X-1513636Y-209804D01*
X-1508658Y-211175D01*
X-1504188Y-213360D01*
X-1500428Y-216458D01*
X-1497533Y-220573D01*
X-1495653Y-225806D01*
X-1494993Y-232257D01*
X-1496060Y-241858D01*
X-1498904Y-250748D01*
X-1502816Y-258673D01*
X-1507185Y-265531D01*
X-1495755Y-272186D01*
X-1490827Y-264007D01*
X-1488389Y-259232D01*
X-1486154Y-253949D01*
X-1484172Y-248310D01*
X-1482648Y-242316D01*
X-1481632Y-236016D01*
X-1481277Y-229463D01*
X-1481632Y-223164D01*
X-1482750Y-217474D01*
X-1484528Y-212445D01*
X-1486916Y-208025D01*
X-1489964Y-204216D01*
X-1493621Y-200964D01*
X-1497787Y-198272D01*
X-1502460Y-196088D01*
X-1507642Y-194462D01*
X-1513281Y-193294D01*
X-1519326Y-192633D01*
X-1525727Y-192379D01*
G37*
G36*
X-1593799Y-305968D02*
G01*
X-1593799Y-322681D01*
X-1526235Y-322681D01*
X-1518818Y-322986D01*
X-1512468Y-323951D01*
X-1507236Y-325526D01*
X-1503019Y-327761D01*
X-1499768Y-330758D01*
X-1497533Y-334518D01*
X-1496212Y-338988D01*
X-1495755Y-344271D01*
X-1496060Y-348538D01*
X-1496872Y-352552D01*
X-1498295Y-356362D01*
X-1500276Y-360121D01*
X-1502765Y-363829D01*
X-1505813Y-367588D01*
X-1513535Y-375513D01*
X-1593799Y-375513D01*
X-1593799Y-392023D01*
X-1432001Y-392023D01*
X-1432001Y-375513D01*
X-1476959Y-375513D01*
X-1499819Y-376326D01*
X-1492656Y-368147D01*
X-1489506Y-363931D01*
X-1486763Y-359511D01*
X-1484477Y-354888D01*
X-1482750Y-350062D01*
X-1481683Y-344932D01*
X-1481277Y-339445D01*
X-1481582Y-334010D01*
X-1482496Y-329031D01*
X-1484020Y-324612D01*
X-1486154Y-320598D01*
X-1488846Y-317144D01*
X-1492148Y-314147D01*
X-1496060Y-311607D01*
X-1500530Y-309575D01*
X-1505610Y-307949D01*
X-1511249Y-306832D01*
X-1517446Y-306171D01*
X-1524203Y-305968D01*
G37*
G36*
X-1554683Y-420268D02*
G01*
X-1560423Y-420624D01*
X-1565910Y-421792D01*
X-1571040Y-423722D01*
X-1575866Y-426364D01*
X-1580286Y-429717D01*
X-1584299Y-433730D01*
X-1587754Y-438404D01*
X-1590751Y-443636D01*
X-1593138Y-449478D01*
X-1594866Y-455879D01*
X-1595983Y-462838D01*
X-1596339Y-470255D01*
X-1595932Y-478028D01*
X-1594815Y-485444D01*
X-1592986Y-492506D01*
X-1590446Y-499211D01*
X-1587246Y-505510D01*
X-1583486Y-511403D01*
X-1579118Y-516839D01*
X-1574241Y-521868D01*
X-1562811Y-511657D01*
X-1566926Y-507492D01*
X-1570583Y-502920D01*
X-1573784Y-498043D01*
X-1576476Y-492861D01*
X-1578660Y-487426D01*
X-1580286Y-481787D01*
X-1581251Y-475996D01*
X-1581607Y-470052D01*
X-1581150Y-462788D01*
X-1579727Y-456387D01*
X-1577492Y-450799D01*
X-1574495Y-446176D01*
X-1570786Y-442468D01*
X-1566418Y-439724D01*
X-1561439Y-438099D01*
X-1555953Y-437489D01*
X-1550466Y-437997D01*
X-1545793Y-439470D01*
X-1541932Y-441807D01*
X-1538630Y-444855D01*
X-1535785Y-448614D01*
X-1533245Y-452932D01*
X-1528521Y-462889D01*
X-1516634Y-489559D01*
X-1513687Y-494893D01*
X-1510182Y-500024D01*
X-1506016Y-504748D01*
X-1501140Y-508762D01*
X-1495450Y-511911D01*
X-1488846Y-513994D01*
X-1481277Y-514705D01*
X-1475790Y-514350D01*
X-1470558Y-513181D01*
X-1465681Y-511251D01*
X-1461160Y-508660D01*
X-1457045Y-505459D01*
X-1453388Y-501650D01*
X-1450187Y-497281D01*
X-1447444Y-492404D01*
X-1445310Y-487070D01*
X-1443736Y-481330D01*
X-1442770Y-475234D01*
X-1442415Y-468731D01*
X-1442770Y-462127D01*
X-1443786Y-455777D01*
X-1445412Y-449783D01*
X-1447546Y-444093D01*
X-1450238Y-438759D01*
X-1453337Y-433882D01*
X-1456842Y-429361D01*
X-1460703Y-425297D01*
X-1471371Y-434492D01*
X-1468272Y-437997D01*
X-1465529Y-441706D01*
X-1463090Y-445566D01*
X-1461008Y-449681D01*
X-1459382Y-454050D01*
X-1458163Y-458673D01*
X-1457401Y-463550D01*
X-1457147Y-468731D01*
X-1457553Y-474929D01*
X-1458772Y-480517D01*
X-1460703Y-485444D01*
X-1463344Y-489610D01*
X-1466646Y-492912D01*
X-1470558Y-495401D01*
X-1475028Y-496925D01*
X-1480007Y-497484D01*
X-1485290Y-496874D01*
X-1489760Y-495198D01*
X-1493570Y-492658D01*
X-1496771Y-489407D01*
X-1499514Y-485648D01*
X-1503984Y-477164D01*
X-1515059Y-451205D01*
X-1517954Y-445008D01*
X-1521256Y-439216D01*
X-1525016Y-433933D01*
X-1529334Y-429361D01*
X-1534363Y-425551D01*
X-1540205Y-422706D01*
X-1546961Y-420878D01*
G37*
G36*
X-1483563Y-576478D02*
G01*
X-1498041Y-579729D01*
X-1496669Y-584657D01*
X-1496263Y-589889D01*
X-1496618Y-593547D01*
X-1497634Y-597255D01*
X-1499463Y-601014D01*
X-1502054Y-604824D01*
X-1505610Y-608482D01*
X-1510080Y-612038D01*
X-1515567Y-615340D01*
X-1522171Y-618337D01*
X-1593799Y-618337D01*
X-1593799Y-634644D01*
X-1484071Y-634644D01*
X-1484071Y-621436D01*
X-1504137Y-619607D01*
X-1504137Y-619099D01*
X-1499209Y-616102D01*
X-1494790Y-612800D01*
X-1490878Y-609193D01*
X-1487576Y-605332D01*
X-1484884Y-601218D01*
X-1482902Y-596950D01*
X-1481683Y-592480D01*
X-1481277Y-587857D01*
X-1481378Y-584657D01*
X-1481734Y-581812D01*
X-1482445Y-579120D01*
G37*
G36*
X-1535379Y-662584D02*
G01*
X-1542491Y-663295D01*
X-1542491Y-677265D01*
X-1530299Y-677265D01*
X-1522069Y-677773D01*
X-1514906Y-679196D01*
X-1508760Y-681532D01*
X-1503781Y-684733D01*
X-1499819Y-688797D01*
X-1497025Y-693674D01*
X-1495298Y-699363D01*
X-1494739Y-705713D01*
X-1495348Y-711708D01*
X-1497177Y-717397D01*
X-1500124Y-722630D01*
X-1504137Y-727354D01*
X-1509217Y-731418D01*
X-1515313Y-734720D01*
X-1522374Y-737108D01*
X-1530299Y-738479D01*
X-1530299Y-677265D01*
X-1542491Y-677265D01*
X-1542491Y-738276D01*
X-1548434Y-737717D01*
X-1553972Y-736650D01*
X-1559153Y-735076D01*
X-1563878Y-732942D01*
X-1568145Y-730402D01*
X-1571955Y-727354D01*
X-1575257Y-723900D01*
X-1578000Y-719988D01*
X-1580235Y-715721D01*
X-1581810Y-711047D01*
X-1582775Y-706018D01*
X-1583131Y-700684D01*
X-1582521Y-692962D01*
X-1580794Y-685850D01*
X-1578000Y-679246D01*
X-1574241Y-672947D01*
X-1585163Y-666902D01*
X-1589481Y-674319D01*
X-1591360Y-678332D01*
X-1593037Y-682599D01*
X-1594408Y-687120D01*
X-1595475Y-691997D01*
X-1596136Y-697179D01*
X-1596339Y-702665D01*
X-1596085Y-708050D01*
X-1595374Y-713232D01*
X-1594154Y-718261D01*
X-1592427Y-723036D01*
X-1590294Y-727608D01*
X-1587703Y-731875D01*
X-1584655Y-735888D01*
X-1581150Y-739597D01*
X-1577289Y-742950D01*
X-1572971Y-745896D01*
X-1568246Y-748538D01*
X-1563116Y-750722D01*
X-1557629Y-752449D01*
X-1551736Y-753719D01*
X-1545539Y-754481D01*
X-1538935Y-754786D01*
X-1532432Y-754481D01*
X-1526235Y-753719D01*
X-1520393Y-752398D01*
X-1514906Y-750671D01*
X-1509826Y-748487D01*
X-1505051Y-745947D01*
X-1500733Y-743000D01*
X-1496771Y-739749D01*
X-1493266Y-736244D01*
X-1490167Y-732434D01*
X-1487474Y-728370D01*
X-1485290Y-724103D01*
X-1483563Y-719683D01*
X-1482293Y-715162D01*
X-1481531Y-710488D01*
X-1481277Y-705713D01*
X-1481683Y-699109D01*
X-1482852Y-693013D01*
X-1484833Y-687425D01*
X-1487525Y-682345D01*
X-1490929Y-677824D01*
X-1495044Y-673862D01*
X-1499768Y-670458D01*
X-1505153Y-667664D01*
X-1511198Y-665429D01*
X-1517751Y-663854D01*
X-1524914Y-662889D01*
G37*
G36*
X-1592275Y-765454D02*
G01*
X-1595069Y-775208D01*
X-1595983Y-780237D01*
X-1596339Y-785012D01*
X-1595678Y-792835D01*
X-1593799Y-799338D01*
X-1590700Y-804621D01*
X-1586585Y-808685D01*
X-1581404Y-811682D01*
X-1575358Y-813714D01*
X-1568450Y-814832D01*
X-1560779Y-815187D01*
X-1497787Y-815187D01*
X-1497787Y-831697D01*
X-1485087Y-831697D01*
X-1484071Y-814476D01*
X-1453083Y-812444D01*
X-1453083Y-798728D01*
X-1484071Y-798728D01*
X-1484071Y-768502D01*
X-1497787Y-768502D01*
X-1497787Y-798728D01*
X-1561287Y-798728D01*
X-1570329Y-797864D01*
X-1577136Y-795020D01*
X-1581404Y-789686D01*
X-1582877Y-781405D01*
X-1582623Y-778256D01*
X-1581912Y-774903D01*
X-1579829Y-768705D01*
G37*
G36*
X-1593799Y-856589D02*
G01*
X-1593799Y-870305D01*
X-1576273Y-871626D01*
X-1576273Y-872337D01*
X-1580540Y-876249D01*
X-1584452Y-880211D01*
X-1587855Y-884377D01*
X-1590802Y-888746D01*
X-1593138Y-893368D01*
X-1594866Y-898245D01*
X-1595983Y-903427D01*
X-1596339Y-908913D01*
X-1596034Y-914400D01*
X-1595120Y-919327D01*
X-1593646Y-923798D01*
X-1591564Y-927709D01*
X-1588871Y-931164D01*
X-1585569Y-934161D01*
X-1581708Y-936650D01*
X-1577238Y-938682D01*
X-1572209Y-940206D01*
X-1566621Y-941324D01*
X-1560423Y-941984D01*
X-1553667Y-942187D01*
X-1484071Y-942187D01*
X-1484071Y-925728D01*
X-1551635Y-925728D01*
X-1559001Y-925423D01*
X-1565300Y-924458D01*
X-1570532Y-922883D01*
X-1574800Y-920597D01*
X-1578051Y-917600D01*
X-1580337Y-913790D01*
X-1581658Y-909269D01*
X-1582115Y-903884D01*
X-1581810Y-899718D01*
X-1580946Y-895756D01*
X-1579473Y-891997D01*
X-1577441Y-888288D01*
X-1574749Y-884631D01*
X-1571396Y-880922D01*
X-1567434Y-877112D01*
X-1562811Y-873099D01*
X-1484071Y-873099D01*
X-1484071Y-856589D01*
G37*
G36*
X-1518869Y-971905D02*
G01*
X-1525879Y-972108D01*
X-1532585Y-972718D01*
X-1539036Y-973632D01*
X-1545183Y-974902D01*
X-1551025Y-976579D01*
X-1556562Y-978509D01*
X-1561795Y-980795D01*
X-1566672Y-983437D01*
X-1571193Y-986332D01*
X-1575409Y-989533D01*
X-1579270Y-992987D01*
X-1582775Y-996746D01*
X-1585874Y-1000709D01*
X-1588566Y-1004976D01*
X-1590903Y-1009446D01*
X-1592834Y-1014120D01*
X-1594358Y-1019048D01*
X-1595475Y-1024128D01*
X-1596136Y-1029462D01*
X-1596339Y-1034897D01*
X-1581607Y-1034897D01*
X-1581302Y-1029868D01*
X-1580489Y-1024991D01*
X-1579067Y-1020419D01*
X-1577187Y-1016101D01*
X-1574749Y-1012037D01*
X-1571802Y-1008278D01*
X-1568399Y-1004824D01*
X-1564538Y-1001674D01*
X-1560220Y-998880D01*
X-1555445Y-996391D01*
X-1550314Y-994206D01*
X-1544726Y-992428D01*
X-1538833Y-991057D01*
X-1532483Y-990041D01*
X-1525879Y-989431D01*
X-1518869Y-989228D01*
X-1511909Y-989431D01*
X-1505305Y-990041D01*
X-1499006Y-991057D01*
X-1493164Y-992428D01*
X-1487678Y-994206D01*
X-1482598Y-996391D01*
X-1477924Y-998880D01*
X-1473708Y-1001674D01*
X-1469948Y-1004824D01*
X-1466646Y-1008278D01*
X-1463802Y-1012037D01*
X-1461414Y-1016101D01*
X-1459585Y-1020419D01*
X-1458214Y-1024991D01*
X-1457401Y-1029868D01*
X-1457147Y-1034897D01*
X-1457401Y-1039977D01*
X-1458214Y-1044752D01*
X-1459585Y-1049324D01*
X-1461414Y-1053592D01*
X-1463802Y-1057605D01*
X-1466646Y-1061364D01*
X-1469948Y-1064818D01*
X-1473708Y-1067917D01*
X-1477924Y-1070762D01*
X-1482598Y-1073251D01*
X-1487678Y-1075385D01*
X-1493164Y-1077163D01*
X-1499006Y-1078534D01*
X-1505305Y-1079550D01*
X-1511909Y-1080160D01*
X-1518869Y-1080363D01*
X-1525879Y-1080160D01*
X-1532483Y-1079550D01*
X-1538833Y-1078534D01*
X-1544726Y-1077163D01*
X-1550314Y-1075385D01*
X-1555445Y-1073251D01*
X-1560220Y-1070762D01*
X-1564538Y-1067917D01*
X-1568399Y-1064818D01*
X-1571802Y-1061364D01*
X-1574749Y-1057605D01*
X-1577187Y-1053592D01*
X-1579067Y-1049324D01*
X-1580489Y-1044752D01*
X-1581302Y-1039977D01*
X-1581607Y-1034897D01*
X-1596339Y-1034897D01*
X-1596136Y-1040333D01*
X-1595475Y-1045565D01*
X-1594358Y-1050645D01*
X-1592834Y-1055471D01*
X-1590903Y-1060145D01*
X-1588566Y-1064615D01*
X-1585874Y-1068832D01*
X-1582775Y-1072794D01*
X-1579270Y-1076553D01*
X-1575409Y-1080008D01*
X-1571193Y-1083208D01*
X-1566672Y-1086104D01*
X-1561795Y-1088745D01*
X-1556562Y-1091031D01*
X-1551025Y-1093012D01*
X-1545183Y-1094638D01*
X-1539036Y-1095959D01*
X-1532585Y-1096873D01*
X-1525879Y-1097483D01*
X-1518869Y-1097686D01*
X-1511909Y-1097483D01*
X-1505204Y-1096873D01*
X-1498803Y-1095959D01*
X-1492656Y-1094638D01*
X-1486865Y-1093012D01*
X-1481429Y-1091031D01*
X-1476248Y-1088745D01*
X-1471422Y-1086104D01*
X-1466951Y-1083208D01*
X-1462836Y-1080008D01*
X-1459077Y-1076553D01*
X-1455674Y-1072794D01*
X-1452626Y-1068832D01*
X-1449933Y-1064615D01*
X-1447698Y-1060145D01*
X-1445818Y-1055471D01*
X-1444345Y-1050645D01*
X-1443278Y-1045565D01*
X-1442618Y-1040333D01*
X-1442415Y-1034897D01*
X-1442618Y-1029462D01*
X-1443278Y-1024128D01*
X-1444345Y-1019048D01*
X-1445818Y-1014120D01*
X-1447698Y-1009446D01*
X-1449933Y-1004976D01*
X-1452626Y-1000709D01*
X-1455674Y-996746D01*
X-1459077Y-992987D01*
X-1462836Y-989533D01*
X-1466951Y-986332D01*
X-1471422Y-983437D01*
X-1476248Y-980795D01*
X-1481429Y-978509D01*
X-1486865Y-976579D01*
X-1492656Y-974902D01*
X-1498803Y-973632D01*
X-1505204Y-972718D01*
X-1511909Y-972108D01*
G37*
G36*
X-995476Y-72491D02*
G01*
X-998270Y-82092D01*
X-999185Y-87020D01*
X-999540Y-91744D01*
X-998880Y-99720D01*
X-997000Y-106273D01*
X-993902Y-111556D01*
X-989787Y-115671D01*
X-984605Y-118719D01*
X-978560Y-120751D01*
X-971651Y-121869D01*
X-963980Y-122275D01*
X-900988Y-122275D01*
X-900988Y-138785D01*
X-888288Y-138785D01*
X-887272Y-121462D01*
X-856284Y-119430D01*
X-856284Y-105765D01*
X-887272Y-105765D01*
X-887272Y-75488D01*
X-900988Y-75488D01*
X-900988Y-105765D01*
X-964488Y-105765D01*
X-973531Y-104902D01*
X-980338Y-102057D01*
X-984605Y-96723D01*
X-986078Y-88493D01*
X-985824Y-85242D01*
X-985113Y-81889D01*
X-983030Y-75488D01*
G37*
G36*
X-836218Y-138480D02*
G01*
X-849172Y-142036D01*
X-847852Y-145288D01*
X-846886Y-148488D01*
X-846328Y-151688D01*
X-846124Y-154736D01*
X-847547Y-161747D01*
X-851763Y-166624D01*
X-858774Y-169570D01*
X-868476Y-170535D01*
X-887272Y-170535D01*
X-887272Y-146862D01*
X-900988Y-146862D01*
X-900988Y-170535D01*
X-997000Y-170535D01*
X-997000Y-187299D01*
X-900988Y-187299D01*
X-900988Y-202285D01*
X-888288Y-202285D01*
X-887272Y-187299D01*
X-868222Y-187299D01*
X-860348Y-186791D01*
X-853338Y-185369D01*
X-847242Y-182930D01*
X-842162Y-179578D01*
X-838098Y-175158D01*
X-835101Y-169824D01*
X-833272Y-163423D01*
X-832662Y-156057D01*
X-832916Y-151333D01*
X-833577Y-146812D01*
X-834694Y-142494D01*
G37*
G36*
X-997000Y-225907D02*
G01*
X-997000Y-239318D01*
X-983538Y-240893D01*
X-983538Y-241401D01*
X-986790Y-245465D01*
X-989787Y-249682D01*
X-992530Y-254101D01*
X-994867Y-258673D01*
X-996797Y-263398D01*
X-998270Y-268274D01*
X-999268Y-273862D01*
X-986332Y-273862D01*
X-985367Y-265785D01*
X-982421Y-258013D01*
X-977646Y-250240D01*
X-971092Y-242112D01*
X-938834Y-242112D01*
X-940053Y-251307D01*
X-941527Y-259486D01*
X-943203Y-266649D01*
X-945032Y-272897D01*
X-947115Y-278231D01*
X-949401Y-282752D01*
X-951890Y-286410D01*
X-954633Y-289356D01*
X-957580Y-291541D01*
X-960780Y-293065D01*
X-964184Y-293928D01*
X-967790Y-294233D01*
X-976274Y-292608D01*
X-982014Y-288239D01*
X-985316Y-281787D01*
X-986332Y-273862D01*
X-999268Y-273862D01*
X-999540Y-278485D01*
X-999032Y-284988D01*
X-997508Y-291033D01*
X-995019Y-296418D01*
X-991616Y-301091D01*
X-987247Y-304901D01*
X-981964Y-307797D01*
X-975817Y-309575D01*
X-968806Y-310235D01*
X-964437Y-309981D01*
X-960323Y-309219D01*
X-956513Y-308000D01*
X-952957Y-306222D01*
X-949655Y-303936D01*
X-946607Y-301142D01*
X-943762Y-297789D01*
X-941171Y-293878D01*
X-938834Y-289458D01*
X-936650Y-284429D01*
X-934719Y-278841D01*
X-932942Y-272694D01*
X-931367Y-265988D01*
X-929944Y-258622D01*
X-927658Y-242112D01*
X-922172Y-242366D01*
X-916838Y-243128D01*
X-911860Y-244551D01*
X-907389Y-246786D01*
X-903630Y-249834D01*
X-900734Y-253949D01*
X-898855Y-259130D01*
X-898194Y-265480D01*
X-899261Y-275132D01*
X-902106Y-284073D01*
X-906018Y-292100D01*
X-910386Y-299059D01*
X-898956Y-305612D01*
X-894029Y-297383D01*
X-891590Y-292608D01*
X-889355Y-287324D01*
X-887374Y-281736D01*
X-885850Y-275793D01*
X-884834Y-269494D01*
X-884478Y-262991D01*
X-884834Y-256641D01*
X-885952Y-250952D01*
X-887730Y-245922D01*
X-890117Y-241503D01*
X-893165Y-237693D01*
X-896823Y-234442D01*
X-900988Y-231749D01*
X-905662Y-229565D01*
X-910844Y-227939D01*
X-916482Y-226771D01*
X-922528Y-226110D01*
X-928928Y-225907D01*
G37*
G36*
X-997000Y-339394D02*
G01*
X-997000Y-355904D01*
X-929436Y-355904D01*
X-922019Y-356260D01*
X-915669Y-357174D01*
X-910437Y-358800D01*
X-906221Y-361137D01*
X-902969Y-364185D01*
X-900734Y-367944D01*
X-899414Y-372465D01*
X-898956Y-377799D01*
X-899261Y-382016D01*
X-900074Y-385978D01*
X-901496Y-389788D01*
X-903478Y-393496D01*
X-905967Y-397205D01*
X-909015Y-400964D01*
X-916736Y-409041D01*
X-997000Y-409041D01*
X-997000Y-425551D01*
X-835202Y-425551D01*
X-835202Y-409041D01*
X-880160Y-409041D01*
X-903020Y-409752D01*
X-899312Y-405739D01*
X-895858Y-401624D01*
X-892708Y-397408D01*
X-889914Y-392988D01*
X-887679Y-388366D01*
X-885952Y-383540D01*
X-884834Y-378409D01*
X-884478Y-372922D01*
X-884783Y-367436D01*
X-885698Y-362458D01*
X-887221Y-357936D01*
X-889355Y-353974D01*
X-892048Y-350520D01*
X-895350Y-347522D01*
X-899261Y-345033D01*
X-903732Y-343001D01*
X-908812Y-341426D01*
X-914450Y-340309D01*
X-920648Y-339648D01*
X-927404Y-339394D01*
G37*
G36*
X-957884Y-453694D02*
G01*
X-963625Y-454101D01*
X-969060Y-455269D01*
X-974242Y-457200D01*
X-979068Y-459841D01*
X-983487Y-463194D01*
X-987450Y-467207D01*
X-990955Y-471881D01*
X-993952Y-477113D01*
X-996340Y-482955D01*
X-998067Y-489356D01*
X-999185Y-496316D01*
X-999540Y-503783D01*
X-999134Y-511505D01*
X-998016Y-518922D01*
X-996187Y-525983D01*
X-993648Y-532688D01*
X-990447Y-538988D01*
X-986688Y-544880D01*
X-982319Y-550316D01*
X-977442Y-555294D01*
X-966012Y-545185D01*
X-970076Y-540969D01*
X-973785Y-536397D01*
X-976985Y-531520D01*
X-979678Y-526338D01*
X-981862Y-520903D01*
X-983487Y-515264D01*
X-984453Y-509473D01*
X-984808Y-503478D01*
X-984351Y-496265D01*
X-982929Y-489813D01*
X-980694Y-484225D01*
X-977696Y-479501D01*
X-973988Y-475742D01*
X-969568Y-472998D01*
X-964641Y-471322D01*
X-959154Y-470712D01*
X-953617Y-471220D01*
X-948994Y-472693D01*
X-945134Y-475030D01*
X-941832Y-478078D01*
X-938987Y-481838D01*
X-936447Y-486156D01*
X-931722Y-496112D01*
X-919835Y-523036D01*
X-916889Y-528320D01*
X-913384Y-533450D01*
X-909218Y-538073D01*
X-904341Y-542086D01*
X-898652Y-545185D01*
X-892048Y-547217D01*
X-884478Y-547928D01*
X-878941Y-547573D01*
X-873760Y-546404D01*
X-868883Y-544525D01*
X-864362Y-541985D01*
X-860247Y-538784D01*
X-856589Y-534974D01*
X-853389Y-530656D01*
X-850646Y-525830D01*
X-848512Y-520496D01*
X-846937Y-514807D01*
X-845972Y-508660D01*
X-845616Y-502259D01*
X-845972Y-495604D01*
X-846988Y-489254D01*
X-848614Y-483260D01*
X-850747Y-477570D01*
X-853440Y-472236D01*
X-856538Y-467359D01*
X-860044Y-462838D01*
X-863904Y-458825D01*
X-874572Y-467715D01*
X-871474Y-471220D01*
X-868730Y-474929D01*
X-866292Y-478891D01*
X-864209Y-483057D01*
X-862584Y-487476D01*
X-861364Y-492099D01*
X-860602Y-497027D01*
X-860348Y-502259D01*
X-860755Y-508406D01*
X-861974Y-513994D01*
X-863904Y-518922D01*
X-866546Y-523036D01*
X-869848Y-526389D01*
X-873760Y-528878D01*
X-878230Y-530402D01*
X-883208Y-530910D01*
X-888492Y-530352D01*
X-892962Y-528675D01*
X-896772Y-526084D01*
X-899972Y-522782D01*
X-902716Y-519023D01*
X-907186Y-510590D01*
X-918260Y-484733D01*
X-921156Y-478485D01*
X-924458Y-472693D01*
X-928217Y-467410D01*
X-932535Y-462838D01*
X-937564Y-459028D01*
X-943406Y-456184D01*
X-950163Y-454355D01*
G37*
G36*
X-886764Y-609904D02*
G01*
X-901242Y-612952D01*
X-899871Y-617982D01*
X-899464Y-623417D01*
X-899820Y-627024D01*
X-900836Y-630732D01*
X-902614Y-634492D01*
X-905256Y-638251D01*
X-908812Y-641908D01*
X-913282Y-645414D01*
X-918768Y-648665D01*
X-925372Y-651560D01*
X-997000Y-651560D01*
X-997000Y-668070D01*
X-887272Y-668070D01*
X-887272Y-654659D01*
X-907338Y-653135D01*
X-907338Y-652627D01*
X-902411Y-649579D01*
X-897991Y-646277D01*
X-894080Y-642670D01*
X-890778Y-638810D01*
X-888085Y-634695D01*
X-886104Y-630428D01*
X-884885Y-625957D01*
X-884478Y-621385D01*
X-884580Y-618134D01*
X-884936Y-615238D01*
X-885647Y-612597D01*
G37*
G36*
X-935786Y-696010D02*
G01*
X-941222Y-696214D01*
X-945692Y-696772D01*
X-945692Y-710488D01*
X-933500Y-710488D01*
X-925271Y-710996D01*
X-918108Y-712470D01*
X-911961Y-714806D01*
X-906932Y-718058D01*
X-903020Y-722172D01*
X-900226Y-726998D01*
X-898499Y-732637D01*
X-897940Y-738936D01*
X-898550Y-744931D01*
X-900379Y-750671D01*
X-903274Y-755954D01*
X-907338Y-760730D01*
X-912418Y-764794D01*
X-918514Y-768146D01*
X-925576Y-770585D01*
X-933500Y-772007D01*
X-933500Y-710488D01*
X-945692Y-710488D01*
X-945692Y-771702D01*
X-951636Y-771194D01*
X-957173Y-770128D01*
X-962304Y-768553D01*
X-967079Y-766419D01*
X-971346Y-763879D01*
X-975156Y-760831D01*
X-978458Y-757377D01*
X-981202Y-753465D01*
X-983386Y-749198D01*
X-985012Y-744524D01*
X-985977Y-739495D01*
X-986332Y-734110D01*
X-985723Y-726440D01*
X-983996Y-719328D01*
X-981202Y-712724D01*
X-977442Y-706475D01*
X-988364Y-700328D01*
X-992682Y-707796D01*
X-994562Y-711809D01*
X-996238Y-716076D01*
X-997610Y-720598D01*
X-998677Y-725474D01*
X-999286Y-730656D01*
X-999540Y-736193D01*
X-999286Y-741527D01*
X-998575Y-746709D01*
X-997356Y-751738D01*
X-995629Y-756513D01*
X-993495Y-761085D01*
X-990904Y-765352D01*
X-987856Y-769366D01*
X-984351Y-773074D01*
X-980440Y-776427D01*
X-976172Y-779373D01*
X-971448Y-782015D01*
X-966317Y-784199D01*
X-960831Y-785926D01*
X-954938Y-787196D01*
X-948740Y-787958D01*
X-942136Y-788212D01*
X-935634Y-787958D01*
X-929436Y-787146D01*
X-923594Y-785876D01*
X-918108Y-784098D01*
X-913028Y-781913D01*
X-908253Y-779373D01*
X-903935Y-776427D01*
X-899972Y-773176D01*
X-896467Y-769620D01*
X-893368Y-765759D01*
X-890676Y-761746D01*
X-888492Y-757478D01*
X-886764Y-753059D01*
X-885494Y-748538D01*
X-884732Y-743915D01*
X-884478Y-739241D01*
X-884885Y-732586D01*
X-886053Y-726490D01*
X-888034Y-720902D01*
X-890727Y-715822D01*
X-894130Y-711301D01*
X-898245Y-707339D01*
X-902969Y-703935D01*
X-908354Y-701141D01*
X-914400Y-698906D01*
X-920953Y-697331D01*
X-928116Y-696366D01*
G37*
G36*
X-997000Y-816457D02*
G01*
X-997000Y-833170D01*
X-929436Y-833170D01*
X-922019Y-833475D01*
X-915669Y-834440D01*
X-910437Y-836015D01*
X-906221Y-838250D01*
X-902969Y-841248D01*
X-900734Y-845007D01*
X-899414Y-849477D01*
X-898956Y-854760D01*
X-899261Y-859028D01*
X-900074Y-863041D01*
X-901496Y-866851D01*
X-903478Y-870610D01*
X-905967Y-874369D01*
X-909015Y-878179D01*
X-916736Y-886307D01*
X-997000Y-886307D01*
X-997000Y-902512D01*
X-887272Y-902512D01*
X-887272Y-889304D01*
X-903274Y-887577D01*
X-903274Y-887018D01*
X-899464Y-883005D01*
X-895959Y-878840D01*
X-892759Y-874572D01*
X-889965Y-870102D01*
X-887679Y-865479D01*
X-885952Y-860552D01*
X-884834Y-855421D01*
X-884478Y-849985D01*
X-884783Y-844499D01*
X-885698Y-839520D01*
X-887221Y-835101D01*
X-889355Y-831087D01*
X-892048Y-827633D01*
X-895350Y-824636D01*
X-899261Y-822096D01*
X-903732Y-820064D01*
X-908812Y-818438D01*
X-914450Y-817321D01*
X-920648Y-816660D01*
X-927404Y-816457D01*
G37*
G36*
X-997000Y-939393D02*
G01*
X-997000Y-956157D01*
X-929436Y-956157D01*
X-922019Y-956411D01*
X-915669Y-957376D01*
X-910437Y-958951D01*
X-906221Y-961237D01*
X-902969Y-964184D01*
X-900734Y-967943D01*
X-899414Y-972413D01*
X-898956Y-977696D01*
X-899261Y-981964D01*
X-900074Y-985977D01*
X-901496Y-989787D01*
X-903478Y-993546D01*
X-905967Y-997305D01*
X-909015Y-1001115D01*
X-916736Y-1009243D01*
X-997000Y-1009243D01*
X-997000Y-1025499D01*
X-887272Y-1025499D01*
X-887272Y-1012291D01*
X-903274Y-1010462D01*
X-903274Y-1009954D01*
X-899464Y-1005941D01*
X-895959Y-1001776D01*
X-892759Y-997508D01*
X-889965Y-993038D01*
X-887679Y-988415D01*
X-885952Y-983487D01*
X-884834Y-978357D01*
X-884478Y-972870D01*
X-884783Y-967435D01*
X-885698Y-962456D01*
X-887221Y-958037D01*
X-889355Y-954024D01*
X-892048Y-950569D01*
X-895350Y-947572D01*
X-899261Y-945032D01*
X-903732Y-943000D01*
X-908812Y-941374D01*
X-914450Y-940257D01*
X-920648Y-939596D01*
X-927404Y-939393D01*
G37*
G36*
X-997000Y-1065580D02*
G01*
X-997000Y-1082344D01*
X-848156Y-1082344D01*
X-848156Y-1065580D01*
G37*
G36*
X-871677Y672592D02*
G01*
X-874471Y671068D01*
X-873963Y639318D01*
X-873963Y529082D01*
X-855675Y529082D01*
X-855675Y593598D01*
X-848512Y599186D01*
X-842010Y602792D01*
X-836015Y604723D01*
X-830275Y605282D01*
X-826058Y605028D01*
X-822045Y604164D01*
X-818184Y602742D01*
X-814527Y600760D01*
X-811174Y598119D01*
X-808126Y594817D01*
X-805434Y590854D01*
X-803148Y586181D01*
X-801319Y580847D01*
X-799947Y574751D01*
X-799084Y567944D01*
X-798779Y560324D01*
X-799033Y553008D01*
X-799846Y546404D01*
X-801116Y540512D01*
X-802894Y535330D01*
X-805078Y530809D01*
X-807669Y526948D01*
X-810666Y523748D01*
X-813968Y521157D01*
X-817625Y519125D01*
X-821588Y517753D01*
X-825804Y516890D01*
X-830275Y516635D01*
X-837082Y517245D01*
X-843381Y519328D01*
X-849426Y523189D01*
X-855675Y529082D01*
X-873963Y529082D01*
X-873963Y516890D01*
X-891997Y514858D01*
X-891997Y508000D01*
X-857453Y505714D01*
X-856183Y520954D01*
X-849884Y514299D01*
X-842670Y509371D01*
X-834390Y506272D01*
X-824941Y505206D01*
X-818337Y505663D01*
X-812139Y506984D01*
X-806348Y509168D01*
X-801014Y512114D01*
X-796188Y515874D01*
X-791870Y520293D01*
X-788162Y525424D01*
X-785012Y531215D01*
X-782523Y537565D01*
X-780745Y544474D01*
X-779576Y551891D01*
X-779221Y559816D01*
X-779475Y566166D01*
X-780135Y572160D01*
X-781253Y577850D01*
X-782777Y583234D01*
X-784707Y588264D01*
X-786993Y592937D01*
X-789686Y597204D01*
X-792683Y601065D01*
X-795985Y604570D01*
X-799642Y607669D01*
X-803554Y610260D01*
X-807720Y612444D01*
X-812139Y614172D01*
X-816813Y615442D01*
X-821690Y616204D01*
X-826719Y616458D01*
X-834339Y615746D01*
X-841705Y613410D01*
X-848868Y608939D01*
X-855929Y601980D01*
X-855929Y654812D01*
X-837387Y656590D01*
X-837387Y663194D01*
G37*
G36*
X-736549Y669290D02*
G01*
X-741984Y668324D01*
X-746506Y665581D01*
X-749604Y661365D01*
X-750773Y655828D01*
X-749604Y650240D01*
X-746506Y645820D01*
X-741984Y642874D01*
X-736549Y641858D01*
X-730859Y642874D01*
X-726236Y645769D01*
X-723188Y650240D01*
X-722071Y655828D01*
X-723188Y661365D01*
X-726236Y665581D01*
X-730859Y668324D01*
G37*
G36*
X-350977Y660400D02*
G01*
X-355904Y660298D01*
X-361035Y659892D01*
X-366268Y659130D01*
X-371602Y658063D01*
X-377037Y656640D01*
X-382473Y654710D01*
X-387959Y652373D01*
X-393395Y649478D01*
X-393903Y616712D01*
X-381711Y616712D01*
X-376123Y645160D01*
X-370433Y647649D01*
X-364744Y649376D01*
X-359105Y650392D01*
X-353517Y650748D01*
X-347827Y650494D01*
X-342341Y649630D01*
X-337007Y648258D01*
X-331927Y646328D01*
X-327101Y643839D01*
X-322580Y640842D01*
X-318312Y637336D01*
X-314452Y633272D01*
X-310896Y628700D01*
X-307746Y623620D01*
X-305003Y618032D01*
X-302666Y611936D01*
X-300837Y605383D01*
X-299516Y598271D01*
X-298704Y590702D01*
X-298399Y582676D01*
X-298653Y574548D01*
X-299415Y566928D01*
X-300685Y559816D01*
X-302412Y553161D01*
X-304546Y547065D01*
X-307136Y541477D01*
X-310184Y536448D01*
X-313588Y531876D01*
X-317347Y527862D01*
X-321513Y524357D01*
X-325983Y521411D01*
X-330758Y518972D01*
X-335838Y517042D01*
X-341223Y515670D01*
X-346862Y514858D01*
X-352755Y514604D01*
X-358952Y514858D01*
X-365353Y515772D01*
X-371805Y517398D01*
X-378155Y519938D01*
X-383743Y548132D01*
X-395935Y548132D01*
X-395427Y515620D01*
X-390245Y512978D01*
X-384962Y510692D01*
X-379577Y508812D01*
X-374040Y507288D01*
X-368452Y506120D01*
X-362762Y505307D01*
X-356920Y504850D01*
X-350977Y504698D01*
X-344322Y504951D01*
X-337921Y505612D01*
X-331774Y506780D01*
X-325882Y508355D01*
X-320243Y510336D01*
X-314858Y512775D01*
X-309778Y515569D01*
X-305003Y518769D01*
X-300532Y522325D01*
X-296418Y526237D01*
X-292608Y530555D01*
X-289153Y535127D01*
X-286054Y540105D01*
X-283311Y545338D01*
X-281025Y550875D01*
X-279044Y556717D01*
X-277520Y562813D01*
X-276453Y569214D01*
X-275742Y575818D01*
X-275539Y582676D01*
X-275793Y589381D01*
X-276453Y595884D01*
X-277622Y602183D01*
X-279196Y608228D01*
X-281228Y614019D01*
X-283616Y619506D01*
X-286410Y624738D01*
X-289560Y629666D01*
X-293116Y634288D01*
X-296976Y638606D01*
X-301142Y642518D01*
X-305663Y646125D01*
X-310438Y649376D01*
X-315518Y652221D01*
X-320852Y654659D01*
X-326440Y656691D01*
X-332282Y658266D01*
X-338328Y659434D01*
X-344525Y660146D01*
G37*
G36*
X-205181Y657860D02*
G01*
X-236576Y566166D01*
X-216103Y566166D01*
X-192989Y635254D01*
X-170129Y566166D01*
X-236576Y566166D01*
X-253187Y517651D01*
X-270459Y515620D01*
X-270459Y508000D01*
X-210007Y508000D01*
X-210007Y515620D01*
X-231851Y518414D01*
X-218897Y557276D01*
X-167335Y557276D01*
X-154635Y518668D01*
X-176225Y515620D01*
X-176225Y508000D01*
X-126695Y508000D01*
X-126695Y515620D01*
X-144729Y518668D01*
X-192227Y657860D01*
G37*
G36*
X831900Y656844D02*
G01*
X831900Y649224D01*
X852728Y646938D01*
X853186Y617626D01*
X853135Y540105D01*
X852728Y517906D01*
X832154Y515620D01*
X832154Y508000D01*
X892860Y508000D01*
X892860Y515620D01*
X873556Y517906D01*
X873150Y539699D01*
X872794Y636016D01*
X923086Y508000D01*
X932484Y508000D01*
X984554Y635508D01*
X983284Y589026D01*
X983284Y518668D01*
X963980Y515620D01*
X963980Y508000D01*
X1013764Y508000D01*
X1013764Y515620D01*
X993698Y518668D01*
X993444Y646684D01*
X1013764Y649224D01*
X1013764Y656844D01*
X973124Y656844D01*
X923086Y533400D01*
X874826Y656844D01*
G37*
G36*
X-66243Y656844D02*
G01*
X-73812Y656539D01*
X-80772Y655624D01*
X-87122Y654151D01*
X-92811Y652170D01*
X-97891Y649681D01*
X-102311Y646734D01*
X-106070Y643331D01*
X-109169Y639521D01*
X-111607Y635304D01*
X-113334Y630783D01*
X-114401Y625906D01*
X-114689Y620014D01*
X-94691Y620014D01*
X-94183Y626922D01*
X-92557Y632764D01*
X-89916Y637641D01*
X-86207Y641553D01*
X-81330Y644499D01*
X-75387Y646582D01*
X-68326Y647801D01*
X-60147Y648208D01*
X-44399Y648208D01*
X-43942Y619201D01*
X-43891Y589788D01*
X-55829Y589788D01*
X-65176Y590245D01*
X-73152Y591566D01*
X-79857Y593852D01*
X-85242Y597103D01*
X-89408Y601319D01*
X-92354Y606501D01*
X-94132Y612749D01*
X-94691Y620014D01*
X-114689Y620014D01*
X-114249Y615035D01*
X-112776Y609498D01*
X-110235Y604215D01*
X-106527Y599338D01*
X-101650Y594969D01*
X-95554Y591159D01*
X-88188Y588060D01*
X-79451Y585724D01*
X-86664Y584504D01*
X-93116Y582828D01*
X-98856Y580796D01*
X-103936Y578358D01*
X-108356Y575614D01*
X-112115Y572516D01*
X-115265Y569112D01*
X-117754Y565454D01*
X-119684Y561594D01*
X-121056Y557479D01*
X-121869Y553110D01*
X-122109Y548386D01*
X-101041Y548386D01*
X-100736Y553516D01*
X-99923Y558190D01*
X-98450Y562406D01*
X-96418Y566216D01*
X-93776Y569620D01*
X-90474Y572516D01*
X-86563Y575005D01*
X-81940Y577037D01*
X-76708Y578612D01*
X-70815Y579729D01*
X-64160Y580440D01*
X-56845Y580644D01*
X-43891Y580644D01*
X-43992Y542290D01*
X-44399Y516890D01*
X-59131Y516890D01*
X-65786Y517143D01*
X-71831Y517804D01*
X-77368Y518972D01*
X-82296Y520547D01*
X-86664Y522579D01*
X-90474Y525018D01*
X-93675Y527913D01*
X-96316Y531164D01*
X-98399Y534873D01*
X-99872Y538988D01*
X-100736Y543509D01*
X-101041Y548386D01*
X-122109Y548386D01*
X-121920Y544830D01*
X-121361Y541070D01*
X-120345Y537362D01*
X-118922Y533704D01*
X-117043Y530199D01*
X-114706Y526846D01*
X-111963Y523646D01*
X-108661Y520700D01*
X-104902Y517956D01*
X-100584Y515518D01*
X-95758Y513334D01*
X-90424Y511505D01*
X-84480Y510032D01*
X-77978Y508914D01*
X-70866Y508254D01*
X-63195Y508000D01*
X-2489Y508000D01*
X-2489Y515620D01*
X-23317Y517906D01*
X-23520Y547674D01*
X-23520Y624992D01*
X-23317Y646938D01*
X-2489Y649224D01*
X-2489Y656844D01*
G37*
G36*
X-549097Y656844D02*
G01*
X-549097Y649224D01*
X-528015Y646684D01*
X-490169Y600710D01*
X-536397Y517651D01*
X-553669Y515620D01*
X-553669Y508000D01*
X-496519Y508000D01*
X-496519Y515620D01*
X-515061Y517906D01*
X-478231Y586232D01*
X-456133Y559562D01*
X-456387Y518159D01*
X-477469Y515620D01*
X-477469Y508000D01*
X-415239Y508000D01*
X-415239Y515620D01*
X-436067Y517906D01*
X-436270Y547268D01*
X-436270Y624890D01*
X-436067Y646938D01*
X-415239Y649224D01*
X-415239Y656844D01*
X-477723Y656844D01*
X-477723Y649224D01*
X-456387Y646938D01*
X-456133Y610209D01*
X-456133Y572516D01*
X-515823Y646176D01*
X-498043Y649224D01*
X-498043Y656844D01*
G37*
G36*
X400608Y644144D02*
G01*
X401878Y613410D01*
X371906Y613410D01*
X371906Y603758D01*
X402132Y603758D01*
X402132Y531876D01*
X401218Y524357D01*
X398627Y519226D01*
X394512Y516280D01*
X389178Y515366D01*
X385368Y515772D01*
X381762Y516940D01*
X378053Y518922D01*
X373938Y521716D01*
X369620Y516635D01*
X374396Y511860D01*
X380238Y508254D01*
X387248Y505968D01*
X395274Y505206D01*
X400964Y505612D01*
X405942Y506730D01*
X410260Y508711D01*
X413867Y511505D01*
X416661Y515112D01*
X418744Y519582D01*
X420014Y524916D01*
X420420Y531114D01*
X420420Y603758D01*
X439216Y603758D01*
X439216Y611632D01*
X419404Y614172D01*
X413308Y644144D01*
G37*
G36*
X765860Y616458D02*
G01*
X761034Y616254D01*
X756208Y615543D01*
X751484Y614476D01*
X746912Y612902D01*
X742492Y610920D01*
X738225Y608482D01*
X734212Y605586D01*
X730504Y602284D01*
X727049Y598576D01*
X723950Y594360D01*
X721258Y589788D01*
X718921Y584758D01*
X717092Y579272D01*
X715670Y573379D01*
X714857Y567080D01*
X714552Y560324D01*
X735126Y560324D01*
X735380Y567791D01*
X736041Y574598D01*
X737209Y580847D01*
X738784Y586486D01*
X740816Y591464D01*
X743254Y595833D01*
X746099Y599541D01*
X749300Y602589D01*
X752906Y604977D01*
X756869Y606704D01*
X761187Y607720D01*
X765860Y608076D01*
X770534Y607720D01*
X774801Y606704D01*
X778764Y604977D01*
X782320Y602589D01*
X785520Y599541D01*
X788365Y595833D01*
X790752Y591464D01*
X792734Y586486D01*
X794308Y580847D01*
X795426Y574598D01*
X796086Y567791D01*
X796340Y560324D01*
X796086Y553008D01*
X795426Y546303D01*
X794308Y540156D01*
X792734Y534670D01*
X790752Y529793D01*
X788314Y525526D01*
X785520Y521919D01*
X782320Y518922D01*
X778764Y516585D01*
X774801Y514908D01*
X770534Y513943D01*
X765860Y513588D01*
X761187Y513943D01*
X756869Y514908D01*
X752906Y516585D01*
X749300Y518922D01*
X746099Y521919D01*
X743254Y525526D01*
X740816Y529793D01*
X738784Y534670D01*
X737209Y540156D01*
X736041Y546303D01*
X735380Y553008D01*
X735126Y560324D01*
X714552Y560324D01*
X714857Y553669D01*
X715670Y547471D01*
X717042Y541680D01*
X718870Y536295D01*
X721207Y531317D01*
X723900Y526796D01*
X726948Y522732D01*
X730402Y519023D01*
X734110Y515823D01*
X738124Y512978D01*
X742391Y510641D01*
X746810Y508660D01*
X751433Y507136D01*
X756158Y506069D01*
X760984Y505409D01*
X765860Y505206D01*
X770737Y505409D01*
X775563Y506069D01*
X780288Y507136D01*
X784860Y508660D01*
X789228Y510641D01*
X793445Y512978D01*
X797407Y515823D01*
X801065Y519023D01*
X804468Y522732D01*
X807466Y526796D01*
X810158Y531317D01*
X812393Y536295D01*
X814222Y541680D01*
X815543Y547471D01*
X816356Y553669D01*
X816660Y560324D01*
X816356Y567029D01*
X815543Y573328D01*
X814171Y579170D01*
X812342Y584657D01*
X810107Y589686D01*
X807415Y594258D01*
X804367Y598474D01*
X800963Y602183D01*
X797306Y605536D01*
X793343Y608431D01*
X789127Y610870D01*
X784707Y612851D01*
X780186Y614426D01*
X775462Y615543D01*
X770686Y616254D01*
G37*
G36*
X491794Y616458D02*
G01*
X485190Y615899D01*
X479399Y614172D01*
X474522Y611225D01*
X470509Y607009D01*
X467410Y601472D01*
X465124Y594512D01*
X463804Y586028D01*
X463346Y576072D01*
X463092Y517398D01*
X447344Y514858D01*
X447344Y508000D01*
X498652Y508000D01*
X498652Y514858D01*
X482142Y517398D01*
X481634Y554736D01*
X481634Y575564D01*
X481888Y582472D01*
X482701Y588213D01*
X484073Y592886D01*
X486054Y596544D01*
X488594Y599236D01*
X491794Y601116D01*
X495655Y602132D01*
X500176Y602488D01*
X507593Y601675D01*
X515112Y599033D01*
X522884Y594461D01*
X531164Y587756D01*
X531114Y536448D01*
X530910Y517398D01*
X515416Y514858D01*
X515416Y508000D01*
X566724Y508000D01*
X566724Y514858D01*
X550214Y517398D01*
X549706Y554736D01*
X549757Y575005D01*
X550113Y589076D01*
X550468Y595630D01*
X567994Y597408D01*
X567994Y604012D01*
X536752Y616204D01*
X533704Y614172D01*
X531926Y595884D01*
X527507Y600405D01*
X522782Y604469D01*
X517906Y607974D01*
X512826Y610920D01*
X507593Y613308D01*
X502361Y615035D01*
X497078Y616102D01*
G37*
G36*
X255574Y616458D02*
G01*
X250748Y616254D01*
X245922Y615543D01*
X241198Y614476D01*
X236626Y612902D01*
X232206Y610920D01*
X227939Y608482D01*
X223926Y605586D01*
X220217Y602284D01*
X216763Y598576D01*
X213664Y594360D01*
X210972Y589788D01*
X208635Y584758D01*
X206806Y579272D01*
X205384Y573379D01*
X204571Y567080D01*
X204266Y560324D01*
X224840Y560324D01*
X225094Y567791D01*
X225755Y574598D01*
X226923Y580847D01*
X228498Y586486D01*
X230530Y591464D01*
X232968Y595833D01*
X235813Y599541D01*
X239014Y602589D01*
X242620Y604977D01*
X246583Y606704D01*
X250901Y607720D01*
X255574Y608076D01*
X260299Y607720D01*
X264617Y606704D01*
X268630Y604977D01*
X272237Y602589D01*
X275437Y599541D01*
X278282Y595833D01*
X280670Y591464D01*
X282702Y586486D01*
X284276Y580847D01*
X285394Y574598D01*
X286054Y567791D01*
X286308Y560324D01*
X286054Y553008D01*
X285394Y546303D01*
X284276Y540156D01*
X282702Y534670D01*
X280670Y529793D01*
X278282Y525526D01*
X275437Y521919D01*
X272237Y518922D01*
X268630Y516585D01*
X264617Y514908D01*
X260299Y513943D01*
X255574Y513588D01*
X250901Y513943D01*
X246583Y514908D01*
X242620Y516585D01*
X239014Y518922D01*
X235813Y521919D01*
X232968Y525526D01*
X230530Y529793D01*
X228498Y534670D01*
X226923Y540156D01*
X225755Y546303D01*
X225094Y553008D01*
X224840Y560324D01*
X204266Y560324D01*
X204571Y553669D01*
X205384Y547471D01*
X206756Y541680D01*
X208584Y536295D01*
X210921Y531317D01*
X213614Y526796D01*
X216662Y522732D01*
X220116Y519023D01*
X223824Y515823D01*
X227838Y512978D01*
X232105Y510641D01*
X236524Y508660D01*
X241147Y507136D01*
X245871Y506069D01*
X250698Y505409D01*
X255574Y505206D01*
X260451Y505409D01*
X265277Y506069D01*
X270002Y507136D01*
X274574Y508660D01*
X278993Y510641D01*
X283210Y512978D01*
X287223Y515823D01*
X290931Y519023D01*
X294335Y522732D01*
X297383Y526796D01*
X300075Y531317D01*
X302310Y536295D01*
X304139Y541680D01*
X305511Y547471D01*
X306324Y553669D01*
X306628Y560324D01*
X306324Y567029D01*
X305511Y573328D01*
X304139Y579170D01*
X302310Y584657D01*
X300024Y589686D01*
X297281Y594258D01*
X294233Y598474D01*
X290830Y602183D01*
X287121Y605536D01*
X283108Y608431D01*
X278892Y610870D01*
X274472Y612851D01*
X269900Y614426D01*
X265226Y615543D01*
X260400Y616254D01*
G37*
G36*
X110540Y616458D02*
G01*
X103936Y615899D01*
X98145Y614172D01*
X93268Y611225D01*
X89255Y607009D01*
X86156Y601472D01*
X83870Y594512D01*
X82550Y586028D01*
X82092Y576072D01*
X81838Y517398D01*
X66090Y514858D01*
X66090Y508000D01*
X117398Y508000D01*
X117398Y514858D01*
X100888Y517398D01*
X100380Y554736D01*
X100380Y575564D01*
X100634Y582472D01*
X101447Y588213D01*
X102819Y592886D01*
X104800Y596544D01*
X107340Y599236D01*
X110540Y601116D01*
X114401Y602132D01*
X118922Y602488D01*
X126339Y601675D01*
X133858Y599033D01*
X141732Y594461D01*
X150164Y587756D01*
X150114Y546100D01*
X149656Y517398D01*
X134162Y514858D01*
X134162Y508000D01*
X185470Y508000D01*
X185470Y514858D01*
X168960Y517398D01*
X168452Y554736D01*
X168503Y575005D01*
X168859Y589076D01*
X169214Y595630D01*
X186740Y597408D01*
X186740Y604012D01*
X155498Y616204D01*
X152450Y614172D01*
X150672Y595884D01*
X146253Y600405D01*
X141528Y604469D01*
X136652Y607974D01*
X131572Y610920D01*
X126339Y613308D01*
X121107Y615035D01*
X115824Y616102D01*
G37*
G36*
X-656539Y616458D02*
G01*
X-665175Y615848D01*
X-672998Y614070D01*
X-680415Y611225D01*
X-687781Y607314D01*
X-687019Y584708D01*
X-676859Y584708D01*
X-672795Y603758D01*
X-668782Y605485D01*
X-664768Y606755D01*
X-660704Y607568D01*
X-656539Y607822D01*
X-647141Y606653D01*
X-640384Y603300D01*
X-636320Y598170D01*
X-634949Y591566D01*
X-636066Y585063D01*
X-639622Y580034D01*
X-645972Y575818D01*
X-655523Y571754D01*
X-663397Y568960D01*
X-670966Y565962D01*
X-677367Y562711D01*
X-682650Y559155D01*
X-686816Y555345D01*
X-690016Y551230D01*
X-692200Y546760D01*
X-693470Y542036D01*
X-693877Y536956D01*
X-693572Y532688D01*
X-692658Y528624D01*
X-691083Y524713D01*
X-688949Y521055D01*
X-686206Y517651D01*
X-682853Y514604D01*
X-678942Y511911D01*
X-674420Y509574D01*
X-669340Y507746D01*
X-663702Y506374D01*
X-657453Y505510D01*
X-650697Y505206D01*
X-641654Y505714D01*
X-633272Y507288D01*
X-625246Y509930D01*
X-617169Y513588D01*
X-616915Y537972D01*
X-627329Y537972D01*
X-632155Y517398D01*
X-636270Y515721D01*
X-640638Y514553D01*
X-645312Y513842D01*
X-650443Y513588D01*
X-656590Y513943D01*
X-661822Y514908D01*
X-666242Y516483D01*
X-669848Y518617D01*
X-672592Y521208D01*
X-674573Y524306D01*
X-675690Y527761D01*
X-676097Y531622D01*
X-674928Y538073D01*
X-671220Y543306D01*
X-664870Y547776D01*
X-655523Y551942D01*
X-645109Y555244D01*
X-639216Y557682D01*
X-633882Y560374D01*
X-629259Y563473D01*
X-625348Y566928D01*
X-622198Y570839D01*
X-619861Y575157D01*
X-618439Y580034D01*
X-617931Y585470D01*
X-618591Y591566D01*
X-620471Y597255D01*
X-623570Y602538D01*
X-627888Y607161D01*
X-633374Y611022D01*
X-640029Y613918D01*
X-647750Y615797D01*
G37*
G36*
X-956767Y616458D02*
G01*
X-962609Y616102D01*
X-968146Y615137D01*
X-973328Y613511D01*
X-978153Y611276D01*
X-982573Y608431D01*
X-986536Y605078D01*
X-989990Y601116D01*
X-992936Y596646D01*
X-995273Y591718D01*
X-997000Y586282D01*
X-997745Y582168D01*
X-980389Y582168D01*
X-979932Y587197D01*
X-978560Y592023D01*
X-976426Y596392D01*
X-973480Y600252D01*
X-969924Y603504D01*
X-965708Y605942D01*
X-960983Y607517D01*
X-955751Y608076D01*
X-950620Y607517D01*
X-945540Y605891D01*
X-940765Y603046D01*
X-936345Y599033D01*
X-932484Y593801D01*
X-929284Y587298D01*
X-926896Y579424D01*
X-925525Y570230D01*
X-968451Y569722D01*
X-974394Y570636D01*
X-978052Y573176D01*
X-979881Y577138D01*
X-980389Y582168D01*
X-997745Y582168D01*
X-998067Y580390D01*
X-998423Y574040D01*
X-998067Y567029D01*
X-996899Y561594D01*
X-925271Y561848D01*
X-925677Y554786D01*
X-926693Y548335D01*
X-928217Y542493D01*
X-930249Y537311D01*
X-932789Y532688D01*
X-935786Y528726D01*
X-939292Y525322D01*
X-943152Y522579D01*
X-947419Y520395D01*
X-952042Y518871D01*
X-957021Y517956D01*
X-962355Y517651D01*
X-972261Y518820D01*
X-980440Y522020D01*
X-987450Y527100D01*
X-993597Y533654D01*
X-997915Y530606D01*
X-994562Y525018D01*
X-990701Y519988D01*
X-986231Y515670D01*
X-981252Y512013D01*
X-975715Y509066D01*
X-969670Y506984D01*
X-963066Y505663D01*
X-956005Y505206D01*
X-950518Y505459D01*
X-945235Y506120D01*
X-940257Y507288D01*
X-935482Y508863D01*
X-931062Y510946D01*
X-926896Y513384D01*
X-923086Y516280D01*
X-919632Y519582D01*
X-916482Y523290D01*
X-913739Y527405D01*
X-911352Y531926D01*
X-909370Y536803D01*
X-907796Y542086D01*
X-906627Y547725D01*
X-905967Y553720D01*
X-905713Y560070D01*
X-905967Y566369D01*
X-906780Y572312D01*
X-908050Y578002D01*
X-909828Y583336D01*
X-912012Y588365D01*
X-914653Y592988D01*
X-917600Y597255D01*
X-920953Y601116D01*
X-924610Y604621D01*
X-928573Y607669D01*
X-932789Y610311D01*
X-937209Y612444D01*
X-941882Y614172D01*
X-946708Y615442D01*
X-951687Y616204D01*
G37*
G36*
X-743153Y616204D02*
G01*
X-746201Y614172D01*
X-745947Y584708D01*
X-745998Y536448D01*
X-746201Y517398D01*
X-761441Y514858D01*
X-761441Y508000D01*
X-710387Y508000D01*
X-710387Y514858D01*
X-727405Y517398D01*
X-727659Y574903D01*
X-727456Y588975D01*
X-727151Y595884D01*
X-709117Y597662D01*
X-709117Y604266D01*
G37*
G36*
X600252Y615188D02*
G01*
X598220Y612902D01*
X598728Y581406D01*
X598728Y517143D01*
X583488Y514604D01*
X583488Y508000D01*
X614476Y506222D01*
X616508Y526288D01*
X620826Y521360D01*
X625398Y517093D01*
X630224Y513486D01*
X635203Y510489D01*
X640283Y508203D01*
X645515Y506526D01*
X650798Y505561D01*
X656132Y505206D01*
X662584Y505714D01*
X668324Y507288D01*
X673303Y510082D01*
X677468Y514146D01*
X680770Y519582D01*
X683209Y526542D01*
X684682Y535076D01*
X685088Y545338D01*
X684580Y601980D01*
X700582Y605282D01*
X700582Y611886D01*
X667816Y615188D01*
X665530Y612902D01*
X666546Y581406D01*
X666546Y546354D01*
X666242Y539496D01*
X665378Y533806D01*
X663905Y529234D01*
X661822Y525576D01*
X659231Y522884D01*
X656031Y521055D01*
X652322Y520039D01*
X648004Y519684D01*
X640029Y520598D01*
X632104Y523290D01*
X624433Y527812D01*
X617016Y534162D01*
X616508Y601980D01*
X632256Y605028D01*
X632256Y611632D01*
G37*
D10*
X0Y1258315D02*
G01*
X0Y1149350D01*
X0Y1258315D02*
G01*
X-41655Y1149350D01*
X-83057Y1258315D02*
G01*
X-41655Y1149350D01*
X-83057Y1258315D02*
G01*
X-83057Y1149350D01*
X-117347Y1237487D02*
G01*
X-127762Y1242821D01*
X-143510Y1258315D01*
X-143510Y1149350D01*
D11*
G75*
G01*
X1699997Y-599999D02*
G03*
X-1699997Y-599999I-1699997J0D01*
G75*
G01*
X-1699997Y-599999D02*
G03*
X1699997Y-599999I1699997J0D01*
M02*
