G04 Layer: TopLayer*
G04 EasyEDA v6.5.22, 2022-11-14 19:57:00*
G04 f0da57bd03cf490fa7de3f553d211417,61aeb1a5dc08497992730370c491a1bd,10*
G04 Gerber Generator version 0.2*
G04 Scale: 100 percent, Rotated: No, Reflected: No *
G04 Dimensions in millimeters *
G04 leading zeros omitted , absolute positions ,4 integer and 5 decimal *
%FSLAX45Y45*%
%MOMM*%

%AMMACRO1*21,1,$1,$2,0,0,$3*%
%AMMACRO2*4,1,4,-0.2499,1,0.2499,1,0.2499,-1,-0.2499,-1,-0.2499,1,0*%
%ADD10C,0.2032*%
%ADD11C,0.2540*%
%ADD12R,4.2000X3.8000*%
%ADD13R,1.5000X1.3589*%
%ADD14R,0.8000X0.9000*%
%ADD15MACRO1,0.864X0.8065X0.0000*%
%ADD16R,0.8640X0.8065*%
%ADD17MACRO1,0.864X0.8065X-90.0000*%
%ADD18MACRO2*%
%ADD19R,0.7000X1.2500*%
%ADD20R,1.2500X0.7000*%
%ADD21C,2.0000*%
%ADD22MACRO1,2X2X0.0000*%
%ADD23C,1.9304*%
%ADD24C,1.7000*%
%ADD25R,1.5000X1.5000*%
%ADD26C,1.5000*%
%ADD27C,1.6764*%
%ADD28C,1.8000*%
%ADD29R,1.8000X1.8000*%
%ADD30C,0.6096*%
%ADD31C,0.0116*%

%LPD*%
D10*
X-2385313Y6374892D02*
G01*
X-2403855Y6393434D01*
X-2431542Y6402578D01*
X-2468371Y6402578D01*
X-2496057Y6393434D01*
X-2514600Y6374892D01*
X-2514600Y6356350D01*
X-2505455Y6338062D01*
X-2496057Y6328663D01*
X-2477770Y6319520D01*
X-2422144Y6300978D01*
X-2403855Y6291834D01*
X-2394457Y6282689D01*
X-2385313Y6264147D01*
X-2385313Y6236462D01*
X-2403855Y6217920D01*
X-2431542Y6208776D01*
X-2468371Y6208776D01*
X-2496057Y6217920D01*
X-2514600Y6236462D01*
X-2324354Y6402578D02*
G01*
X-2315210Y6393434D01*
X-2305812Y6402578D01*
X-2315210Y6411976D01*
X-2324354Y6402578D01*
X-2315210Y6338062D02*
G01*
X-2315210Y6208776D01*
X-2244852Y6338062D02*
G01*
X-2244852Y6208776D01*
X-2244852Y6300978D02*
G01*
X-2217165Y6328663D01*
X-2198623Y6338062D01*
X-2170937Y6338062D01*
X-2152650Y6328663D01*
X-2143252Y6300978D01*
X-2143252Y6208776D01*
X-1971547Y6338062D02*
G01*
X-1971547Y6190234D01*
X-1980692Y6162547D01*
X-1990089Y6153150D01*
X-2008378Y6144005D01*
X-2036063Y6144005D01*
X-2054605Y6153150D01*
X-1971547Y6310376D02*
G01*
X-1990089Y6328663D01*
X-2008378Y6338062D01*
X-2036063Y6338062D01*
X-2054605Y6328663D01*
X-2073147Y6310376D01*
X-2082292Y6282689D01*
X-2082292Y6264147D01*
X-2073147Y6236462D01*
X-2054605Y6217920D01*
X-2036063Y6208776D01*
X-2008378Y6208776D01*
X-1990089Y6217920D01*
X-1971547Y6236462D01*
X-1910587Y6402578D02*
G01*
X-1910587Y6208776D01*
X-1849628Y6282689D02*
G01*
X-1738629Y6282689D01*
X-1738629Y6300978D01*
X-1748028Y6319520D01*
X-1757171Y6328663D01*
X-1775713Y6338062D01*
X-1803400Y6338062D01*
X-1821942Y6328663D01*
X-1840229Y6310376D01*
X-1849628Y6282689D01*
X-1849628Y6264147D01*
X-1840229Y6236462D01*
X-1821942Y6217920D01*
X-1803400Y6208776D01*
X-1775713Y6208776D01*
X-1757171Y6217920D01*
X-1738629Y6236462D01*
X-1539239Y6356350D02*
G01*
X-1548384Y6374892D01*
X-1566926Y6393434D01*
X-1585468Y6402578D01*
X-1622297Y6402578D01*
X-1640839Y6393434D01*
X-1659381Y6374892D01*
X-1668526Y6356350D01*
X-1677670Y6328663D01*
X-1677670Y6282689D01*
X-1668526Y6254750D01*
X-1659381Y6236462D01*
X-1640839Y6217920D01*
X-1622297Y6208776D01*
X-1585468Y6208776D01*
X-1566926Y6217920D01*
X-1548384Y6236462D01*
X-1539239Y6254750D01*
X-1478279Y6402578D02*
G01*
X-1478279Y6208776D01*
X-1371092Y6338062D02*
G01*
X-1389634Y6328663D01*
X-1408176Y6310376D01*
X-1417320Y6282689D01*
X-1417320Y6264147D01*
X-1408176Y6236462D01*
X-1389634Y6217920D01*
X-1371092Y6208776D01*
X-1343405Y6208776D01*
X-1324863Y6217920D01*
X-1306576Y6236462D01*
X-1297178Y6264147D01*
X-1297178Y6282689D01*
X-1306576Y6310376D01*
X-1324863Y6328663D01*
X-1343405Y6338062D01*
X-1371092Y6338062D01*
X-1125473Y6310376D02*
G01*
X-1144015Y6328663D01*
X-1162304Y6338062D01*
X-1189989Y6338062D01*
X-1208531Y6328663D01*
X-1227073Y6310376D01*
X-1236218Y6282689D01*
X-1236218Y6264147D01*
X-1227073Y6236462D01*
X-1208531Y6217920D01*
X-1189989Y6208776D01*
X-1162304Y6208776D01*
X-1144015Y6217920D01*
X-1125473Y6236462D01*
X-1064513Y6402578D02*
G01*
X-1064513Y6208776D01*
X-972057Y6338062D02*
G01*
X-1064513Y6245605D01*
X-1027429Y6282689D02*
G01*
X-962913Y6208776D01*
X-648970Y6402578D02*
G01*
X-648970Y6208776D01*
X-648970Y6310376D02*
G01*
X-667257Y6328663D01*
X-685800Y6338062D01*
X-713486Y6338062D01*
X-732028Y6328663D01*
X-750570Y6310376D01*
X-759713Y6282689D01*
X-759713Y6264147D01*
X-750570Y6236462D01*
X-732028Y6217920D01*
X-713486Y6208776D01*
X-685800Y6208776D01*
X-667257Y6217920D01*
X-648970Y6236462D01*
X-588010Y6282689D02*
G01*
X-477012Y6282689D01*
X-477012Y6300978D01*
X-486410Y6319520D01*
X-495554Y6328663D01*
X-514095Y6338062D01*
X-541781Y6338062D01*
X-560070Y6328663D01*
X-578612Y6310376D01*
X-588010Y6282689D01*
X-588010Y6264147D01*
X-578612Y6236462D01*
X-560070Y6217920D01*
X-541781Y6208776D01*
X-514095Y6208776D01*
X-495554Y6217920D01*
X-477012Y6236462D01*
X-314452Y6310376D02*
G01*
X-323850Y6328663D01*
X-351536Y6338062D01*
X-379221Y6338062D01*
X-406907Y6328663D01*
X-416052Y6310376D01*
X-406907Y6291834D01*
X-388365Y6282689D01*
X-342137Y6273292D01*
X-323850Y6264147D01*
X-314452Y6245605D01*
X-314452Y6236462D01*
X-323850Y6217920D01*
X-351536Y6208776D01*
X-379221Y6208776D01*
X-406907Y6217920D01*
X-416052Y6236462D01*
X-253492Y6402578D02*
G01*
X-244347Y6393434D01*
X-234950Y6402578D01*
X-244347Y6411976D01*
X-253492Y6402578D01*
X-244347Y6338062D02*
G01*
X-244347Y6208776D01*
X-63245Y6338062D02*
G01*
X-63245Y6190234D01*
X-72389Y6162547D01*
X-81787Y6153150D01*
X-100329Y6144005D01*
X-128015Y6144005D01*
X-146304Y6153150D01*
X-63245Y6310376D02*
G01*
X-81787Y6328663D01*
X-100329Y6338062D01*
X-128015Y6338062D01*
X-146304Y6328663D01*
X-164845Y6310376D01*
X-173989Y6282689D01*
X-173989Y6264147D01*
X-164845Y6236462D01*
X-146304Y6217920D01*
X-128015Y6208776D01*
X-100329Y6208776D01*
X-81787Y6217920D01*
X-63245Y6236462D01*
X-2286Y6338062D02*
G01*
X-2286Y6208776D01*
X-2286Y6300978D02*
G01*
X25400Y6328663D01*
X43942Y6338062D01*
X71628Y6338062D01*
X90170Y6328663D01*
X99313Y6300978D01*
X99313Y6208776D01*
X302513Y6338062D02*
G01*
X302513Y6208776D01*
X302513Y6300978D02*
G01*
X330200Y6328663D01*
X348742Y6338062D01*
X376428Y6338062D01*
X394970Y6328663D01*
X404113Y6300978D01*
X404113Y6208776D01*
X404113Y6300978D02*
G01*
X431800Y6328663D01*
X450342Y6338062D01*
X478028Y6338062D01*
X496570Y6328663D01*
X505713Y6300978D01*
X505713Y6208776D01*
X677418Y6338062D02*
G01*
X677418Y6208776D01*
X677418Y6310376D02*
G01*
X659129Y6328663D01*
X640587Y6338062D01*
X612902Y6338062D01*
X594360Y6328663D01*
X575818Y6310376D01*
X566673Y6282689D01*
X566673Y6264147D01*
X575818Y6236462D01*
X594360Y6217920D01*
X612902Y6208776D01*
X640587Y6208776D01*
X659129Y6217920D01*
X677418Y6236462D01*
X849376Y6402578D02*
G01*
X849376Y6208776D01*
X849376Y6310376D02*
G01*
X830834Y6328663D01*
X812292Y6338062D01*
X784605Y6338062D01*
X766063Y6328663D01*
X747776Y6310376D01*
X738378Y6282689D01*
X738378Y6264147D01*
X747776Y6236462D01*
X766063Y6217920D01*
X784605Y6208776D01*
X812292Y6208776D01*
X830834Y6217920D01*
X849376Y6236462D01*
X910336Y6282689D02*
G01*
X1021079Y6282689D01*
X1021079Y6300978D01*
X1011936Y6319520D01*
X1002537Y6328663D01*
X984250Y6338062D01*
X956310Y6338062D01*
X938021Y6328663D01*
X919479Y6310376D01*
X910336Y6282689D01*
X910336Y6264147D01*
X919479Y6236462D01*
X938021Y6217920D01*
X956310Y6208776D01*
X984250Y6208776D01*
X1002537Y6217920D01*
X1021079Y6236462D01*
X1224279Y6402578D02*
G01*
X1224279Y6208776D01*
X1224279Y6310376D02*
G01*
X1242821Y6328663D01*
X1261110Y6338062D01*
X1289050Y6338062D01*
X1307337Y6328663D01*
X1325879Y6310376D01*
X1335023Y6282689D01*
X1335023Y6264147D01*
X1325879Y6236462D01*
X1307337Y6217920D01*
X1289050Y6208776D01*
X1261110Y6208776D01*
X1242821Y6217920D01*
X1224279Y6236462D01*
X1405381Y6338062D02*
G01*
X1460754Y6208776D01*
X1516126Y6338062D02*
G01*
X1460754Y6208776D01*
X1442212Y6171692D01*
X1423670Y6153150D01*
X1405381Y6144005D01*
X1395984Y6144005D01*
X1793239Y6402578D02*
G01*
X1774697Y6402578D01*
X1756410Y6393434D01*
X1747012Y6365747D01*
X1747012Y6208776D01*
X1719326Y6338062D02*
G01*
X1784095Y6338062D01*
X1854200Y6402578D02*
G01*
X1854200Y6208776D01*
X2025904Y6338062D02*
G01*
X2025904Y6208776D01*
X2025904Y6310376D02*
G01*
X2007615Y6328663D01*
X1989074Y6338062D01*
X1961388Y6338062D01*
X1942845Y6328663D01*
X1924304Y6310376D01*
X1915160Y6282689D01*
X1915160Y6264147D01*
X1924304Y6236462D01*
X1942845Y6217920D01*
X1961388Y6208776D01*
X1989074Y6208776D01*
X2007615Y6217920D01*
X2025904Y6236462D01*
X2086863Y6338062D02*
G01*
X2086863Y6208776D01*
X2086863Y6300978D02*
G01*
X2114550Y6328663D01*
X2133091Y6338062D01*
X2160777Y6338062D01*
X2179320Y6328663D01*
X2188463Y6300978D01*
X2188463Y6208776D01*
X2188463Y6300978D02*
G01*
X2216150Y6328663D01*
X2234691Y6338062D01*
X2262377Y6338062D01*
X2280920Y6328663D01*
X2290063Y6300978D01*
X2290063Y6208776D01*
X2351024Y6282689D02*
G01*
X2462022Y6282689D01*
X2462022Y6300978D01*
X2452624Y6319520D01*
X2443479Y6328663D01*
X2424938Y6338062D01*
X2397252Y6338062D01*
X2378709Y6328663D01*
X2360422Y6310376D01*
X2351024Y6282689D01*
X2351024Y6264147D01*
X2360422Y6236462D01*
X2378709Y6217920D01*
X2397252Y6208776D01*
X2424938Y6208776D01*
X2443479Y6217920D01*
X2462022Y6236462D01*
X2596895Y6402578D02*
G01*
X2578354Y6402578D01*
X2559811Y6393434D01*
X2550668Y6365747D01*
X2550668Y6208776D01*
X2522981Y6338062D02*
G01*
X2587497Y6338062D01*
X2657856Y6402578D02*
G01*
X2667000Y6393434D01*
X2676143Y6402578D01*
X2667000Y6411976D01*
X2657856Y6402578D01*
X2667000Y6338062D02*
G01*
X2667000Y6208776D01*
X2737104Y6338062D02*
G01*
X2737104Y6208776D01*
X2737104Y6282689D02*
G01*
X2746502Y6310376D01*
X2764790Y6328663D01*
X2783331Y6338062D01*
X2811018Y6338062D01*
X2871977Y6282689D02*
G01*
X2982975Y6282689D01*
X2982975Y6300978D01*
X2973577Y6319520D01*
X2964434Y6328663D01*
X2945891Y6338062D01*
X2918206Y6338062D01*
X2899663Y6328663D01*
X2881375Y6310376D01*
X2871977Y6282689D01*
X2871977Y6264147D01*
X2881375Y6236462D01*
X2899663Y6217920D01*
X2918206Y6208776D01*
X2945891Y6208776D01*
X2964434Y6217920D01*
X2982975Y6236462D01*
X-2514600Y6097778D02*
G01*
X-2514600Y5903976D01*
X-2514600Y6097778D02*
G01*
X-2440686Y5903976D01*
X-2366771Y6097778D02*
G01*
X-2440686Y5903976D01*
X-2366771Y6097778D02*
G01*
X-2366771Y5903976D01*
X-2195068Y6033262D02*
G01*
X-2195068Y5903976D01*
X-2195068Y6005576D02*
G01*
X-2213610Y6023863D01*
X-2231897Y6033262D01*
X-2259584Y6033262D01*
X-2278126Y6023863D01*
X-2296668Y6005576D01*
X-2305812Y5977889D01*
X-2305812Y5959347D01*
X-2296668Y5931662D01*
X-2278126Y5913120D01*
X-2259584Y5903976D01*
X-2231897Y5903976D01*
X-2213610Y5913120D01*
X-2195068Y5931662D01*
X-2134107Y6097778D02*
G01*
X-2134107Y5903976D01*
X-2041652Y6033262D02*
G01*
X-2134107Y5940805D01*
X-2097023Y5977889D02*
G01*
X-2032507Y5903976D01*
X-1971547Y6097778D02*
G01*
X-1962150Y6088634D01*
X-1953005Y6097778D01*
X-1962150Y6107176D01*
X-1971547Y6097778D01*
X-1962150Y6033262D02*
G01*
X-1962150Y5903976D01*
X-1892045Y6033262D02*
G01*
X-1892045Y5903976D01*
X-1892045Y5996178D02*
G01*
X-1864360Y6023863D01*
X-1845818Y6033262D01*
X-1818131Y6033262D01*
X-1799589Y6023863D01*
X-1790445Y5996178D01*
X-1790445Y5903976D01*
X-1618742Y6033262D02*
G01*
X-1618742Y5885434D01*
X-1627886Y5857747D01*
X-1637029Y5848350D01*
X-1655571Y5839205D01*
X-1683257Y5839205D01*
X-1701800Y5848350D01*
X-1618742Y6005576D02*
G01*
X-1637029Y6023863D01*
X-1655571Y6033262D01*
X-1683257Y6033262D01*
X-1701800Y6023863D01*
X-1720342Y6005576D01*
X-1729486Y5977889D01*
X-1729486Y5959347D01*
X-1720342Y5931662D01*
X-1701800Y5913120D01*
X-1683257Y5903976D01*
X-1655571Y5903976D01*
X-1637029Y5913120D01*
X-1618742Y5931662D01*
X-1304544Y6033262D02*
G01*
X-1304544Y5903976D01*
X-1304544Y6005576D02*
G01*
X-1323086Y6023863D01*
X-1341628Y6033262D01*
X-1369313Y6033262D01*
X-1387855Y6023863D01*
X-1406144Y6005576D01*
X-1415542Y5977889D01*
X-1415542Y5959347D01*
X-1406144Y5931662D01*
X-1387855Y5913120D01*
X-1369313Y5903976D01*
X-1341628Y5903976D01*
X-1323086Y5913120D01*
X-1304544Y5931662D01*
X-1101344Y6097778D02*
G01*
X-1101344Y5903976D01*
X-1040384Y6097778D02*
G01*
X-1031239Y6088634D01*
X-1022095Y6097778D01*
X-1031239Y6107176D01*
X-1040384Y6097778D01*
X-1031239Y6033262D02*
G01*
X-1031239Y5903976D01*
X-933450Y6097778D02*
G01*
X-933450Y5940805D01*
X-924052Y5913120D01*
X-905510Y5903976D01*
X-887221Y5903976D01*
X-961136Y6033262D02*
G01*
X-896365Y6033262D01*
X-826262Y5977889D02*
G01*
X-715263Y5977889D01*
X-715263Y5996178D01*
X-724662Y6014720D01*
X-733805Y6023863D01*
X-752347Y6033262D01*
X-780034Y6033262D01*
X-798576Y6023863D01*
X-816863Y6005576D01*
X-826262Y5977889D01*
X-826262Y5959347D01*
X-816863Y5931662D01*
X-798576Y5913120D01*
X-780034Y5903976D01*
X-752347Y5903976D01*
X-733805Y5913120D01*
X-715263Y5931662D01*
X-654304Y6033262D02*
G01*
X-654304Y5903976D01*
X-654304Y5977889D02*
G01*
X-645160Y6005576D01*
X-626618Y6023863D01*
X-608329Y6033262D01*
X-580389Y6033262D01*
X-408686Y6033262D02*
G01*
X-408686Y5903976D01*
X-408686Y6005576D02*
G01*
X-427228Y6023863D01*
X-445770Y6033262D01*
X-473455Y6033262D01*
X-491744Y6023863D01*
X-510286Y6005576D01*
X-519429Y5977889D01*
X-519429Y5959347D01*
X-510286Y5931662D01*
X-491744Y5913120D01*
X-473455Y5903976D01*
X-445770Y5903976D01*
X-427228Y5913120D01*
X-408686Y5931662D01*
X-347726Y6097778D02*
G01*
X-347726Y5903976D01*
X-33781Y6097778D02*
G01*
X-33781Y5903976D01*
X-33781Y6005576D02*
G01*
X-52070Y6023863D01*
X-70612Y6033262D01*
X-98297Y6033262D01*
X-116839Y6023863D01*
X-135381Y6005576D01*
X-144526Y5977889D01*
X-144526Y5959347D01*
X-135381Y5931662D01*
X-116839Y5913120D01*
X-98297Y5903976D01*
X-70612Y5903976D01*
X-52070Y5913120D01*
X-33781Y5931662D01*
X27178Y6097778D02*
G01*
X36576Y6088634D01*
X45720Y6097778D01*
X36576Y6107176D01*
X27178Y6097778D01*
X36576Y6033262D02*
G01*
X36576Y5903976D01*
X217423Y6033262D02*
G01*
X217423Y5885434D01*
X208279Y5857747D01*
X199136Y5848350D01*
X180594Y5839205D01*
X152907Y5839205D01*
X134365Y5848350D01*
X217423Y6005576D02*
G01*
X199136Y6023863D01*
X180594Y6033262D01*
X152907Y6033262D01*
X134365Y6023863D01*
X115823Y6005576D01*
X106679Y5977889D01*
X106679Y5959347D01*
X115823Y5931662D01*
X134365Y5913120D01*
X152907Y5903976D01*
X180594Y5903976D01*
X199136Y5913120D01*
X217423Y5931662D01*
X278384Y6097778D02*
G01*
X287781Y6088634D01*
X296926Y6097778D01*
X287781Y6107176D01*
X278384Y6097778D01*
X287781Y6033262D02*
G01*
X287781Y5903976D01*
X385571Y6097778D02*
G01*
X385571Y5940805D01*
X394970Y5913120D01*
X413257Y5903976D01*
X431800Y5903976D01*
X357886Y6033262D02*
G01*
X422655Y6033262D01*
X603504Y6033262D02*
G01*
X603504Y5903976D01*
X603504Y6005576D02*
G01*
X585215Y6023863D01*
X566673Y6033262D01*
X538987Y6033262D01*
X520445Y6023863D01*
X501904Y6005576D01*
X492760Y5977889D01*
X492760Y5959347D01*
X501904Y5931662D01*
X520445Y5913120D01*
X538987Y5903976D01*
X566673Y5903976D01*
X585215Y5913120D01*
X603504Y5931662D01*
X664463Y6097778D02*
G01*
X664463Y5903976D01*
X978662Y6005576D02*
G01*
X960120Y6023863D01*
X941578Y6033262D01*
X913892Y6033262D01*
X895350Y6023863D01*
X877062Y6005576D01*
X867663Y5977889D01*
X867663Y5959347D01*
X877062Y5931662D01*
X895350Y5913120D01*
X913892Y5903976D01*
X941578Y5903976D01*
X960120Y5913120D01*
X978662Y5931662D01*
X1039621Y6097778D02*
G01*
X1039621Y5903976D01*
X1146810Y6033262D02*
G01*
X1128268Y6023863D01*
X1109726Y6005576D01*
X1100581Y5977889D01*
X1100581Y5959347D01*
X1109726Y5931662D01*
X1128268Y5913120D01*
X1146810Y5903976D01*
X1174495Y5903976D01*
X1192784Y5913120D01*
X1211326Y5931662D01*
X1220470Y5959347D01*
X1220470Y5977889D01*
X1211326Y6005576D01*
X1192784Y6023863D01*
X1174495Y6033262D01*
X1146810Y6033262D01*
X1392428Y6005576D02*
G01*
X1373886Y6023863D01*
X1355344Y6033262D01*
X1327657Y6033262D01*
X1309370Y6023863D01*
X1290828Y6005576D01*
X1281429Y5977889D01*
X1281429Y5959347D01*
X1290828Y5931662D01*
X1309370Y5913120D01*
X1327657Y5903976D01*
X1355344Y5903976D01*
X1373886Y5913120D01*
X1392428Y5931662D01*
X1453387Y6097778D02*
G01*
X1453387Y5903976D01*
X1545589Y6033262D02*
G01*
X1453387Y5940805D01*
X1490218Y5977889D02*
G01*
X1554987Y5903976D01*
D11*
X3759200Y3060700D02*
G01*
X3759200Y3454400D01*
X1524000Y3454400D01*
X1524000Y4495800D01*
X1528190Y4499990D01*
X1961489Y4499990D01*
X3759200Y2806700D02*
G01*
X5334000Y2806700D01*
X5334000Y4495800D01*
X5329809Y4499990D01*
X4838496Y4499990D01*
X4013200Y2552700D02*
G01*
X3759200Y2552700D01*
X3759200Y2298700D02*
G01*
X4013200Y2298700D01*
X-3199536Y-495300D02*
G01*
X-3873271Y-495300D01*
X-3876979Y-499008D01*
X-3876979Y-753008D02*
G01*
X-3224936Y-749300D01*
X-3876039Y-1007008D02*
G01*
X-3873271Y-1003300D01*
X-3224936Y-1003300D01*
X2997200Y2298700D02*
G01*
X2997200Y2032000D01*
X-3048863Y-495300D02*
G01*
X-3048863Y-749297D01*
X-3048861Y-749300D01*
X-3048863Y-1003300D02*
G01*
X-3048863Y-749300D01*
X-3302000Y0D02*
G01*
X-3867988Y0D01*
X-3876979Y8991D01*
X-3302000Y254000D02*
G01*
X-3867988Y254000D01*
X-3876979Y262991D01*
X-3302000Y762000D02*
G01*
X-3867988Y762000D01*
X-3876979Y770991D01*
X-3302000Y1016000D02*
G01*
X-3867988Y1016000D01*
X-3876979Y1024991D01*
X-3876979Y1786991D02*
G01*
X-4356100Y1786991D01*
X-4351401Y1791690D01*
X-4351401Y3733800D01*
X-3876979Y-1007008D02*
G01*
X-5105400Y-1007008D01*
X-5105400Y3729812D01*
X-5101412Y3733800D01*
X-3876979Y-753008D02*
G01*
X-4851400Y-753008D01*
X-4851400Y3733800D01*
X-3876979Y-499008D02*
G01*
X-4610100Y-499008D01*
X-4610100Y3725113D01*
X-4601413Y3733800D01*
X1961489Y4499990D02*
G01*
X-5346700Y4499990D01*
X-5346700Y3738498D01*
X-5351398Y3733800D01*
X-6353987Y1532991D02*
G01*
X-5346700Y1532991D01*
X-5346700Y3729101D01*
X-5351398Y3733800D01*
X3378200Y1370736D02*
G01*
X3378200Y3060700D01*
X3759200Y3060700D01*
X3378200Y1016000D02*
G01*
X3378200Y1220061D01*
X2997200Y2298700D02*
G01*
X1600200Y2299462D01*
X1346200Y2299563D02*
G01*
X1600200Y2299563D01*
X1092200Y2299563D02*
G01*
X1346200Y2299563D01*
X2997200Y3060700D02*
G01*
X1092200Y3060700D01*
X1092200Y2654300D01*
X1092200Y2450236D02*
G01*
X1092200Y2654300D01*
X1346200Y2450236D02*
G01*
X1346200Y2654300D01*
X2997200Y2806700D02*
G01*
X1346200Y2805429D01*
X1346200Y2654300D01*
X2997200Y2552700D02*
G01*
X2895600Y2654300D01*
X1600200Y2654300D01*
X1600200Y2450236D02*
G01*
X1600200Y2654300D01*
X-7315200Y1423263D02*
G01*
X-6604000Y1422400D01*
X-6353987Y1278991D01*
X-7315200Y1573936D02*
G01*
X-6604000Y1574800D01*
X-6353987Y1786991D01*
X1092200Y2299563D02*
G01*
X-3048000Y2299563D01*
X-3048000Y1778000D01*
X-7315200Y1423261D02*
G01*
X-7393000Y1345460D01*
X-7393000Y1041400D01*
X-7315200Y1573938D02*
G01*
X-7592999Y1296139D01*
X-7592999Y1136395D01*
X0Y-7024700D02*
G01*
X94995Y-7119696D01*
X94995Y-7224699D01*
X3378200Y1370736D02*
G01*
X3809136Y1370736D01*
X3810000Y1371600D01*
X3793901Y431800D02*
G01*
X3797300Y1219200D01*
X3378200Y1220063D01*
X5195491Y500001D02*
G01*
X5194300Y501190D01*
X5194300Y762000D01*
X5068491Y499998D02*
G01*
X5067300Y762000D01*
X5067300Y762000D01*
X4941491Y499998D02*
G01*
X4940300Y762000D01*
X4940300Y762000D01*
X4814491Y499998D02*
G01*
X4813300Y1066800D01*
X7199884Y1074928D01*
X7199985Y824992D02*
G01*
X7404100Y825500D01*
X7404100Y1193800D01*
X4686300Y1181100D01*
X4687491Y499998D01*
X4560491Y499998D02*
G01*
X4559300Y1320800D01*
X7199985Y1324990D01*
X4433491Y499998D02*
G01*
X4432300Y1574800D01*
X7199884Y1575054D01*
X4940300Y-254000D02*
G01*
X4940300Y-254000D01*
X4941491Y-499998D01*
X5068491Y-499998D02*
G01*
X5068491Y-499998D01*
X5067300Y-254000D01*
X5195491Y-500001D02*
G01*
X5194300Y-498810D01*
X5194300Y-254000D01*
X4687491Y-499998D02*
G01*
X4686300Y-1524000D01*
X7213600Y-1518005D01*
X4814491Y-499998D02*
G01*
X4813300Y-1270000D01*
X7213600Y-1267993D01*
X7213600Y-1018006D02*
G01*
X7429500Y-1018006D01*
X7429500Y-1689100D01*
X4559300Y-1689100D01*
X4560491Y-499998D01*
X4433491Y-499998D02*
G01*
X4432300Y-1866900D01*
X7620000Y-1866900D01*
X7620000Y-774700D01*
X7220305Y-774700D01*
X7213600Y-767994D01*
X5796892Y495300D02*
G01*
X5797699Y190500D01*
X5556907Y495300D02*
G01*
X5556907Y190500D01*
X5657700Y190500D01*
X5657700Y-88900D02*
G01*
X5657700Y190500D01*
X5797699Y-88900D02*
G01*
X5797699Y190500D01*
X5556910Y495300D02*
G01*
X5195491Y499998D01*
X5797702Y-88900D02*
G01*
X5797702Y-1016000D01*
X4940300Y-1016000D01*
X4941491Y-499998D01*
X4941491Y-499998D01*
X3671564Y-500123D02*
G01*
X3670300Y-762000D01*
X2032000Y-2400300D01*
X-5588000Y-2400300D01*
X-6353987Y8991D02*
G01*
X-6332296Y-12700D01*
X-5588000Y-12700D01*
X-5588000Y-1778000D01*
X3544570Y500126D02*
G01*
X3543300Y254000D01*
X1257300Y-2032000D01*
X-6350000Y-2032000D01*
X-6353987Y-2028012D01*
X-6353987Y-1769008D01*
X3671570Y500126D02*
G01*
X3670300Y254000D01*
X1231900Y-2184400D01*
X-6718300Y-2184400D01*
X-6718300Y-749300D01*
X-6468008Y-499008D01*
X-6353987Y-499008D01*
X-3048863Y-495300D02*
G01*
X-3048000Y1778000D01*
X-3868420Y1778000D01*
X-3876039Y1786991D01*
X-7327900Y673100D02*
G01*
X-7315200Y685800D01*
X-7327900Y673100D02*
G01*
X-7592999Y938199D01*
X-7592999Y946404D01*
X-7721600Y1423263D02*
G01*
X-7721600Y952500D01*
X-7714995Y946404D01*
X-7592999Y946404D01*
X-4351398Y3733800D02*
G01*
X-4351398Y4071998D01*
X-4356100Y4076700D01*
X-7239000Y1778000D02*
G01*
X-7620000Y1778000D01*
X-7721600Y1573936D01*
X5195570Y500126D02*
G01*
X5194300Y0D01*
X3544570Y-1270D01*
X3544570Y-500126D01*
X508000Y-7366000D02*
G01*
X46304Y-7366000D01*
X-94995Y-7224699D01*
X508000Y-6972300D02*
G01*
X255600Y-7224699D01*
X94995Y-7224699D01*
X3798570Y-500126D02*
G01*
X3797300Y-762000D01*
X2032000Y-2540000D01*
X-6858000Y-2527300D01*
X-6858000Y-749020D01*
X-6353987Y-245008D01*
X3924300Y-254000D02*
G01*
X3925570Y-500126D01*
X4051300Y-254000D02*
G01*
X4052570Y-500126D01*
X4178300Y-254000D02*
G01*
X4179570Y-500126D01*
X4305300Y-254000D02*
G01*
X4306570Y-500126D01*
X3924300Y762000D02*
G01*
X3925570Y500126D01*
X4051300Y762000D02*
G01*
X4052570Y500126D01*
X4306570Y500126D02*
G01*
X4305300Y254000D01*
X4179570Y500126D02*
G01*
X4178300Y254000D01*
D12*
G01*
X4838496Y4499990D03*
G01*
X1961489Y4499990D03*
D13*
G01*
X5556910Y495300D03*
G01*
X5796889Y495300D03*
D14*
G01*
X5657697Y-88900D03*
G01*
X5797702Y-88900D03*
G01*
X5657697Y190500D03*
G01*
X5797702Y190500D03*
D15*
G01*
X1600200Y2299575D03*
D16*
G01*
X1600200Y2450236D03*
D15*
G01*
X1346200Y2299575D03*
D16*
G01*
X1346200Y2450236D03*
D15*
G01*
X1092200Y2299575D03*
D16*
G01*
X1092200Y2450236D03*
D15*
G01*
X3378200Y1370724D03*
D16*
G01*
X3378200Y1220063D03*
D17*
G01*
X-3199524Y-495300D03*
G01*
X-3048875Y-495300D03*
G01*
X-3199524Y-749300D03*
G01*
X-3048875Y-749300D03*
G01*
X-3199524Y-1003300D03*
G01*
X-3048875Y-1003300D03*
D18*
G01*
X3544493Y499998D03*
G01*
X3544493Y-499998D03*
G01*
X3671493Y499998D03*
G01*
X3671493Y-499998D03*
G01*
X3798493Y499998D03*
G01*
X3798493Y-499998D03*
G01*
X3925493Y499998D03*
G01*
X3925493Y-499998D03*
G01*
X4052493Y499998D03*
G01*
X4052493Y-499998D03*
G01*
X4179493Y499998D03*
G01*
X4179493Y-499998D03*
G01*
X4306493Y499998D03*
G01*
X4306493Y-499998D03*
G01*
X4433493Y499998D03*
G01*
X4433493Y-499998D03*
G01*
X4560493Y499998D03*
G01*
X4560493Y-499998D03*
G01*
X4687493Y499998D03*
G01*
X4687493Y-499998D03*
G01*
X4814493Y499998D03*
G01*
X4814493Y-499998D03*
G01*
X4941493Y499998D03*
G01*
X4941493Y-499998D03*
G01*
X5068493Y499998D03*
G01*
X5068493Y-499998D03*
G01*
X5195493Y499998D03*
G01*
X5195493Y-499998D03*
D19*
G01*
X-94995Y-7224699D03*
G01*
X94995Y-7224699D03*
G01*
X0Y-7024700D03*
D20*
G01*
X-7592999Y1136395D03*
G01*
X-7592999Y946404D03*
G01*
X-7393000Y1041400D03*
D15*
G01*
X-7721600Y1573924D03*
D16*
G01*
X-7721600Y1423263D03*
D15*
G01*
X-7315200Y1573924D03*
D16*
G01*
X-7315200Y1423263D03*
D21*
G01*
X1143000Y-218998D03*
G01*
X-1143000Y-218998D03*
G01*
X1397000Y-1235989D03*
D22*
G01*
X1397000Y35991D03*
D21*
G01*
X1143000Y-980998D03*
G01*
X-1397000Y-1235989D03*
G01*
X-1397000Y35991D03*
G01*
X-1143000Y-980998D03*
D23*
G01*
X-6353987Y1786991D03*
G01*
X-6353987Y1532991D03*
G01*
X-6353987Y1278991D03*
G01*
X-6353987Y1024991D03*
G01*
X-6353987Y770991D03*
G01*
X-6353987Y516991D03*
G01*
X-6353987Y262991D03*
G01*
X-6353987Y8991D03*
G01*
X-6353987Y-245008D03*
G01*
X-6353987Y-499008D03*
G01*
X-6353987Y-753008D03*
G01*
X-6353987Y-1007008D03*
G01*
X-6353987Y-1261008D03*
G01*
X-6353987Y-1515008D03*
G01*
X-6353987Y-1769008D03*
G01*
X-3876979Y1786991D03*
G01*
X-3876979Y1532991D03*
G01*
X-3876979Y1278991D03*
G01*
X-3876979Y1024991D03*
G01*
X-3876979Y770991D03*
G01*
X-3876979Y516991D03*
G01*
X-3876979Y262991D03*
G01*
X-3876979Y8991D03*
G01*
X-3876979Y-245008D03*
G01*
X-3876979Y-499008D03*
G01*
X-3876979Y-753008D03*
G01*
X-3876979Y-1007008D03*
G01*
X-3876979Y-1261008D03*
G01*
X-3876979Y-1515008D03*
G01*
X-3876979Y-1769008D03*
D24*
G01*
X7199985Y1575003D03*
G01*
X7199985Y1324990D03*
G01*
X7199985Y1075004D03*
G01*
X7199985Y824992D03*
G01*
X7199985Y-824992D03*
G01*
X7199985Y-1075004D03*
G01*
X7199985Y-1324990D03*
G01*
X7199985Y-1575003D03*
D25*
G01*
X3759200Y2298700D03*
D26*
G01*
X3759200Y2552700D03*
G01*
X3759200Y2806700D03*
G01*
X3759200Y3060700D03*
G01*
X2997200Y2298700D03*
G01*
X2997200Y2552700D03*
G01*
X2997200Y2806700D03*
G01*
X2997200Y3060700D03*
D27*
G01*
X4013200Y2552700D03*
G01*
X4013200Y2298700D03*
D28*
G01*
X-4851400Y3733800D03*
G01*
X-4601413Y3733800D03*
D29*
G01*
X-4351401Y3733800D03*
D28*
G01*
X-5101412Y3733800D03*
G01*
X-5351398Y3733800D03*
D30*
G01*
X5067300Y-254000D03*
G01*
X5194300Y-254000D03*
G01*
X-3302000Y254000D03*
G01*
X-3302000Y0D03*
G01*
X-3302000Y762000D03*
G01*
X-3302000Y1016000D03*
G01*
X4940300Y762000D03*
G01*
X5067300Y762000D03*
G01*
X2997200Y2032000D03*
G01*
X5194300Y762000D03*
G01*
X3378200Y1016000D03*
G01*
X-7327900Y673100D03*
G01*
X1346200Y2654300D03*
G01*
X1092200Y2654300D03*
G01*
X1600200Y2654300D03*
G01*
X-6985000Y-749300D03*
G01*
X-7112000Y-1524000D03*
G01*
X-6718300Y762000D03*
G01*
X4940300Y-254000D03*
G01*
X508000Y-6972300D03*
G01*
X3810000Y1371600D03*
G01*
X-5588000Y-1778000D03*
G01*
X-5588000Y-2400300D03*
G01*
X-7239000Y1778000D03*
G01*
X-4356100Y4076700D03*
G01*
X4305300Y254000D03*
G01*
X4178300Y254000D03*
G01*
X4051300Y762000D03*
G01*
X3924300Y762000D03*
G01*
X508000Y-7366000D03*
G01*
X3924300Y-254000D03*
G01*
X4051300Y-254000D03*
G01*
X4178300Y-254000D03*
G01*
X4305300Y-254000D03*
M02*
