G04 Layer: BottomSolderMaskLayer*
G04 EasyEDA v6.5.22, 2022-11-14 19:57:00*
G04 f0da57bd03cf490fa7de3f553d211417,61aeb1a5dc08497992730370c491a1bd,10*
G04 Gerber Generator version 0.2*
G04 Scale: 100 percent, Rotated: No, Reflected: No *
G04 Dimensions in millimeters *
G04 leading zeros omitted , absolute positions ,4 integer and 5 decimal *
%FSLAX45Y45*%
%MOMM*%

%AMMACRO1*1,1,$1,$2,$3*1,1,$1,$4,$5*1,1,$1,0-$2,0-$3*1,1,$1,0-$4,0-$5*20,1,$1,$2,$3,$4,$5,0*20,1,$1,$4,$5,0-$2,0-$3,0*20,1,$1,0-$2,0-$3,0-$4,0-$5,0*20,1,$1,0-$4,0-$5,$2,$3,0*4,1,4,$2,$3,$4,$5,0-$2,0-$3,0-$4,0-$5,$2,$3,0*%
%ADD10C,2.2032*%
%ADD11MACRO1,0.2032X1X1X-1X1*%
%ADD12C,2.0320*%
%ADD13C,1.8000*%
%ADD14MACRO1,0.1016X-0.75X-0.75X-0.75X0.75*%
%ADD15C,1.6016*%
%ADD16C,1.7780*%
%ADD17C,1.9016*%
%ADD18MACRO1,0.1016X0.9X-0.9X-0.9X-0.9*%

%LPD*%
D10*
G01*
X1143000Y-218998D03*
G01*
X-1143000Y-218998D03*
G01*
X1397000Y-1235989D03*
D11*
G01*
X1397000Y35991D03*
D10*
G01*
X1143000Y-980998D03*
G01*
X-1397000Y-1235989D03*
G01*
X-1397000Y35991D03*
G01*
X-1143000Y-980998D03*
D12*
G01*
X-6353987Y1786991D03*
G01*
X-6353987Y1532991D03*
G01*
X-6353987Y1278991D03*
G01*
X-6353987Y1024991D03*
G01*
X-6353987Y770991D03*
G01*
X-6353987Y516991D03*
G01*
X-6353987Y262991D03*
G01*
X-6353987Y8991D03*
G01*
X-6353987Y-245008D03*
G01*
X-6353987Y-499008D03*
G01*
X-6353987Y-753008D03*
G01*
X-6353987Y-1007008D03*
G01*
X-6353987Y-1261008D03*
G01*
X-6353987Y-1515008D03*
G01*
X-6353987Y-1769008D03*
G01*
X-3876979Y1786991D03*
G01*
X-3876979Y1532991D03*
G01*
X-3876979Y1278991D03*
G01*
X-3876979Y1024991D03*
G01*
X-3876979Y770991D03*
G01*
X-3876979Y516991D03*
G01*
X-3876979Y262991D03*
G01*
X-3876979Y8991D03*
G01*
X-3876979Y-245008D03*
G01*
X-3876979Y-499008D03*
G01*
X-3876979Y-753008D03*
G01*
X-3876979Y-1007008D03*
G01*
X-3876979Y-1261008D03*
G01*
X-3876979Y-1515008D03*
G01*
X-3876979Y-1769008D03*
D13*
G01*
X7199985Y1575003D03*
G01*
X7199985Y1324990D03*
G01*
X7199985Y1075004D03*
G01*
X7199985Y824992D03*
G01*
X7199985Y-824992D03*
G01*
X7199985Y-1075004D03*
G01*
X7199985Y-1324990D03*
G01*
X7199985Y-1575003D03*
D14*
G01*
X3759200Y2298700D03*
D15*
G01*
X3759200Y2552700D03*
G01*
X3759200Y2806700D03*
G01*
X3759200Y3060700D03*
G01*
X2997200Y2298700D03*
G01*
X2997200Y2552700D03*
G01*
X2997200Y2806700D03*
G01*
X2997200Y3060700D03*
D16*
G01*
X4013200Y2552700D03*
G01*
X4013200Y2298700D03*
D17*
G01*
X-4851400Y3733800D03*
G01*
X-4601413Y3733800D03*
D18*
G01*
X-4351400Y3733800D03*
D17*
G01*
X-5101412Y3733800D03*
G01*
X-5351398Y3733800D03*
M02*
