G04 Layer: TopSolderMaskLayer*
G04 EasyEDA v6.5.22, 2022-11-14 19:57:00*
G04 f0da57bd03cf490fa7de3f553d211417,61aeb1a5dc08497992730370c491a1bd,10*
G04 Gerber Generator version 0.2*
G04 Scale: 100 percent, Rotated: No, Reflected: No *
G04 Dimensions in millimeters *
G04 leading zeros omitted , absolute positions ,4 integer and 5 decimal *
%FSLAX45Y45*%
%MOMM*%

%AMMACRO1*1,1,$1,$2,$3*1,1,$1,$4,$5*1,1,$1,0-$2,0-$3*1,1,$1,0-$4,0-$5*20,1,$1,$2,$3,$4,$5,0*20,1,$1,$4,$5,0-$2,0-$3,0*20,1,$1,0-$2,0-$3,0-$4,0-$5,0*20,1,$1,0-$4,0-$5,$2,$3,0*4,1,4,$2,$3,$4,$5,0-$2,0-$3,0-$4,0-$5,$2,$3,0*%
%AMMACRO2*4,1,32,-0.2496,-1.0508,-0.2648,-1.0483,-0.28,-1.0406,-0.2902,-1.0305,-0.2978,-1.0152,-0.3004,-1,-0.3011,-0.9995,-0.3011,0.9995,-0.3004,1,-0.2978,1.0152,-0.2902,1.0305,-0.28,1.0406,-0.2648,1.0483,-0.2496,1.0508,-0.2503,1.0503,0.2501,1.0503,0.2503,1.0508,0.2656,1.0483,0.2808,1.0406,0.291,1.0305,0.2986,1.0152,0.3011,1,0.3009,0.9995,0.3009,-0.9995,0.3011,-1,0.2986,-1.0152,0.291,-1.0305,0.2808,-1.0406,0.2656,-1.0483,0.2503,-1.0508,0.2501,-1.0503,-0.2503,-1.0503,-0.2496,-1.0508,0*%
%ADD10C,2.2032*%
%ADD11MACRO1,0.2032X1X1X-1X1*%
%ADD12C,2.0320*%
%ADD13MACRO1,0.1016X-2.1X1.9X2.1X1.9*%
%ADD14MACRO1,0.1016X-0.75X0.6795X0.75X0.6795*%
%ADD15MACRO1,0.1016X0.4X-0.45X-0.4X-0.45*%
%ADD16C,1.8000*%
%ADD17MACRO1,0.1016X-0.432X0.4032X0.432X0.4032*%
%ADD18MACRO1,0.1016X-0.432X-0.4032X0.432X-0.4032*%
%ADD19MACRO1,0.1016X0.432X-0.4032X-0.432X-0.4032*%
%ADD20MACRO1,0.1016X0.432X0.4032X-0.432X0.4032*%
%ADD21MACRO1,0.1016X0.4032X0.432X0.4032X-0.432*%
%ADD22MACRO1,0.1016X-0.4032X0.432X-0.4032X-0.432*%
%ADD23MACRO2*%
%ADD24MACRO1,0.1016X-0.75X-0.75X-0.75X0.75*%
%ADD25C,1.6016*%
%ADD26C,1.7780*%
%ADD27C,1.9016*%
%ADD28MACRO1,0.1016X0.9X-0.9X-0.9X-0.9*%
%ADD29MACRO1,0.1016X0.35X0.625X0.35X-0.625*%
%ADD30MACRO1,0.1016X0.625X-0.35X-0.625X-0.35*%

%LPD*%
D10*
G01*
X1143000Y-218998D03*
G01*
X-1143000Y-218998D03*
G01*
X1397000Y-1235989D03*
D11*
G01*
X1397000Y35991D03*
D10*
G01*
X1143000Y-980998D03*
G01*
X-1397000Y-1235989D03*
G01*
X-1397000Y35991D03*
G01*
X-1143000Y-980998D03*
D12*
G01*
X-6353987Y1786991D03*
G01*
X-6353987Y1532991D03*
G01*
X-6353987Y1278991D03*
G01*
X-6353987Y1024991D03*
G01*
X-6353987Y770991D03*
G01*
X-6353987Y516991D03*
G01*
X-6353987Y262991D03*
G01*
X-6353987Y8991D03*
G01*
X-6353987Y-245008D03*
G01*
X-6353987Y-499008D03*
G01*
X-6353987Y-753008D03*
G01*
X-6353987Y-1007008D03*
G01*
X-6353987Y-1261008D03*
G01*
X-6353987Y-1515008D03*
G01*
X-6353987Y-1769008D03*
G01*
X-3876979Y1786991D03*
G01*
X-3876979Y1532991D03*
G01*
X-3876979Y1278991D03*
G01*
X-3876979Y1024991D03*
G01*
X-3876979Y770991D03*
G01*
X-3876979Y516991D03*
G01*
X-3876979Y262991D03*
G01*
X-3876979Y8991D03*
G01*
X-3876979Y-245008D03*
G01*
X-3876979Y-499008D03*
G01*
X-3876979Y-753008D03*
G01*
X-3876979Y-1007008D03*
G01*
X-3876979Y-1261008D03*
G01*
X-3876979Y-1515008D03*
G01*
X-3876979Y-1769008D03*
D13*
G01*
X4838496Y4499990D03*
G01*
X1961489Y4499990D03*
D14*
G01*
X5556900Y495300D03*
G01*
X5796898Y495300D03*
D15*
G01*
X5657700Y-88900D03*
G01*
X5797699Y-88900D03*
G01*
X5657700Y190500D03*
G01*
X5797699Y190500D03*
D16*
G01*
X7199985Y1575003D03*
G01*
X7199985Y1324990D03*
G01*
X7199985Y1075004D03*
G01*
X7199985Y824992D03*
G01*
X7199985Y-824992D03*
G01*
X7199985Y-1075004D03*
G01*
X7199985Y-1324990D03*
G01*
X7199985Y-1575003D03*
D17*
G01*
X1600200Y2299575D03*
D18*
G01*
X1600200Y2450224D03*
D17*
G01*
X1346200Y2299575D03*
D18*
G01*
X1346200Y2450224D03*
D17*
G01*
X1092200Y2299575D03*
D18*
G01*
X1092200Y2450224D03*
D19*
G01*
X3378200Y1370724D03*
D20*
G01*
X3378200Y1220075D03*
D21*
G01*
X-3199524Y-495300D03*
D22*
G01*
X-3048875Y-495300D03*
D21*
G01*
X-3199524Y-749300D03*
D22*
G01*
X-3048875Y-749300D03*
D21*
G01*
X-3199524Y-1003300D03*
D22*
G01*
X-3048875Y-1003300D03*
D23*
G01*
X3544455Y499998D03*
G01*
X3544455Y-499998D03*
G01*
X3671455Y499998D03*
G01*
X3671455Y-499998D03*
G01*
X3798455Y499998D03*
G01*
X3798455Y-499998D03*
G01*
X3925455Y499998D03*
G01*
X3925455Y-499998D03*
G01*
X4052455Y499998D03*
G01*
X4052455Y-499998D03*
G01*
X4179455Y499998D03*
G01*
X4179455Y-499998D03*
G01*
X4306455Y499998D03*
G01*
X4306455Y-499998D03*
G01*
X4433455Y499998D03*
G01*
X4433455Y-499998D03*
G01*
X4560455Y499998D03*
G01*
X4560455Y-499998D03*
G01*
X4687455Y499998D03*
G01*
X4687455Y-499998D03*
G01*
X4814455Y499998D03*
G01*
X4814455Y-499998D03*
G01*
X4941455Y499998D03*
G01*
X4941455Y-499998D03*
G01*
X5068455Y499998D03*
G01*
X5068455Y-499998D03*
G01*
X5195455Y499998D03*
G01*
X5195455Y-499998D03*
D24*
G01*
X3759200Y2298700D03*
D25*
G01*
X3759200Y2552700D03*
G01*
X3759200Y2806700D03*
G01*
X3759200Y3060700D03*
G01*
X2997200Y2298700D03*
G01*
X2997200Y2552700D03*
G01*
X2997200Y2806700D03*
G01*
X2997200Y3060700D03*
D26*
G01*
X4013200Y2552700D03*
G01*
X4013200Y2298700D03*
D27*
G01*
X-4851400Y3733800D03*
G01*
X-4601413Y3733800D03*
D28*
G01*
X-4351400Y3733800D03*
D27*
G01*
X-5101412Y3733800D03*
G01*
X-5351398Y3733800D03*
D29*
G01*
X-94996Y-7224699D03*
G01*
X94994Y-7224699D03*
G01*
X-1Y-7024700D03*
D30*
G01*
X-7592999Y1136396D03*
G01*
X-7592999Y946405D03*
G01*
X-7393000Y1041401D03*
D19*
G01*
X-7721600Y1573924D03*
D20*
G01*
X-7721600Y1423275D03*
D19*
G01*
X-7315200Y1573924D03*
D20*
G01*
X-7315200Y1423275D03*
M02*
